<svg xmlns="http://www.w3.org/2000/svg" xmlns:xlink="http://www.w3.org/1999/xlink" width="161" height="35" viewBox="0 0 161 35">
  <defs>
    <clipPath id="clip-path">
      <rect id="Rectangle_299" data-name="Rectangle 299" width="161" height="35" fill="#040741"/>
    </clipPath>
  </defs>
  <g id="WORDMARK_NAVY_RGB" clip-path="url(#clip-path)">
    <g id="Wordmark" transform="translate(1.317 1.498)">
      <g id="Group_7" data-name="Group 7">
        <g id="Group_5" data-name="Group 5" transform="translate(25.888)">
          <g id="Group_4" data-name="Group 4">
            <g id="Group_3" data-name="Group 3">
              <g id="Group_2" data-name="Group 2">
                <g id="Group_1" data-name="Group 1">
                  <path id="Path_1" data-name="Path 1" d="M2338.582,452.746a12.3,12.3,0,0,0-12.629,12.672c0,7.711,5.877,12.676,13.106,12.677,3.421,0,7.711-1.155,10.169-3.661a1.4,1.4,0,0,0,0-2.217l-1.156-1.157c-.771-.82-1.445-.675-2.313,0a9.8,9.8,0,0,1-6.121,2.168c-3.711,0-6.988-2.266-7.372-6.363l16.675,0c1.446,0,1.976-.626,1.977-1.976a11.8,11.8,0,0,0-12.335-12.147Zm-6.267,10.167a5.98,5.98,0,0,1,6.17-5.445,5.837,5.837,0,0,1,4.433,1.784,6.533,6.533,0,0,1,1.734,3.663Z" transform="translate(-2325.953 -446.15)" fill="#040741"/>
                  <path id="Path_2" data-name="Path 2" d="M2558.306,462.907c-2.843-1.109-4.963-1.736-4.963-3.278,0-1.205,1.158-2.024,3.037-2.024a7.275,7.275,0,0,1,4.963,1.88,1.808,1.808,0,0,0,2.651-.241l.675-.867c1.013-1.2.771-1.976-.1-2.747a12.419,12.419,0,0,0-8.192-2.845c-5.542,0-9.158,2.794-9.158,7.179,0,4.627,4.191,6.121,8.143,7.471,2.169.868,4.193,1.543,4.191,3.422,0,1.4-1.351,2.313-3.422,2.313a9.272,9.272,0,0,1-6.071-2.459,1.7,1.7,0,0,0-2.7.144l-.82.916a1.64,1.64,0,0,0,.1,2.7c2.024,2.169,5.783,3.664,9.542,3.665,5.638,0,9.5-2.794,9.5-7.372C2565.679,466.282,2562.354,464.547,2558.306,462.907Z" transform="translate(-2502.195 -446.183)" fill="#040741"/>
                  <path id="Path_3" data-name="Path 3" d="M2678.055,454.746h-2.988a1.711,1.711,0,0,0-1.711,1.711l0,12.458c0,3.181-1.929,5.253-4.965,5.252-2.94,0-4.771-2.073-4.77-5.109l0-12.6a1.711,1.711,0,0,0-1.711-1.711h-2.988a1.711,1.711,0,0,0-1.711,1.711l0,13.325c0,5.928,3.9,9.928,9.781,9.93a8.383,8.383,0,0,0,7.374-3.806v1.47a1.711,1.711,0,0,0,1.711,1.711h1.976a1.711,1.711,0,0,0,1.711-1.711l0-20.915A1.711,1.711,0,0,0,2678.055,454.746Z" transform="translate(-2591.407 -447.751)" fill="#040741"/>
                  <path id="Path_4" data-name="Path 4" d="M2801.719,453.261a9.829,9.829,0,0,0-3.036-.434,7.586,7.586,0,0,0-6.459,3.709v-1.614a1.711,1.711,0,0,0-1.711-1.711h-2.072a1.711,1.711,0,0,0-1.711,1.711l0,20.915a1.711,1.711,0,0,0,1.711,1.711h2.988a1.711,1.711,0,0,0,1.711-1.711l0-11.639c0-3.47,1.784-5.88,4.965-5.878a6.573,6.573,0,0,1,2.12.386,1.377,1.377,0,0,0,1.928-1.108l.627-2.409A1.376,1.376,0,0,0,2801.719,453.261Z" transform="translate(-2695.197 -446.214)" fill="#040741"/>
                  <path id="Path_5" data-name="Path 5" d="M2891.693,464.993a12.485,12.485,0,0,0-24.963.526c0,7.711,5.877,12.676,13.106,12.677,3.422,0,7.711-1.155,10.169-3.661a1.4,1.4,0,0,0,0-2.217l-1.156-1.157c-.771-.82-1.446-.675-2.313,0a9.8,9.8,0,0,1-6.121,2.167c-3.711,0-6.988-2.266-7.373-6.363l16.675,0C2891.164,466.969,2891.693,466.342,2891.693,464.993Zm-18.6-1.979a5.979,5.979,0,0,1,6.17-5.445,5.838,5.838,0,0,1,4.433,1.784,6.535,6.535,0,0,1,1.734,3.663Z" transform="translate(-2759.308 -446.23)" fill="#040741"/>
                  <path id="Path_6" data-name="Path 6" d="M2479.733,445.853c-.434-.819-.964-1.3-2.072-.627a4.486,4.486,0,0,1-2.217.722c-1.88,0-3.181-1.013-3.18-3.711l0-10.892h5.518a1.711,1.711,0,0,0,1.711-1.711v-1.4a1.711,1.711,0,0,0-1.711-1.711h-5.518v-5.271a1.711,1.711,0,0,0-1.708-1.711l-2.94,0a1.711,1.711,0,0,0-1.713,1.71v5.274l0,16.289c0,5.976,3.9,8.676,8.48,8.676a9.407,9.407,0,0,0,5.4-1.541c.626-.434,1.35-1.06.82-2.072Z" transform="translate(-2438.103 -419.541)" fill="#040741"/>
                </g>
              </g>
            </g>
          </g>
        </g>
        <g id="Group_6" data-name="Group 6">
          <path id="Path_7" data-name="Path 7" d="M2241.6,454.924a.2.2,0,0,0,.2-.235,1.576,1.576,0,0,0-3.1,0,.2.2,0,0,0,.2.235C2240.189,454.921,2241.122,454.924,2241.6,454.924Z" transform="translate(-2230.137 -446.665)" fill="#040741"/>
          <path id="Path_8" data-name="Path 8" d="M2208.736,419.541H2197.36a1.71,1.71,0,0,0-1.71,1.71v3.192a3.206,3.206,0,0,1,2.072-1.251,6.394,6.394,0,0,0-1.871,2.152,2.071,2.071,0,0,0-.213,1.118c.07.465.435.735.591,1.158.167.452-.032.7-.246,1.071a1.919,1.919,0,0,0-.242,1.589,2.616,2.616,0,0,0,.838.915,11,11,0,0,0,4.275,2.446c1.031.264,2.074.047,2.309-1.127.711-3.551-2.483-9.88-2.483-9.88,1.994-.211,4.612-.093,5.882,1.523,1.792,2.28,3.738,2.324,5.731,2.362h3.311c2.195,0,1.25,1.934,1.258,2.1.064,1.321.022,6.783-5.291,6.783h-7.779c-8.17,0-8.146,5.069-8.146,8.146v5.622a1.71,1.71,0,0,0,1.71,1.71h3.437a1.711,1.711,0,0,0,1.71-1.708l.017-9.48,6.216-.011c7.726,0,11.879-3.814,11.879-10.044C2220.615,423.356,2216.414,419.541,2208.736,419.541Z" transform="translate(-2195.629 -419.541)" fill="#040741"/>
        </g>
      </g>
    </g>
  </g>
</svg>
