<?xml version="1.0" standalone="no"?>
<!DOCTYPE svg PUBLIC "-//W3C//DTD SVG 1.1//EN" "http://www.w3.org/Graphics/SVG/1.1/DTD/svg11.dtd" >
<svg xmlns="http://www.w3.org/2000/svg" xmlns:xlink="http://www.w3.org/1999/xlink" version="1.1">
<metadata>
Created by FontForge 20190801 at Wed Sep 25 17:32:50 2019
 By root
Copyright \(c\) 2019 by Enrique Hernandez Vasquez. All rights reserved.
</metadata>
<defs>
<font id="Goldplay-SemiBold" horiz-adv-x="0" >
  <font-face 
    font-family="Goldplay SemiBold"
    font-weight="600"
    font-stretch="normal"
    units-per-em="1000"
    panose-1="0 0 7 0 0 0 0 0 0 0"
    ascent="800"
    descent="-200"
    x-height="505"
    cap-height="650"
    bbox="-704 -271 2207 953"
    underline-thickness="50"
    underline-position="-100"
    stemh="112"
    stemv="134"
    unicode-range="U+0020-FB02"
  />
<missing-glyph horiz-adv-x="530" 
d="M50 730h430v-730h-430v730zM115 695l150 -287l150 287h-300zM243 365l-153 292v-584zM288 365l152 -292v584zM265 322l-150 -287h300z" />
    <glyph glyph-name="fi" unicode="fi" horiz-adv-x="654" 
d="M519 560c-47 0 -86 38 -86 86c0 47 39 85 86 85c46 0 85 -38 85 -85c0 -48 -38 -86 -85 -86zM546 505c24 0 38 -13 38 -37v-429c0 -24 -14 -39 -38 -39h-58c-24 0 -37 15 -37 39v366h-211v-367c0 -24 -13 -38 -37 -38h-58c-24 0 -38 14 -38 38v367h-48
c-24 0 -37 14 -37 38v25c0 24 13 37 37 37h48v21c0 135 91 194 191 194c33 0 66 -6 90 -18c18 -8 31 -19 20 -46l-12 -30c-11 -24 -24 -27 -45 -19c-14 6 -26 9 -38 9c-44 0 -73 -28 -73 -90v-21h306z" />
    <glyph glyph-name="fl" unicode="fl" horiz-adv-x="629" 
d="M521 714c27 6 40 -12 40 -38v-637c0 -24 -13 -39 -37 -39h-58c-24 0 -38 15 -38 39v537c-29 28 -74 40 -104 40c-48 0 -84 -34 -84 -89v-22h92c24 0 37 -13 37 -37v-25c0 -24 -13 -38 -37 -38h-92v-367c0 -24 -13 -38 -37 -38h-58c-24 0 -38 14 -38 38v367h-48
c-24 0 -37 14 -37 38v25c0 24 13 37 37 37h48v21c0 126 92 194 201 194c48 0 92 -14 126 -34c6 9 17 14 32 17z" />
    <glyph glyph-name=".notdef" horiz-adv-x="530" 
d="M50 730h430v-730h-430v730zM115 695l150 -287l150 287h-300zM243 365l-153 292v-584zM288 365l152 -292v584zM265 322l-150 -287h300z" />
    <glyph glyph-name="space" unicode=" " horiz-adv-x="225" 
 />
    <glyph glyph-name="A" unicode="A" horiz-adv-x="692" 
d="M673 39c11 -25 -1 -39 -27 -39h-78c-25 0 -30 14 -41 39l-35 84h-296l-36 -84c-10 -25 -15 -39 -41 -39h-73c-25 0 -38 14 -26 39l275 583c10 21 24 34 47 34h9c23 0 38 -13 48 -34zM238 220h213l-105 252z" />
    <glyph glyph-name="Aacute" unicode="&#xc1;" horiz-adv-x="692" 
d="M229 731l-10 15c-14 22 -7 36 14 49l154 97c30 19 42 12 54 -9l22 -37c16 -27 8 -38 -20 -50l-164 -74c-26 -11 -39 -9 -50 9zM673 39c11 -25 -1 -39 -27 -39h-78c-25 0 -30 14 -41 39l-35 84h-296l-36 -84c-10 -25 -15 -39 -41 -39h-73c-25 0 -38 14 -26 39l275 583
c10 21 24 34 47 34h9c23 0 38 -13 48 -34zM238 220h213l-105 252z" />
    <glyph glyph-name="Abreve" unicode="&#x102;" horiz-adv-x="692" 
d="M346 715c-93 0 -165 65 -165 154c0 20 13 30 32 30h27c19 0 34 -9 34 -30c0 -45 29 -71 73 -71s73 26 73 71c0 21 15 30 34 30h25c20 0 32 -10 32 -30c0 -89 -72 -154 -165 -154zM673 39c11 -25 -1 -39 -27 -39h-78c-25 0 -30 14 -41 39l-35 84h-296l-36 -84
c-10 -25 -15 -39 -41 -39h-73c-25 0 -38 14 -26 39l275 583c10 21 24 34 47 34h9c23 0 38 -13 48 -34zM238 220h213l-105 252z" />
    <glyph glyph-name="Acircumflex" unicode="&#xc2;" horiz-adv-x="692" 
d="M183 731l-10 15c-13 22 -5 37 18 51l134 81c18 10 27 9 44 0l134 -81c23 -14 31 -29 18 -51l-10 -15c-12 -20 -27 -22 -55 -8l-109 57l-109 -57c-28 -14 -43 -12 -55 8zM673 39c11 -25 -1 -39 -27 -39h-78c-25 0 -30 14 -41 39l-35 84h-296l-36 -84
c-10 -25 -15 -39 -41 -39h-73c-25 0 -38 14 -26 39l275 583c10 21 24 34 47 34h9c23 0 38 -13 48 -34zM238 220h213l-105 252z" />
    <glyph glyph-name="Adieresis" unicode="&#xc4;" horiz-adv-x="692" 
d="M236 724c-45 0 -83 38 -83 82c0 45 38 83 83 83s83 -38 83 -83s-39 -82 -83 -82zM455 724c-44 0 -82 38 -82 82c0 45 38 83 82 83c45 0 83 -38 83 -83s-38 -82 -83 -82zM673 39c11 -25 -1 -39 -27 -39h-78c-25 0 -30 14 -41 39l-35 84h-296l-36 -84
c-10 -25 -15 -39 -41 -39h-73c-25 0 -38 14 -26 39l275 583c10 21 24 34 47 34h9c23 0 38 -13 48 -34zM238 220h213l-105 252z" />
    <glyph glyph-name="Agrave" unicode="&#xc0;" horiz-adv-x="692" 
d="M279 796c-29 12 -37 23 -21 50l22 37c13 21 24 28 55 9l154 -97c21 -13 28 -27 13 -49l-9 -15c-12 -18 -24 -20 -51 -9zM673 39c11 -25 -1 -39 -27 -39h-78c-25 0 -30 14 -41 39l-35 84h-296l-36 -84c-10 -25 -15 -39 -41 -39h-73c-25 0 -38 14 -26 39l275 583
c10 21 24 34 47 34h9c23 0 38 -13 48 -34zM238 220h213l-105 252z" />
    <glyph glyph-name="Amacron" unicode="&#x100;" horiz-adv-x="692" 
d="M223 759c-25 0 -39 13 -39 38v18c0 25 14 38 39 38h247c25 0 38 -13 38 -38v-18c0 -25 -13 -38 -38 -38h-247zM673 39c11 -25 -1 -39 -27 -39h-78c-25 0 -30 14 -41 39l-35 84h-296l-36 -84c-10 -25 -15 -39 -41 -39h-73c-25 0 -38 14 -26 39l275 583c10 21 24 34 47 34
h9c23 0 38 -13 48 -34zM238 220h213l-105 252z" />
    <glyph glyph-name="Aogonek" unicode="&#x104;" horiz-adv-x="692" 
d="M708 -166c9 -21 -2 -36 -22 -45c-87 -44 -196 2 -196 100c0 44 28 80 68 112c-17 4 -22 17 -31 38l-35 84h-296l-36 -84c-10 -25 -15 -39 -41 -39h-73c-25 0 -38 14 -26 39l275 583c10 21 24 34 47 34h9c23 0 38 -13 48 -34l274 -583c11 -24 -1 -38 -25 -39
c-36 -23 -64 -61 -64 -95c0 -47 36 -59 77 -46c18 5 33 7 43 -17zM238 220h213l-105 252z" />
    <glyph glyph-name="Aring" unicode="&#xc5;" horiz-adv-x="692" 
d="M347 714c-64 0 -117 51 -117 115s53 116 117 116s118 -52 118 -116s-54 -115 -118 -115zM347 872c-22 0 -42 -19 -42 -43c0 -23 20 -43 42 -43c23 0 42 20 42 43c0 24 -19 43 -42 43zM673 39c11 -25 -1 -39 -27 -39h-78c-25 0 -30 14 -41 39l-35 84h-296l-36 -84
c-10 -25 -15 -39 -41 -39h-73c-25 0 -38 14 -26 39l275 583c10 21 24 34 47 34h9c23 0 38 -13 48 -34zM238 220h213l-105 252z" />
    <glyph glyph-name="Atilde" unicode="&#xc3;" horiz-adv-x="692" 
d="M187 715c-23 0 -35 10 -35 31c0 85 49 133 109 133c76 0 117 -65 165 -65c17 0 29 13 29 34c0 22 13 32 36 32h19c23 0 35 -10 35 -32c0 -85 -49 -132 -109 -132c-82 0 -120 64 -162 64c-19 0 -31 -12 -32 -34c-3 -22 -13 -31 -35 -31h-20zM673 39c11 -25 -1 -39 -27 -39
h-78c-25 0 -30 14 -41 39l-35 84h-296l-36 -84c-10 -25 -15 -39 -41 -39h-73c-25 0 -38 14 -26 39l275 583c10 21 24 34 47 34h9c23 0 38 -13 48 -34zM238 220h213l-105 252z" />
    <glyph glyph-name="AE" unicode="&#xc6;" horiz-adv-x="975" 
d="M898 112c25 0 40 -13 40 -38v-35c0 -25 -15 -39 -40 -39h-386c-25 0 -39 15 -39 40v83h-278l-56 -84c-15 -24 -26 -39 -52 -39h-62c-26 0 -43 15 -27 39l392 574c17 24 44 37 69 37h438c25 0 39 -13 39 -38v-35c0 -25 -14 -39 -39 -39h-289v-158h217c25 0 39 -13 39 -38
v-30c0 -25 -14 -39 -39 -39h-217v-161h290zM259 220h214v323z" />
    <glyph glyph-name="AEacute" unicode="&#x1fc;" horiz-adv-x="975" 
d="M575 731l-10 15c-14 22 -7 36 14 49l154 97c30 19 42 12 54 -9l22 -37c16 -27 8 -38 -20 -50l-164 -74c-26 -11 -39 -9 -50 9zM898 112c25 0 40 -13 40 -38v-35c0 -25 -15 -39 -40 -39h-386c-25 0 -39 15 -39 40v83h-278l-56 -84c-15 -24 -26 -39 -52 -39h-62
c-26 0 -43 15 -27 39l392 574c17 24 44 37 69 37h438c25 0 39 -13 39 -38v-35c0 -25 -14 -39 -39 -39h-289v-158h217c25 0 39 -13 39 -38v-30c0 -25 -14 -39 -39 -39h-217v-161h290zM259 220h214v323z" />
    <glyph glyph-name="B" unicode="B" horiz-adv-x="633" 
d="M471 345c66 -24 122 -78 122 -163c0 -111 -95 -182 -238 -182h-237c-25 0 -40 15 -40 40v571c0 25 15 39 40 39h218c137 0 218 -64 218 -171c0 -62 -34 -108 -83 -134zM323 548h-109v-170h109c63 0 101 31 101 85s-37 85 -101 85zM338 103c77 0 121 33 121 92
c0 56 -44 93 -112 93h-134v-185h125z" />
    <glyph glyph-name="C" unicode="C" horiz-adv-x="675" 
d="M386 -12c-195 0 -348 144 -348 337s153 337 349 337c100 0 188 -39 249 -103c18 -18 17 -39 -2 -54l-36 -31c-19 -15 -36 -13 -55 3c-41 39 -94 63 -155 63c-119 0 -212 -90 -212 -215s93 -215 212 -215c61 0 115 24 155 63c19 17 36 19 55 3l36 -30c19 -16 20 -37 2 -54
c-61 -65 -149 -104 -250 -104z" />
    <glyph glyph-name="Cacute" unicode="&#x106;" horiz-adv-x="675" 
d="M276 731l-10 15c-14 22 -7 36 14 49l154 97c30 19 42 12 54 -9l22 -37c16 -27 8 -38 -20 -50l-164 -74c-26 -11 -39 -9 -50 9zM386 -12c-195 0 -348 144 -348 337s153 337 349 337c100 0 188 -39 249 -103c18 -18 17 -39 -2 -54l-36 -31c-19 -15 -36 -13 -55 3
c-41 39 -94 63 -155 63c-119 0 -212 -90 -212 -215s93 -215 212 -215c61 0 115 24 155 63c19 17 36 19 55 3l36 -30c19 -16 20 -37 2 -54c-61 -65 -149 -104 -250 -104z" />
    <glyph glyph-name="Ccaron" unicode="&#x10c;" horiz-adv-x="675" 
d="M232 803c-23 14 -32 28 -18 50l9 16c12 19 27 21 55 7l110 -56l109 56c28 14 43 12 55 -7l9 -16c14 -22 5 -36 -18 -50l-134 -81c-17 -10 -26 -11 -43 0zM634 146c19 -16 20 -37 2 -54c-61 -65 -149 -104 -250 -104c-195 0 -348 144 -348 337s153 337 349 337
c100 0 188 -39 249 -103c18 -18 17 -39 -2 -54l-36 -31c-19 -15 -36 -13 -55 3c-41 39 -94 63 -155 63c-119 0 -212 -90 -212 -215s93 -215 212 -215c61 0 115 24 155 63c19 17 36 19 55 3z" />
    <glyph glyph-name="Ccedilla" unicode="&#xc7;" horiz-adv-x="675" 
d="M634 146c19 -16 20 -37 2 -54c-55 -58 -131 -96 -219 -103l-9 -35c77 4 130 -32 130 -99c0 -70 -58 -119 -144 -119c-40 0 -84 11 -118 30c-20 11 -27 28 -14 48l4 6c13 22 27 21 44 12c20 -11 46 -20 71 -20c38 0 62 16 62 44c0 40 -43 54 -103 42c-17 -4 -29 -3 -23 16
c7 24 14 51 21 77c-172 21 -300 157 -300 334c0 193 153 337 349 337c100 0 188 -39 249 -103c18 -18 17 -39 -2 -54l-36 -31c-19 -15 -36 -13 -55 3c-41 39 -94 63 -155 63c-119 0 -212 -90 -212 -215s93 -215 212 -215c61 0 115 24 155 63c19 17 36 19 55 3z" />
    <glyph glyph-name="Cdotaccent" unicode="&#x10a;" horiz-adv-x="675" 
d="M387 724c-45 0 -85 40 -85 85c0 47 40 86 85 86c47 0 86 -39 86 -86c0 -46 -41 -85 -86 -85zM386 -12c-195 0 -348 144 -348 337s153 337 349 337c100 0 188 -39 249 -103c18 -18 17 -39 -2 -54l-36 -31c-19 -15 -36 -13 -55 3c-41 39 -94 63 -155 63
c-119 0 -212 -90 -212 -215s93 -215 212 -215c61 0 115 24 155 63c19 17 36 19 55 3l36 -30c19 -16 20 -37 2 -54c-61 -65 -149 -104 -250 -104z" />
    <glyph glyph-name="D" unicode="D" horiz-adv-x="735" 
d="M118 0c-25 0 -40 15 -40 40v571c0 25 15 39 40 39h236c208 0 341 -130 341 -324c0 -196 -133 -326 -341 -326h-236zM213 112h137c124 0 207 82 207 213c0 132 -83 213 -207 213h-137v-426z" />
    <glyph glyph-name="Eth" unicode="&#xd0;" horiz-adv-x="746" 
d="M365 650c208 0 341 -130 341 -324c0 -196 -133 -326 -341 -326h-236c-25 0 -40 15 -40 40v239h-29c-25 0 -40 14 -40 39v14c0 25 15 39 40 39h29v240c0 25 15 39 40 39h236zM361 112c124 0 207 82 207 213c0 132 -83 213 -207 213h-137v-167h135c25 0 39 -14 39 -39v-14
c0 -25 -14 -39 -39 -39h-135v-167h137z" />
    <glyph glyph-name="Dcaron" unicode="&#x10e;" horiz-adv-x="735" 
d="M166 803c-23 14 -32 28 -18 50l9 16c12 19 27 21 55 7l110 -56l109 56c28 14 43 12 55 -7l9 -16c14 -22 5 -36 -18 -50l-134 -81c-17 -10 -26 -11 -43 0zM354 650c208 0 341 -130 341 -324c0 -196 -133 -326 -341 -326h-236c-25 0 -40 15 -40 40v571c0 25 15 39 40 39
h236zM350 112c124 0 207 82 207 213c0 132 -83 213 -207 213h-137v-426h137z" />
    <glyph glyph-name="Dcroat" unicode="&#x110;" horiz-adv-x="746" 
d="M365 650c208 0 341 -130 341 -324c0 -196 -133 -326 -341 -326h-236c-25 0 -40 15 -40 40v239h-29c-25 0 -40 14 -40 39v14c0 25 15 39 40 39h29v240c0 25 15 39 40 39h236zM361 112c124 0 207 82 207 213c0 132 -83 213 -207 213h-137v-167h135c25 0 39 -14 39 -39v-14
c0 -25 -14 -39 -39 -39h-135v-167h137z" />
    <glyph glyph-name="E" unicode="E" horiz-adv-x="580" 
d="M118 0c-25 0 -40 15 -40 40v571c0 25 15 39 40 39h384c25 0 40 -13 40 -38v-35c0 -25 -15 -39 -40 -39h-289v-158h217c25 0 40 -13 40 -38v-30c0 -25 -15 -39 -40 -39h-217v-161h291c25 0 39 -13 39 -38v-35c0 -25 -14 -39 -39 -39h-386z" />
    <glyph glyph-name="Eacute" unicode="&#xc9;" horiz-adv-x="580" 
d="M199 731l-10 15c-14 22 -7 36 14 49l154 97c30 19 42 12 54 -9l22 -37c16 -27 8 -38 -20 -50l-164 -74c-26 -11 -39 -9 -50 9zM118 0c-25 0 -40 15 -40 40v571c0 25 15 39 40 39h384c25 0 40 -13 40 -38v-35c0 -25 -15 -39 -40 -39h-289v-158h217c25 0 40 -13 40 -38v-30
c0 -25 -15 -39 -40 -39h-217v-161h291c25 0 39 -13 39 -38v-35c0 -25 -14 -39 -39 -39h-386z" />
    <glyph glyph-name="Ecaron" unicode="&#x11a;" horiz-adv-x="580" 
d="M155 803c-23 14 -32 28 -18 50l9 16c12 19 27 21 55 7l110 -56l109 56c28 14 43 12 55 -7l9 -16c14 -22 5 -36 -18 -50l-134 -81c-17 -10 -26 -11 -43 0zM504 112c25 0 39 -13 39 -38v-35c0 -25 -14 -39 -39 -39h-386c-25 0 -40 15 -40 40v571c0 25 15 39 40 39h384
c25 0 40 -13 40 -38v-35c0 -25 -15 -39 -40 -39h-289v-158h217c25 0 40 -13 40 -38v-30c0 -25 -15 -39 -40 -39h-217v-161h291z" />
    <glyph glyph-name="Ecircumflex" unicode="&#xca;" horiz-adv-x="580" 
d="M147 731l-10 15c-13 22 -5 37 18 51l134 81c18 10 27 9 44 0l134 -81c23 -14 31 -29 18 -51l-10 -15c-12 -20 -27 -22 -55 -8l-109 57l-109 -57c-28 -14 -43 -12 -55 8zM504 112c25 0 39 -13 39 -38v-35c0 -25 -14 -39 -39 -39h-386c-25 0 -40 15 -40 40v571
c0 25 15 39 40 39h384c25 0 40 -13 40 -38v-35c0 -25 -15 -39 -40 -39h-289v-158h217c25 0 40 -13 40 -38v-30c0 -25 -15 -39 -40 -39h-217v-161h291z" />
    <glyph glyph-name="Edieresis" unicode="&#xcb;" horiz-adv-x="580" 
d="M200 724c-45 0 -83 38 -83 82c0 45 38 83 83 83s83 -38 83 -83s-39 -82 -83 -82zM419 724c-44 0 -82 38 -82 82c0 45 38 83 82 83c45 0 83 -38 83 -83s-38 -82 -83 -82zM118 0c-25 0 -40 15 -40 40v571c0 25 15 39 40 39h384c25 0 40 -13 40 -38v-35
c0 -25 -15 -39 -40 -39h-289v-158h217c25 0 40 -13 40 -38v-30c0 -25 -15 -39 -40 -39h-217v-161h291c25 0 39 -13 39 -38v-35c0 -25 -14 -39 -39 -39h-386z" />
    <glyph glyph-name="Edotaccent" unicode="&#x116;" horiz-adv-x="580" 
d="M310 724c-45 0 -85 40 -85 85c0 47 40 86 85 86c47 0 86 -39 86 -86c0 -46 -41 -85 -86 -85zM118 0c-25 0 -40 15 -40 40v571c0 25 15 39 40 39h384c25 0 40 -13 40 -38v-35c0 -25 -15 -39 -40 -39h-289v-158h217c25 0 40 -13 40 -38v-30c0 -25 -15 -39 -40 -39h-217
v-161h291c25 0 39 -13 39 -38v-35c0 -25 -14 -39 -39 -39h-386z" />
    <glyph glyph-name="Egrave" unicode="&#xc8;" horiz-adv-x="580" 
d="M429 731c-12 -18 -24 -20 -51 -9l-163 74c-29 12 -37 23 -21 50l22 37c13 21 24 28 55 9l154 -97c21 -13 28 -27 13 -49zM118 0c-25 0 -40 15 -40 40v571c0 25 15 39 40 39h384c25 0 40 -13 40 -38v-35c0 -25 -15 -39 -40 -39h-289v-158h217c25 0 40 -13 40 -38v-30
c0 -25 -15 -39 -40 -39h-217v-161h291c25 0 39 -13 39 -38v-35c0 -25 -14 -39 -39 -39h-386z" />
    <glyph glyph-name="Emacron" unicode="&#x112;" horiz-adv-x="580" 
d="M187 759c-25 0 -39 13 -39 38v18c0 25 14 38 39 38h247c25 0 38 -13 38 -38v-18c0 -25 -13 -38 -38 -38h-247zM118 0c-25 0 -40 15 -40 40v571c0 25 15 39 40 39h384c25 0 40 -13 40 -38v-35c0 -25 -15 -39 -40 -39h-289v-158h217c25 0 40 -13 40 -38v-30
c0 -25 -15 -39 -40 -39h-217v-161h291c25 0 39 -13 39 -38v-35c0 -25 -14 -39 -39 -39h-386z" />
    <glyph glyph-name="Eogonek" unicode="&#x118;" horiz-adv-x="580" 
d="M542 -166c9 -21 -2 -36 -22 -45c-87 -44 -196 2 -196 100c0 43 28 80 67 111h-273c-25 0 -40 15 -40 40v571c0 25 15 39 40 39h384c25 0 40 -13 40 -38v-35c0 -25 -15 -39 -40 -39h-289v-158h217c25 0 40 -13 40 -38v-30c0 -25 -15 -39 -40 -39h-217v-161h291
c25 0 39 -13 39 -38v-35c0 -25 -14 -39 -39 -39h-22c-36 -23 -64 -61 -64 -95c0 -47 36 -59 77 -46c18 5 33 7 43 -17z" />
    <glyph glyph-name="F" unicode="F" horiz-adv-x="547" 
d="M117 0c-25 0 -39 15 -39 40v571c0 25 15 39 40 39h372c25 0 40 -13 40 -38v-35c0 -25 -15 -39 -40 -39h-277v-165h201c25 0 40 -14 40 -39v-30c0 -25 -15 -38 -40 -38h-201v-226c0 -25 -13 -40 -38 -40h-58z" />
    <glyph glyph-name="G" unicode="G" horiz-adv-x="694" 
d="M380 -12c-193 0 -342 146 -342 337c0 192 149 337 344 337c84 0 156 -27 215 -73c20 -16 20 -39 1 -56l-31 -29c-19 -17 -38 -15 -59 -1c-36 24 -78 39 -123 39c-119 0 -211 -94 -211 -217c0 -129 94 -220 214 -220c68 0 107 24 135 39v120h-121c-25 0 -39 13 -39 38v26
c0 24 14 38 39 38h204c25 0 39 -15 39 -39v-218c0 -26 -14 -41 -38 -56c-37 -22 -109 -65 -227 -65z" />
    <glyph glyph-name="Gbreve" unicode="&#x11e;" horiz-adv-x="694" 
d="M371 715c-93 0 -165 65 -165 154c0 20 13 30 32 30h27c19 0 34 -9 34 -30c0 -45 29 -71 73 -71s73 26 73 71c0 21 15 30 34 30h25c20 0 32 -10 32 -30c0 -89 -72 -154 -165 -154zM380 -12c-193 0 -342 146 -342 337c0 192 149 337 344 337c84 0 156 -27 215 -73
c20 -16 20 -39 1 -56l-31 -29c-19 -17 -38 -15 -59 -1c-36 24 -78 39 -123 39c-119 0 -211 -94 -211 -217c0 -129 94 -220 214 -220c68 0 107 24 135 39v120h-121c-25 0 -39 13 -39 38v26c0 24 14 38 39 38h204c25 0 39 -15 39 -39v-218c0 -26 -14 -41 -38 -56
c-37 -22 -109 -65 -227 -65z" />
    <glyph glyph-name="uni0122" unicode="&#x122;" horiz-adv-x="694" 
d="M380 -12c-193 0 -342 146 -342 337c0 192 149 337 344 337c84 0 156 -27 215 -73c20 -16 20 -39 1 -56l-31 -29c-19 -17 -38 -15 -59 -1c-36 24 -78 39 -123 39c-119 0 -211 -94 -211 -217c0 -129 94 -220 214 -220c68 0 107 24 135 39v120h-121c-25 0 -39 13 -39 38v26
c0 24 14 38 39 38h204c25 0 39 -15 39 -39v-218c0 -26 -14 -41 -38 -56c-37 -22 -109 -65 -227 -65zM328 -258c-23 0 -30 13 -27 35l18 131c4 28 17 33 40 33h46c27 0 35 -15 27 -36l-45 -130c-9 -26 -20 -33 -37 -33h-22z" />
    <glyph glyph-name="Gdotaccent" unicode="&#x120;" horiz-adv-x="694" 
d="M370 724c-45 0 -85 40 -85 85c0 47 40 86 85 86c47 0 86 -39 86 -86c0 -46 -41 -85 -86 -85zM380 -12c-193 0 -342 146 -342 337c0 192 149 337 344 337c84 0 156 -27 215 -73c20 -16 20 -39 1 -56l-31 -29c-19 -17 -38 -15 -59 -1c-36 24 -78 39 -123 39
c-119 0 -211 -94 -211 -217c0 -129 94 -220 214 -220c68 0 107 24 135 39v120h-121c-25 0 -39 13 -39 38v26c0 24 14 38 39 38h204c25 0 39 -15 39 -39v-218c0 -26 -14 -41 -38 -56c-37 -22 -109 -65 -227 -65z" />
    <glyph glyph-name="H" unicode="H" horiz-adv-x="725" 
d="M117 0c-25 0 -39 15 -39 40v571c0 25 14 39 39 39h58c25 0 38 -14 38 -39v-229h299v229c0 25 13 39 38 39h58c25 0 39 -14 39 -39v-571c0 -25 -14 -40 -39 -40h-58c-25 0 -38 15 -38 40v230h-299v-230c0 -25 -13 -40 -38 -40h-58z" />
    <glyph glyph-name="Hbar" unicode="&#x126;" horiz-adv-x="724" 
d="M668 550c21 0 33 -11 33 -33v-12c0 -22 -12 -33 -33 -33h-21v-432c0 -25 -14 -40 -39 -40h-58c-25 0 -38 15 -38 40v230h-299v-230c0 -25 -13 -40 -38 -40h-58c-25 0 -39 15 -39 40v432h-21c-22 0 -33 11 -33 33v12c0 22 11 33 33 33h21v61c0 25 14 39 39 39h58
c25 0 38 -14 38 -39v-61h299v61c0 25 13 39 38 39h58c25 0 39 -14 39 -39v-61h21zM512 382v90h-299v-90h299z" />
    <glyph glyph-name="I" unicode="I" horiz-adv-x="291" 
d="M117 0c-25 0 -39 15 -39 40v571c0 25 14 39 39 39h58c25 0 38 -14 38 -39v-571c0 -25 -13 -40 -38 -40h-58z" />
    <glyph glyph-name="IJ" unicode="&#x132;" horiz-adv-x="756" 
d="M117 0c-25 0 -39 15 -39 40v571c0 25 14 39 39 39h58c25 0 38 -14 38 -39v-571c0 -25 -13 -40 -38 -40h-58zM456 -12c-82 0 -148 33 -192 81c-17 18 -16 36 1 53l34 34c18 18 34 16 52 -1c21 -22 51 -46 97 -46c60 0 103 40 103 114v388c0 25 13 39 38 39h58
c25 0 39 -14 39 -39v-387c0 -157 -93 -236 -230 -236z" />
    <glyph glyph-name="Iacute" unicode="&#xcd;" horiz-adv-x="291" 
d="M27 731l-10 15c-14 22 -7 36 14 49l154 97c30 19 42 12 54 -9l22 -37c16 -27 8 -38 -20 -50l-164 -74c-26 -11 -39 -9 -50 9zM117 0c-25 0 -39 15 -39 40v571c0 25 14 39 39 39h58c25 0 38 -14 38 -39v-571c0 -25 -13 -40 -38 -40h-58z" />
    <glyph glyph-name="Icircumflex" unicode="&#xce;" horiz-adv-x="291" 
d="M302 797c23 -14 31 -29 18 -51l-10 -15c-12 -20 -27 -22 -55 -8l-109 57l-109 -57c-28 -14 -44 -12 -56 8l-9 15c-14 22 -5 37 18 51l134 81c18 10 27 9 44 0zM175 650c25 0 38 -14 38 -39v-571c0 -25 -13 -40 -38 -40h-58c-25 0 -39 15 -39 40v571c0 25 14 39 39 39h58z
" />
    <glyph glyph-name="Idieresis" unicode="&#xcf;" horiz-adv-x="291" 
d="M35 724c-45 0 -83 38 -83 82c0 45 38 83 83 83s83 -38 83 -83s-39 -82 -83 -82zM254 724c-44 0 -82 38 -82 82c0 45 38 83 82 83c45 0 83 -38 83 -83s-38 -82 -83 -82zM117 0c-25 0 -39 15 -39 40v571c0 25 14 39 39 39h58c25 0 38 -14 38 -39v-571
c0 -25 -13 -40 -38 -40h-58z" />
    <glyph glyph-name="Idotaccent" unicode="&#x130;" horiz-adv-x="291" 
d="M145 724c-45 0 -85 40 -85 85c0 47 40 86 85 86c47 0 86 -39 86 -86c0 -46 -41 -85 -86 -85zM117 0c-25 0 -39 15 -39 40v571c0 25 14 39 39 39h58c25 0 38 -14 38 -39v-571c0 -25 -13 -40 -38 -40h-58z" />
    <glyph glyph-name="Igrave" unicode="&#xcc;" horiz-adv-x="291" 
d="M273 732c-12 -18 -24 -20 -51 -9l-163 74c-29 12 -37 23 -21 50l22 37c13 21 24 28 55 9l154 -97c21 -13 28 -27 13 -49zM117 0c-25 0 -39 15 -39 40v571c0 25 14 39 39 39h58c25 0 38 -14 38 -39v-571c0 -25 -13 -40 -38 -40h-58z" />
    <glyph glyph-name="Imacron" unicode="&#x12a;" horiz-adv-x="291" 
d="M22 759c-26 0 -39 13 -39 38v18c0 25 13 38 39 38h247c25 0 38 -13 38 -38v-18c0 -25 -13 -38 -38 -38h-247zM117 0c-25 0 -39 15 -39 40v571c0 25 14 39 39 39h58c25 0 38 -14 38 -39v-571c0 -25 -13 -40 -38 -40h-58z" />
    <glyph glyph-name="Iogonek" unicode="&#x12e;" horiz-adv-x="291" 
d="M233 -166c9 -21 -2 -36 -22 -45c-87 -44 -196 2 -196 100c0 47 32 86 76 119c-8 6 -13 18 -13 32v571c0 25 14 39 39 39h58c25 0 38 -14 38 -39v-571c0 -25 -13 -40 -38 -40h-2c-36 -23 -64 -61 -64 -95c0 -47 36 -59 77 -46c18 5 33 7 43 -17z" />
    <glyph glyph-name="Itilde" unicode="&#x128;" horiz-adv-x="291" 
d="M-5 715c-22 0 -33 10 -33 31c0 85 47 133 103 133c72 0 111 -65 156 -65c17 0 28 13 28 34c0 22 12 32 34 32h18c22 0 33 -10 33 -32c0 -85 -46 -132 -103 -132c-77 0 -113 64 -154 64c-17 0 -29 -12 -30 -34c-2 -22 -12 -31 -33 -31h-19zM117 0c-25 0 -39 15 -39 40v571
c0 25 14 39 39 39h58c25 0 38 -14 38 -39v-571c0 -25 -13 -40 -38 -40h-58z" />
    <glyph glyph-name="J" unicode="J" horiz-adv-x="514" 
d="M213 -12c-82 0 -149 33 -192 81c-18 18 -17 36 0 53l34 34c19 18 35 16 53 -1c20 -22 50 -46 96 -46c61 0 103 40 103 114v388c0 25 14 39 39 39h58c25 0 38 -14 38 -39v-387c0 -157 -93 -236 -229 -236z" />
    <glyph glyph-name="uni00A40301" horiz-adv-x="514" 
d="M251 731l-10 15c-14 22 -7 36 14 49l154 97c30 19 42 12 54 -9l22 -37c16 -27 8 -38 -20 -50l-164 -74c-26 -11 -39 -9 -50 9zM213 -12c-82 0 -149 33 -192 81c-18 18 -17 36 0 53l34 34c19 18 35 16 53 -1c20 -22 50 -46 96 -46c61 0 103 40 103 114v388
c0 25 14 39 39 39h58c25 0 38 -14 38 -39v-387c0 -157 -93 -236 -229 -236z" />
    <glyph glyph-name="K" unicode="K" horiz-adv-x="631" 
d="M603 40c16 -23 6 -40 -18 -40h-82c-26 0 -39 12 -57 38l-175 239l-58 -61v-176c0 -25 -13 -40 -38 -40h-58c-25 0 -39 15 -39 40v571c0 25 14 39 39 39h58c25 0 38 -14 38 -39v-245l227 247c20 23 32 37 58 37h83c24 0 37 -18 19 -39l-231 -253z" />
    <glyph glyph-name="uni0136" unicode="&#x136;" horiz-adv-x="631" 
d="M603 40c16 -23 6 -40 -18 -40h-82c-26 0 -39 12 -57 38l-175 239l-58 -61v-176c0 -25 -13 -40 -38 -40h-58c-25 0 -39 15 -39 40v571c0 25 14 39 39 39h58c25 0 38 -14 38 -39v-245l227 247c20 23 32 37 58 37h83c24 0 37 -18 19 -39l-231 -253zM362 -59
c27 0 35 -15 27 -36l-45 -130c-9 -26 -20 -33 -37 -33h-22c-23 0 -30 13 -27 35l18 131c4 28 17 33 40 33h46z" />
    <glyph glyph-name="L" unicode="L" horiz-adv-x="513" 
d="M117 0c-25 0 -39 14 -39 39v572c0 25 14 39 39 39h58c25 0 38 -14 38 -39v-499h246c25 0 40 -13 40 -38v-35c0 -25 -15 -39 -40 -39h-342z" />
    <glyph glyph-name="Lacute" unicode="&#x139;" horiz-adv-x="513" 
d="M21 731l-10 15c-15 22 -7 36 14 49l154 97c30 19 42 12 54 -9l22 -37c16 -27 8 -38 -20 -50l-164 -74c-26 -11 -39 -9 -50 9zM117 0c-25 0 -39 14 -39 39v572c0 25 14 39 39 39h58c25 0 38 -14 38 -39v-499h246c25 0 40 -13 40 -38v-35c0 -25 -15 -39 -40 -39h-342z" />
    <glyph glyph-name="Lcaron" unicode="&#x13d;" horiz-adv-x="513" 
d="M117 0c-25 0 -39 14 -39 39v572c0 25 14 39 39 39h58c25 0 38 -14 38 -39v-499h246c25 0 40 -13 40 -38v-35c0 -25 -15 -39 -40 -39h-342zM319 441c-23 0 -30 13 -27 34l20 142c4 29 19 33 40 33h46c27 0 34 -15 27 -36l-48 -141c-9 -26 -20 -32 -37 -32h-21z" />
    <glyph glyph-name="uni013B" unicode="&#x13b;" horiz-adv-x="513" 
d="M117 0c-25 0 -39 14 -39 39v572c0 25 14 39 39 39h58c25 0 38 -14 38 -39v-499h246c25 0 40 -13 40 -38v-35c0 -25 -15 -39 -40 -39h-342zM233 -258c-23 0 -30 13 -27 35l18 131c4 28 17 33 40 33h46c27 0 35 -15 27 -36l-45 -130c-9 -26 -20 -33 -37 -33h-22z" />
    <glyph glyph-name="Ldot" unicode="&#x13f;" horiz-adv-x="513" 
d="M117 0c-25 0 -39 14 -39 39v572c0 25 14 39 39 39h58c25 0 38 -14 38 -39v-499h246c25 0 40 -13 40 -38v-35c0 -25 -15 -39 -40 -39h-342zM389 274c-42 0 -77 35 -77 77c0 43 35 77 77 77c43 0 77 -34 77 -77c0 -41 -35 -77 -77 -77z" />
    <glyph glyph-name="Lslash" unicode="&#x141;" horiz-adv-x="537" 
d="M484 112c25 0 39 -13 39 -38v-35c0 -25 -14 -39 -39 -39h-343c-25 0 -38 14 -38 39v169l-33 -15c-28 -13 -46 0 -46 28v30c0 31 12 43 41 57l38 18v285c0 25 13 39 38 39h58c25 0 39 -14 39 -39v-222l105 49c28 13 46 0 46 -28v-30c0 -31 -12 -43 -41 -57l-110 -51v-160
h246z" />
    <glyph glyph-name="M" unicode="M" horiz-adv-x="837" 
d="M791 39c4 -25 -10 -39 -35 -39h-50c-25 0 -36 14 -39 39l-43 354l-148 -361c-11 -24 -26 -37 -48 -37h-8c-23 0 -38 13 -48 37l-149 361l-42 -354c-3 -25 -15 -39 -40 -39h-57c-25 0 -38 14 -35 39l84 582c3 23 17 34 39 34h8c21 0 34 -12 44 -34l200 -444l193 444
c10 22 24 34 45 34h8c21 0 35 -11 39 -34z" />
    <glyph glyph-name="N" unicode="N" horiz-adv-x="724" 
d="M607 650c25 0 39 -14 39 -39v-574c0 -29 -21 -42 -45 -42h-8c-23 0 -40 13 -59 36l-322 384v-375c0 -25 -13 -40 -38 -40h-57c-25 0 -39 15 -39 40v573c0 30 21 42 45 42h8c23 0 40 -13 59 -36l322 -383v375c0 25 13 39 38 39h57z" />
    <glyph glyph-name="Nacute" unicode="&#x143;" horiz-adv-x="724" 
d="M256 731l-10 15c-14 22 -7 36 14 49l154 97c30 19 42 12 54 -9l22 -37c16 -27 8 -38 -20 -50l-164 -74c-26 -11 -39 -9 -50 9zM607 650c25 0 39 -14 39 -39v-574c0 -29 -21 -42 -45 -42h-8c-23 0 -40 13 -59 36l-322 384v-375c0 -25 -13 -40 -38 -40h-57
c-25 0 -39 15 -39 40v573c0 30 21 42 45 42h8c23 0 40 -13 59 -36l322 -383v375c0 25 13 39 38 39h57z" />
    <glyph glyph-name="Ncaron" unicode="&#x147;" horiz-adv-x="724" 
d="M212 803c-23 14 -32 28 -18 50l9 16c12 19 27 21 55 7l110 -56l109 56c28 14 43 12 55 -7l9 -16c14 -22 5 -36 -18 -50l-134 -81c-17 -10 -26 -11 -43 0zM607 650c25 0 39 -14 39 -39v-574c0 -29 -21 -42 -45 -42h-8c-23 0 -40 13 -59 36l-322 384v-375
c0 -25 -13 -40 -38 -40h-57c-25 0 -39 15 -39 40v573c0 30 21 42 45 42h8c23 0 40 -13 59 -36l322 -383v375c0 25 13 39 38 39h57z" />
    <glyph glyph-name="uni0145" unicode="&#x145;" horiz-adv-x="724" 
d="M607 650c25 0 39 -14 39 -39v-574c0 -29 -21 -42 -45 -42h-8c-23 0 -40 13 -59 36l-322 384v-375c0 -25 -13 -40 -38 -40h-57c-25 0 -39 15 -39 40v573c0 30 21 42 45 42h8c23 0 40 -13 59 -36l322 -383v375c0 25 13 39 38 39h57zM387 -59c27 0 35 -15 27 -36l-45 -130
c-9 -26 -20 -33 -37 -33h-22c-23 0 -30 13 -27 35l18 131c4 28 17 33 40 33h46z" />
    <glyph glyph-name="Eng" unicode="&#x14a;" horiz-adv-x="725" 
d="M432 -233c-61 0 -140 22 -180 78c-16 21 -16 39 1 55l31 32c18 18 39 14 55 -6c21 -29 55 -48 92 -48c57 0 92 43 92 99v68l-311 370v-375c0 -25 -13 -40 -38 -40h-57c-25 0 -39 15 -39 40v573c0 30 21 42 45 42h8c23 0 40 -13 59 -36l322 -384v376c0 25 13 39 38 39h57
c25 0 39 -14 39 -39v-638c0 -126 -97 -206 -214 -206z" />
    <glyph glyph-name="Ntilde" unicode="&#xd1;" horiz-adv-x="724" 
d="M205 715c-23 0 -35 10 -35 31c0 85 50 133 111 133c77 0 119 -65 168 -65c17 0 30 13 30 34c0 22 13 32 36 32h20c23 0 36 -10 36 -32c0 -85 -51 -132 -111 -132c-84 0 -123 64 -166 64c-19 0 -31 -12 -33 -34s-12 -31 -36 -31h-20zM607 650c25 0 39 -14 39 -39v-574
c0 -29 -21 -42 -45 -42h-8c-23 0 -40 13 -59 36l-322 384v-375c0 -25 -13 -40 -38 -40h-57c-25 0 -39 15 -39 40v573c0 30 21 42 45 42h8c23 0 40 -13 59 -36l322 -383v375c0 25 13 39 38 39h57z" />
    <glyph glyph-name="O" unicode="O" horiz-adv-x="782" 
d="M391 -12c-200 0 -353 144 -353 337s153 337 353 337c201 0 353 -144 353 -337c0 -192 -152 -337 -353 -337zM391 110c121 0 216 90 216 215c0 126 -95 215 -216 215s-215 -89 -215 -215c0 -125 94 -215 215 -215z" />
    <glyph glyph-name="Oacute" unicode="&#xd3;" horiz-adv-x="782" 
d="M280 731l-10 15c-14 22 -7 36 14 49l154 97c30 19 42 12 54 -9l22 -37c16 -27 8 -38 -20 -50l-164 -74c-26 -11 -39 -9 -50 9zM391 -12c-200 0 -353 144 -353 337s153 337 353 337c201 0 353 -144 353 -337c0 -192 -152 -337 -353 -337zM391 110c121 0 216 90 216 215
c0 126 -95 215 -216 215s-215 -89 -215 -215c0 -125 94 -215 215 -215z" />
    <glyph glyph-name="Ocircumflex" unicode="&#xd4;" horiz-adv-x="782" 
d="M228 731l-10 15c-13 22 -5 37 18 51l134 81c18 10 27 9 44 0l134 -81c23 -14 31 -29 18 -51l-10 -15c-12 -20 -27 -22 -55 -8l-109 57l-109 -57c-28 -14 -43 -12 -55 8zM391 662c201 0 353 -144 353 -337c0 -192 -152 -337 -353 -337c-200 0 -353 144 -353 337
s153 337 353 337zM391 110c121 0 216 90 216 215c0 126 -95 215 -216 215s-215 -89 -215 -215c0 -125 94 -215 215 -215z" />
    <glyph glyph-name="Odieresis" unicode="&#xd6;" horiz-adv-x="782" 
d="M281 724c-45 0 -83 38 -83 82c0 45 38 83 83 83s83 -38 83 -83s-39 -82 -83 -82zM500 724c-44 0 -82 38 -82 82c0 45 38 83 82 83c45 0 83 -38 83 -83s-38 -82 -83 -82zM391 -12c-200 0 -353 144 -353 337s153 337 353 337c201 0 353 -144 353 -337
c0 -192 -152 -337 -353 -337zM391 110c121 0 216 90 216 215c0 126 -95 215 -216 215s-215 -89 -215 -215c0 -125 94 -215 215 -215z" />
    <glyph glyph-name="Ograve" unicode="&#xd2;" horiz-adv-x="782" 
d="M510 731c-12 -18 -24 -20 -51 -9l-163 74c-29 12 -37 23 -21 50l22 37c13 21 24 28 55 9l154 -97c21 -13 28 -27 13 -49zM391 -12c-200 0 -353 144 -353 337s153 337 353 337c201 0 353 -144 353 -337c0 -192 -152 -337 -353 -337zM391 110c121 0 216 90 216 215
c0 126 -95 215 -216 215s-215 -89 -215 -215c0 -125 94 -215 215 -215z" />
    <glyph glyph-name="Ohungarumlaut" unicode="&#x150;" horiz-adv-x="782" 
d="M273 715c-27 0 -31 11 -18 35l58 106c15 29 28 35 49 35h60c22 0 26 -10 15 -26l-90 -122c-14 -19 -25 -28 -47 -28h-27zM453 715c-27 0 -31 11 -18 35l58 106c15 29 28 35 49 35h60c22 0 26 -10 15 -26l-90 -122c-14 -19 -25 -28 -47 -28h-27zM391 -12
c-200 0 -353 144 -353 337s153 337 353 337c201 0 353 -144 353 -337c0 -192 -152 -337 -353 -337zM391 110c121 0 216 90 216 215c0 126 -95 215 -216 215s-215 -89 -215 -215c0 -125 94 -215 215 -215z" />
    <glyph glyph-name="Omacron" unicode="&#x14c;" horiz-adv-x="782" 
d="M268 759c-25 0 -39 13 -39 38v18c0 25 14 38 39 38h247c25 0 38 -13 38 -38v-18c0 -25 -13 -38 -38 -38h-247zM391 -12c-200 0 -353 144 -353 337s153 337 353 337c201 0 353 -144 353 -337c0 -192 -152 -337 -353 -337zM391 110c121 0 216 90 216 215
c0 126 -95 215 -216 215s-215 -89 -215 -215c0 -125 94 -215 215 -215z" />
    <glyph glyph-name="uni01EA" unicode="&#x1ea;" horiz-adv-x="782" 
d="M512 7c-27 -23 -47 -54 -47 -83c0 -47 36 -59 77 -46c18 5 33 7 43 -17l4 -8c9 -21 -2 -36 -22 -45c-87 -44 -196 2 -196 100c0 30 13 56 34 80h-14c-200 0 -353 144 -353 337s153 337 353 337c201 0 353 -144 353 -337c0 -151 -94 -273 -232 -318zM176 325
c0 -125 94 -215 215 -215s216 90 216 215c0 126 -95 215 -216 215s-215 -89 -215 -215z" />
    <glyph glyph-name="Oslash" unicode="&#xd8;" horiz-adv-x="782" 
d="M628 580c72 -61 116 -151 116 -255c0 -192 -152 -337 -353 -337c-50 0 -97 9 -140 26l-20 -31c-17 -26 -38 -38 -63 -38h-49c-25 0 -38 20 -23 42l57 85c-71 61 -115 150 -115 253c0 193 153 337 353 337c49 0 95 -9 137 -24l27 41c17 26 39 38 64 38h49
c24 0 37 -20 23 -42zM176 325c0 -56 19 -105 50 -142l231 348c-21 6 -43 9 -66 9c-121 0 -215 -89 -215 -215zM391 110c121 0 216 90 216 215c0 57 -20 107 -53 144l-232 -349c22 -6 45 -10 69 -10z" />
    <glyph glyph-name="Oslashacute" unicode="&#x1fe;" horiz-adv-x="782" 
d="M291 731l-10 15c-14 22 -7 36 14 49l154 97c30 19 42 12 54 -9l22 -37c16 -27 8 -38 -20 -50l-164 -74c-26 -11 -39 -9 -50 9zM628 580c72 -61 116 -151 116 -255c0 -192 -152 -337 -353 -337c-50 0 -97 9 -140 26l-20 -31c-17 -26 -38 -38 -63 -38h-49
c-25 0 -38 20 -23 42l57 85c-71 61 -115 150 -115 253c0 193 153 337 353 337c49 0 95 -9 137 -24l27 41c17 26 39 38 64 38h49c24 0 37 -20 23 -42zM176 325c0 -56 19 -105 50 -142l231 348c-21 6 -43 9 -66 9c-121 0 -215 -89 -215 -215zM391 110c121 0 216 90 216 215
c0 57 -20 107 -53 144l-232 -349c22 -6 45 -10 69 -10z" />
    <glyph glyph-name="Otilde" unicode="&#xd5;" horiz-adv-x="782" 
d="M229 715c-23 0 -35 10 -35 31c0 85 50 133 111 133c77 0 119 -65 168 -65c17 0 30 13 30 34c0 22 13 32 36 32h20c23 0 36 -10 36 -32c0 -85 -51 -132 -111 -132c-84 0 -123 64 -166 64c-19 0 -31 -12 -33 -34s-12 -31 -36 -31h-20zM391 -12c-200 0 -353 144 -353 337
s153 337 353 337c201 0 353 -144 353 -337c0 -192 -152 -337 -353 -337zM391 110c121 0 216 90 216 215c0 126 -95 215 -216 215s-215 -89 -215 -215c0 -125 94 -215 215 -215z" />
    <glyph glyph-name="OE" unicode="&#x152;" horiz-adv-x="1109" 
d="M387 -12c-196 0 -348 144 -348 337s152 337 348 337c97 0 179 -39 235 -100v50c0 25 15 38 40 38h369c25 0 40 -13 40 -38v-35c0 -25 -15 -39 -40 -39h-289v-158h217c25 0 40 -13 40 -38v-30c0 -25 -15 -39 -40 -39h-217v-161h291c25 0 39 -13 39 -38v-35
c0 -25 -14 -39 -39 -39h-371c-25 0 -40 14 -40 39v49c-56 -61 -138 -100 -235 -100zM392 110c121 0 215 90 215 215c0 126 -94 215 -215 215s-216 -89 -216 -215c0 -125 95 -215 216 -215z" />
    <glyph glyph-name="P" unicode="P" horiz-adv-x="622" 
d="M117 0c-25 0 -39 15 -39 40v571c0 25 15 39 40 39h231c159 0 246 -79 246 -209c0 -129 -86 -208 -246 -208h-136v-193c0 -25 -13 -40 -38 -40h-58zM213 339h142c62 0 102 35 102 99c0 65 -40 100 -102 100h-142v-199z" />
    <glyph glyph-name="Thorn" unicode="&#xde;" horiz-adv-x="629" 
d="M117 0c-25 0 -39 15 -39 40v571c0 25 14 39 39 39h58c25 0 38 -14 38 -39v-74h136c159 0 246 -79 246 -209c0 -129 -86 -210 -246 -208h-136v-80c0 -25 -13 -40 -38 -40h-58zM213 225h143c62 0 101 36 101 100c0 65 -42 100 -101 100h-143v-200z" />
    <glyph glyph-name="Q" unicode="Q" horiz-adv-x="782" 
d="M584 40l103 -133c19 -24 7 -38 -18 -38h-86c-19 0 -34 7 -48 25l-78 99c-22 -3 -43 -5 -66 -5c-200 0 -353 144 -353 337s153 337 353 337c201 0 353 -144 353 -337c0 -123 -62 -227 -160 -285zM176 325c0 -125 94 -215 215 -215s216 90 216 215c0 126 -95 215 -216 215
s-215 -89 -215 -215z" />
    <glyph glyph-name="R" unicode="R" horiz-adv-x="638" 
d="M459 268l127 -228c14 -26 0 -40 -24 -40h-73c-26 0 -32 11 -46 36l-120 216h-110v-212c0 -25 -13 -40 -38 -40h-58c-25 0 -39 15 -39 40v571c0 25 15 39 40 39h231c161 0 246 -77 246 -202c0 -91 -52 -153 -136 -180zM213 538v-190h142c62 0 102 37 102 94
c0 58 -40 96 -102 96h-142z" />
    <glyph glyph-name="Racute" unicode="&#x154;" horiz-adv-x="638" 
d="M196 731l-10 15c-14 22 -7 36 14 49l154 97c30 19 42 12 54 -9l22 -37c16 -27 8 -38 -20 -50l-164 -74c-26 -11 -39 -9 -50 9zM459 268l127 -228c14 -26 0 -40 -24 -40h-73c-26 0 -32 11 -46 36l-120 216h-110v-212c0 -25 -13 -40 -38 -40h-58c-25 0 -39 15 -39 40v571
c0 25 15 39 40 39h231c161 0 246 -77 246 -202c0 -91 -52 -153 -136 -180zM213 538v-190h142c62 0 102 37 102 94c0 58 -40 96 -102 96h-142z" />
    <glyph glyph-name="Rcaron" unicode="&#x158;" horiz-adv-x="638" 
d="M152 803c-23 14 -32 28 -18 50l9 16c12 19 27 21 55 7l110 -56l109 56c28 14 43 12 55 -7l9 -16c14 -22 5 -36 -18 -50l-134 -81c-17 -10 -26 -11 -43 0zM459 268l127 -228c14 -26 0 -40 -24 -40h-73c-26 0 -32 11 -46 36l-120 216h-110v-212c0 -25 -13 -40 -38 -40h-58
c-25 0 -39 15 -39 40v571c0 25 15 39 40 39h231c161 0 246 -77 246 -202c0 -91 -52 -153 -136 -180zM213 538v-190h142c62 0 102 37 102 94c0 58 -40 96 -102 96h-142z" />
    <glyph glyph-name="uni0156" unicode="&#x156;" horiz-adv-x="638" 
d="M459 268l127 -228c14 -26 0 -40 -24 -40h-73c-26 0 -32 11 -46 36l-120 216h-110v-212c0 -25 -13 -40 -38 -40h-58c-25 0 -39 15 -39 40v571c0 25 15 39 40 39h231c161 0 246 -77 246 -202c0 -91 -52 -153 -136 -180zM213 538v-190h142c62 0 102 37 102 94
c0 58 -40 96 -102 96h-142zM349 -59c27 0 35 -15 27 -36l-45 -130c-9 -26 -20 -33 -37 -33h-22c-23 0 -30 13 -27 35l18 131c4 28 17 33 40 33h46z" />
    <glyph glyph-name="S" unicode="S" horiz-adv-x="581" 
d="M297 -12c-101 0 -196 36 -253 100c-18 18 -24 38 -4 58l23 27c18 19 38 24 58 5c41 -46 112 -74 168 -74c72 0 117 31 117 76c0 65 -73 73 -161 103c-83 27 -190 74 -190 192c0 110 97 187 237 187c90 0 163 -31 213 -77c19 -16 27 -36 7 -57l-23 -27
c-17 -18 -36 -23 -57 -5c-35 31 -80 56 -138 56c-59 0 -101 -28 -101 -69c0 -49 53 -68 110 -87c110 -37 241 -69 241 -215c0 -122 -109 -193 -247 -193z" />
    <glyph glyph-name="Sacute" unicode="&#x15a;" horiz-adv-x="581" 
d="M183 731l-10 15c-14 22 -7 36 14 49l154 97c30 19 42 12 54 -9l22 -37c16 -27 8 -38 -20 -50l-164 -74c-26 -11 -39 -9 -50 9zM297 -12c-101 0 -196 36 -253 100c-18 18 -24 38 -4 58l23 27c18 19 38 24 58 5c41 -46 112 -74 168 -74c72 0 117 31 117 76
c0 65 -73 73 -161 103c-83 27 -190 74 -190 192c0 110 97 187 237 187c90 0 163 -31 213 -77c19 -16 27 -36 7 -57l-23 -27c-17 -18 -36 -23 -57 -5c-35 31 -80 56 -138 56c-59 0 -101 -28 -101 -69c0 -49 53 -68 110 -87c110 -37 241 -69 241 -215
c0 -122 -109 -193 -247 -193z" />
    <glyph glyph-name="Scaron" unicode="&#x160;" horiz-adv-x="581" 
d="M139 803c-23 14 -32 28 -18 50l9 16c12 19 27 21 55 7l110 -56l109 56c28 14 43 12 55 -7l9 -16c14 -22 5 -36 -18 -50l-134 -81c-17 -10 -26 -11 -43 0zM303 396c110 -37 241 -69 241 -215c0 -122 -109 -193 -247 -193c-101 0 -196 36 -253 100c-18 18 -24 38 -4 58
l23 27c18 19 38 24 58 5c41 -46 112 -74 168 -74c72 0 117 31 117 76c0 65 -73 73 -161 103c-83 27 -190 74 -190 192c0 110 97 187 237 187c90 0 163 -31 213 -77c19 -16 27 -36 7 -57l-23 -27c-17 -18 -36 -23 -57 -5c-35 31 -80 56 -138 56c-59 0 -101 -28 -101 -69
c0 -49 53 -68 110 -87z" />
    <glyph glyph-name="Scedilla" unicode="&#x15e;" horiz-adv-x="581" 
d="M544 181c0 -112 -92 -181 -213 -192l-9 -35c77 4 130 -32 130 -99c0 -70 -58 -119 -144 -119c-40 0 -84 11 -118 30c-20 11 -27 28 -14 48l4 6c13 22 27 21 44 12c20 -11 46 -20 71 -20c38 0 62 16 62 44c0 40 -43 54 -103 42c-17 -4 -29 -3 -23 16c7 24 14 51 21 76
c-84 10 -160 44 -208 98c-18 18 -24 38 -4 58l23 27c18 19 38 24 58 5c41 -46 112 -74 168 -74c72 0 117 31 117 76c0 65 -73 73 -161 103c-83 27 -190 74 -190 192c0 110 97 187 237 187c90 0 163 -31 213 -77c19 -16 27 -36 7 -57l-23 -27c-17 -18 -36 -23 -57 -5
c-35 31 -80 56 -138 56c-59 0 -101 -28 -101 -69c0 -49 53 -68 110 -87c110 -37 241 -69 241 -215z" />
    <glyph glyph-name="uni0218" unicode="&#x218;" horiz-adv-x="581" 
d="M297 -12c-101 0 -196 36 -253 100c-18 18 -24 38 -4 58l23 27c18 19 38 24 58 5c41 -46 112 -74 168 -74c72 0 117 31 117 76c0 65 -73 73 -161 103c-83 27 -190 74 -190 192c0 110 97 187 237 187c90 0 163 -31 213 -77c19 -16 27 -36 7 -57l-23 -27
c-17 -18 -36 -23 -57 -5c-35 31 -80 56 -138 56c-59 0 -101 -28 -101 -69c0 -49 53 -68 110 -87c110 -37 241 -69 241 -215c0 -122 -109 -193 -247 -193zM241 -258c-23 0 -30 13 -27 35l18 131c4 28 17 33 40 33h46c27 0 35 -15 27 -36l-45 -130c-9 -26 -20 -33 -37 -33h-22
z" />
    <glyph glyph-name="uni1E9E" unicode="&#x1e9e;" horiz-adv-x="671" 
d="M404 -12c-44 0 -89 9 -130 28c-22 12 -30 29 -18 53l14 32c12 22 30 26 52 17c18 -9 39 -14 59 -14c77 0 119 47 119 103c0 57 -44 102 -125 102h-21c-24 0 -37 11 -37 35v24c0 20 7 36 22 53l82 96c-24 21 -58 31 -91 31c-75 0 -124 -53 -124 -128v-380
c0 -25 -14 -40 -39 -40h-58c-25 0 -38 15 -38 40v368c0 150 109 254 265 254c83 0 167 -36 217 -93c17 -17 16 -34 1 -53l-101 -123l7 -1c116 -18 176 -104 176 -200c0 -109 -84 -204 -232 -204z" />
    <glyph glyph-name="T" unicode="T" horiz-adv-x="574" 
d="M258 0c-25 0 -38 15 -38 40v498h-168c-25 0 -39 14 -39 39v35c0 25 14 38 39 38h470c25 0 40 -13 40 -38v-35c0 -25 -15 -39 -40 -39h-167v-498c0 -25 -14 -40 -39 -40h-58z" />
    <glyph glyph-name="Tbar" unicode="&#x166;" horiz-adv-x="574" 
d="M522 650c25 0 40 -13 40 -38v-35c0 -25 -15 -39 -40 -39h-167v-202h77c25 0 39 -14 39 -39v-14c0 -25 -14 -39 -39 -39h-77v-204c0 -25 -14 -40 -39 -40h-58c-25 0 -38 15 -38 40v204h-77c-25 0 -40 14 -40 39v14c0 25 15 39 40 39h77v202h-168c-25 0 -39 14 -39 39v35
c0 25 14 38 39 38h470z" />
    <glyph glyph-name="Tcaron" unicode="&#x164;" horiz-adv-x="574" 
d="M132 803c-23 14 -32 28 -18 50l9 16c12 19 27 21 55 7l110 -56l109 56c28 14 43 12 55 -7l9 -16c14 -22 5 -36 -18 -50l-134 -81c-17 -10 -26 -11 -43 0zM522 650c25 0 40 -13 40 -38v-35c0 -25 -15 -39 -40 -39h-167v-498c0 -25 -14 -40 -39 -40h-58
c-25 0 -38 15 -38 40v498h-168c-25 0 -39 14 -39 39v35c0 25 14 38 39 38h470z" />
    <glyph glyph-name="uni0162" unicode="&#x162;" horiz-adv-x="574" 
d="M522 650c25 0 40 -13 40 -38v-35c0 -25 -15 -39 -40 -39h-167v-498c0 -22 -11 -36 -30 -39l-12 -47c77 4 130 -32 130 -99c0 -70 -58 -119 -144 -119c-40 0 -84 11 -118 30c-20 11 -27 28 -14 48l4 6c13 22 27 21 44 12c20 -11 46 -20 71 -20c38 0 62 16 62 44
c0 40 -43 54 -103 42c-17 -4 -29 -3 -23 16c8 27 16 58 24 87c-17 5 -26 19 -26 39v498h-168c-25 0 -39 14 -39 39v35c0 25 14 38 39 38h470z" />
    <glyph glyph-name="uni021A" unicode="&#x21a;" horiz-adv-x="574" 
d="M258 0c-25 0 -38 15 -38 40v498h-168c-25 0 -39 14 -39 39v35c0 25 14 38 39 38h470c25 0 40 -13 40 -38v-35c0 -25 -15 -39 -40 -39h-167v-498c0 -25 -14 -40 -39 -40h-58zM231 -258c-23 0 -30 13 -27 35l18 131c4 28 17 33 40 33h46c27 0 35 -15 27 -36l-45 -130
c-9 -26 -20 -33 -37 -33h-22z" />
    <glyph glyph-name="U" unicode="U" horiz-adv-x="725" 
d="M364 -12c-177 0 -295 117 -295 292v331c0 25 14 39 39 39h58c25 0 38 -14 38 -39v-336c0 -99 64 -166 160 -166c95 0 159 67 159 166v336c0 25 14 39 39 39h55c25 0 39 -14 39 -39v-331c0 -175 -117 -292 -292 -292z" />
    <glyph glyph-name="Uacute" unicode="&#xda;" horiz-adv-x="725" 
d="M251 731l-10 15c-14 22 -7 36 14 49l154 97c30 19 42 12 54 -9l22 -37c16 -27 8 -38 -20 -50l-164 -74c-26 -11 -39 -9 -50 9zM364 -12c-177 0 -295 117 -295 292v331c0 25 14 39 39 39h58c25 0 38 -14 38 -39v-336c0 -99 64 -166 160 -166c95 0 159 67 159 166v336
c0 25 14 39 39 39h55c25 0 39 -14 39 -39v-331c0 -175 -117 -292 -292 -292z" />
    <glyph glyph-name="Ucircumflex" unicode="&#xdb;" horiz-adv-x="725" 
d="M199 731l-10 15c-13 22 -5 37 18 51l134 81c18 10 27 9 44 0l134 -81c23 -14 31 -29 18 -51l-10 -15c-12 -20 -27 -22 -55 -8l-109 57l-109 -57c-28 -14 -43 -12 -55 8zM617 650c25 0 39 -14 39 -39v-331c0 -175 -117 -292 -292 -292c-177 0 -295 117 -295 292v331
c0 25 14 39 39 39h58c25 0 38 -14 38 -39v-336c0 -99 64 -166 160 -166c95 0 159 67 159 166v336c0 25 14 39 39 39h55z" />
    <glyph glyph-name="Udieresis" unicode="&#xdc;" horiz-adv-x="725" 
d="M252 724c-45 0 -83 38 -83 82c0 45 38 83 83 83s83 -38 83 -83s-39 -82 -83 -82zM471 724c-44 0 -82 38 -82 82c0 45 38 83 82 83c45 0 83 -38 83 -83s-38 -82 -83 -82zM364 -12c-177 0 -295 117 -295 292v331c0 25 14 39 39 39h58c25 0 38 -14 38 -39v-336
c0 -99 64 -166 160 -166c95 0 159 67 159 166v336c0 25 14 39 39 39h55c25 0 39 -14 39 -39v-331c0 -175 -117 -292 -292 -292z" />
    <glyph glyph-name="Ugrave" unicode="&#xd9;" horiz-adv-x="725" 
d="M481 731c-12 -18 -24 -20 -51 -9l-163 74c-29 12 -37 23 -21 50l22 37c13 21 24 28 55 9l154 -97c21 -13 28 -27 13 -49zM364 -12c-177 0 -295 117 -295 292v331c0 25 14 39 39 39h58c25 0 38 -14 38 -39v-336c0 -99 64 -166 160 -166c95 0 159 67 159 166v336
c0 25 14 39 39 39h55c25 0 39 -14 39 -39v-331c0 -175 -117 -292 -292 -292z" />
    <glyph glyph-name="Uhungarumlaut" unicode="&#x170;" horiz-adv-x="725" 
d="M244 715c-27 0 -31 11 -18 35l58 106c15 29 28 35 49 35h60c22 0 26 -10 15 -26l-90 -122c-14 -19 -25 -28 -47 -28h-27zM424 715c-27 0 -31 11 -18 35l58 106c15 29 28 35 49 35h60c22 0 26 -10 15 -26l-90 -122c-14 -19 -25 -28 -47 -28h-27zM364 -12
c-177 0 -295 117 -295 292v331c0 25 14 39 39 39h58c25 0 38 -14 38 -39v-336c0 -99 64 -166 160 -166c95 0 159 67 159 166v336c0 25 14 39 39 39h55c25 0 39 -14 39 -39v-331c0 -175 -117 -292 -292 -292z" />
    <glyph glyph-name="Umacron" unicode="&#x16a;" horiz-adv-x="725" 
d="M239 759c-25 0 -39 13 -39 38v18c0 25 14 38 39 38h247c25 0 38 -13 38 -38v-18c0 -25 -13 -38 -38 -38h-247zM364 -12c-177 0 -295 117 -295 292v331c0 25 14 39 39 39h58c25 0 38 -14 38 -39v-336c0 -99 64 -166 160 -166c95 0 159 67 159 166v336c0 25 14 39 39 39h55
c25 0 39 -14 39 -39v-331c0 -175 -117 -292 -292 -292z" />
    <glyph glyph-name="Uogonek" unicode="&#x172;" horiz-adv-x="725" 
d="M617 650c25 0 39 -14 39 -39v-331c0 -130 -64 -228 -169 -270c-25 -22 -42 -51 -42 -78c0 -47 36 -59 77 -46c18 5 33 7 43 -17l4 -8c9 -21 -2 -36 -22 -45c-87 -44 -196 2 -196 100c0 26 10 50 27 72h-14c-177 0 -295 117 -295 292v331c0 25 14 39 39 39h58
c25 0 38 -14 38 -39v-336c0 -99 64 -166 160 -166c95 0 159 67 159 166v336c0 25 14 39 39 39h55z" />
    <glyph glyph-name="Uring" unicode="&#x16e;" horiz-adv-x="725" 
d="M363 714c-64 0 -117 51 -117 115s53 116 117 116s118 -52 118 -116s-54 -115 -118 -115zM363 786c23 0 42 20 42 43c0 24 -19 43 -42 43c-22 0 -42 -19 -42 -43c0 -23 20 -43 42 -43zM364 -12c-177 0 -295 117 -295 292v331c0 25 14 39 39 39h58c25 0 38 -14 38 -39v-336
c0 -99 64 -166 160 -166c95 0 159 67 159 166v336c0 25 14 39 39 39h55c25 0 39 -14 39 -39v-331c0 -175 -117 -292 -292 -292z" />
    <glyph glyph-name="Utilde" unicode="&#x168;" horiz-adv-x="725" 
d="M200 715c-23 0 -35 10 -35 31c0 85 50 133 111 133c77 0 119 -65 168 -65c17 0 30 13 30 34c0 22 13 32 36 32h20c23 0 36 -10 36 -32c0 -85 -51 -132 -111 -132c-84 0 -123 64 -166 64c-19 0 -31 -12 -33 -34s-12 -31 -36 -31h-20zM364 -12c-177 0 -295 117 -295 292
v331c0 25 14 39 39 39h58c25 0 38 -14 38 -39v-336c0 -99 64 -166 160 -166c95 0 159 67 159 166v336c0 25 14 39 39 39h55c25 0 39 -14 39 -39v-331c0 -175 -117 -292 -292 -292z" />
    <glyph glyph-name="V" unicode="V" horiz-adv-x="678" 
d="M628 650c25 0 43 -14 31 -38l-269 -580c-12 -26 -24 -37 -47 -37h-8c-22 0 -34 11 -46 37l-270 580c-12 24 6 38 31 38h64c25 0 42 -12 52 -38l173 -413l177 413c11 26 27 38 53 38h59z" />
    <glyph glyph-name="W" unicode="W" horiz-adv-x="960" 
d="M910 650c25 0 41 -13 31 -38l-217 -580c-10 -27 -23 -37 -46 -37h-7c-22 0 -36 10 -46 37l-146 399l-144 -399c-10 -27 -23 -37 -46 -37h-7c-22 0 -36 10 -46 37l-217 580c-9 25 7 38 31 38h57c26 0 45 -11 54 -38l132 -396l136 403c9 25 25 36 47 36h8
c23 0 39 -11 47 -36l139 -406l135 399c9 27 28 38 53 38h52z" />
    <glyph glyph-name="Wacute" unicode="&#x1e82;" horiz-adv-x="960" 
d="M369 731l-10 15c-14 22 -7 36 14 49l154 97c30 19 42 12 54 -9l22 -37c16 -27 8 -38 -20 -50l-164 -74c-26 -11 -39 -9 -50 9zM910 650c25 0 41 -13 31 -38l-217 -580c-10 -27 -23 -37 -46 -37h-7c-22 0 -36 10 -46 37l-146 399l-144 -399c-10 -27 -23 -37 -46 -37h-7
c-22 0 -36 10 -46 37l-217 580c-9 25 7 38 31 38h57c26 0 45 -11 54 -38l132 -396l136 403c9 25 25 36 47 36h8c23 0 39 -11 47 -36l139 -406l135 399c9 27 28 38 53 38h52z" />
    <glyph glyph-name="Wcircumflex" unicode="&#x174;" horiz-adv-x="960" 
d="M317 731l-10 15c-13 22 -5 37 18 51l134 81c18 10 27 9 44 0l134 -81c23 -14 31 -29 18 -51l-10 -15c-12 -20 -27 -22 -55 -8l-109 57l-109 -57c-28 -14 -43 -12 -55 8zM910 650c25 0 41 -13 31 -38l-217 -580c-10 -27 -23 -37 -46 -37h-7c-22 0 -36 10 -46 37l-146 399
l-144 -399c-10 -27 -23 -37 -46 -37h-7c-22 0 -36 10 -46 37l-217 580c-9 25 7 38 31 38h57c26 0 45 -11 54 -38l132 -396l136 403c9 25 25 36 47 36h8c23 0 39 -11 47 -36l139 -406l135 399c9 27 28 38 53 38h52z" />
    <glyph glyph-name="Wdieresis" unicode="&#x1e84;" horiz-adv-x="960" 
d="M370 724c-45 0 -83 38 -83 82c0 45 38 83 83 83s83 -38 83 -83s-39 -82 -83 -82zM589 724c-44 0 -82 38 -82 82c0 45 38 83 82 83c45 0 83 -38 83 -83s-38 -82 -83 -82zM910 650c25 0 41 -13 31 -38l-217 -580c-10 -27 -23 -37 -46 -37h-7c-22 0 -36 10 -46 37l-146 399
l-144 -399c-10 -27 -23 -37 -46 -37h-7c-22 0 -36 10 -46 37l-217 580c-9 25 7 38 31 38h57c26 0 45 -11 54 -38l132 -396l136 403c9 25 25 36 47 36h8c23 0 39 -11 47 -36l139 -406l135 399c9 27 28 38 53 38h52z" />
    <glyph glyph-name="Wgrave" unicode="&#x1e80;" horiz-adv-x="960" 
d="M385 796c-29 12 -37 23 -21 50l22 37c13 21 24 28 55 9l154 -97c21 -13 28 -27 13 -49l-9 -15c-12 -18 -24 -20 -51 -9zM910 650c25 0 41 -13 31 -38l-217 -580c-10 -27 -23 -37 -46 -37h-7c-22 0 -36 10 -46 37l-146 399l-144 -399c-10 -27 -23 -37 -46 -37h-7
c-22 0 -36 10 -46 37l-217 580c-9 25 7 38 31 38h57c26 0 45 -11 54 -38l132 -396l136 403c9 25 25 36 47 36h8c23 0 39 -11 47 -36l139 -406l135 399c9 27 28 38 53 38h52z" />
    <glyph glyph-name="X" unicode="X" horiz-adv-x="630" 
d="M608 36c15 -21 2 -36 -22 -36h-89c-25 0 -35 13 -52 39l-131 194l-136 -194c-17 -25 -27 -39 -52 -39h-82c-25 0 -38 15 -22 36l214 291l-202 287c-14 22 -2 36 22 36h89c25 0 35 -13 52 -38l121 -179l124 179c17 26 27 38 52 38h82c25 0 38 -15 22 -36l-203 -278z" />
    <glyph glyph-name="Y" unicode="Y" horiz-adv-x="648" 
d="M592 650c24 0 40 -13 27 -36l-226 -373v-201c0 -25 -13 -40 -38 -40h-58c-25 0 -39 15 -39 40v200l-231 374c-14 22 2 36 27 36h63c25 0 41 -12 57 -38l153 -256l149 256c15 27 32 38 57 38h59z" />
    <glyph glyph-name="Yacute" unicode="&#xdd;" horiz-adv-x="648" 
d="M215 731l-10 15c-14 22 -7 36 14 49l154 97c30 19 42 12 54 -9l22 -37c16 -27 8 -38 -20 -50l-164 -74c-26 -11 -39 -9 -50 9zM592 650c24 0 40 -13 27 -36l-226 -373v-201c0 -25 -13 -40 -38 -40h-58c-25 0 -39 15 -39 40v200l-231 374c-14 22 2 36 27 36h63
c25 0 41 -12 57 -38l153 -256l149 256c15 27 32 38 57 38h59z" />
    <glyph glyph-name="Ycircumflex" unicode="&#x176;" horiz-adv-x="648" 
d="M163 731l-10 15c-13 22 -5 37 18 51l134 81c18 10 27 9 44 0l134 -81c23 -14 31 -29 18 -51l-10 -15c-12 -20 -27 -22 -55 -8l-109 57l-109 -57c-28 -14 -43 -12 -55 8zM592 650c24 0 40 -13 27 -36l-226 -373v-201c0 -25 -13 -40 -38 -40h-58c-25 0 -39 15 -39 40v200
l-231 374c-14 22 2 36 27 36h63c25 0 41 -12 57 -38l153 -256l149 256c15 27 32 38 57 38h59z" />
    <glyph glyph-name="Ydieresis" unicode="&#x178;" horiz-adv-x="648" 
d="M216 724c-45 0 -83 38 -83 82c0 45 38 83 83 83s83 -38 83 -83s-39 -82 -83 -82zM435 724c-44 0 -82 38 -82 82c0 45 38 83 82 83c45 0 83 -38 83 -83s-38 -82 -83 -82zM592 650c24 0 40 -13 27 -36l-226 -373v-201c0 -25 -13 -40 -38 -40h-58c-25 0 -39 15 -39 40v200
l-231 374c-14 22 2 36 27 36h63c25 0 41 -12 57 -38l153 -256l149 256c15 27 32 38 57 38h59z" />
    <glyph glyph-name="Ygrave" unicode="&#x1ef2;" horiz-adv-x="648" 
d="M231 796c-29 12 -37 23 -21 50l22 37c13 21 24 28 55 9l154 -97c21 -13 28 -27 13 -49l-9 -15c-12 -18 -24 -20 -51 -9zM592 650c24 0 40 -13 27 -36l-226 -373v-201c0 -25 -13 -40 -38 -40h-58c-25 0 -39 15 -39 40v200l-231 374c-14 22 2 36 27 36h63
c25 0 41 -12 57 -38l153 -256l149 256c15 27 32 38 57 38h59z" />
    <glyph glyph-name="uni1EF8" unicode="&#x1ef8;" horiz-adv-x="648" 
d="M164 715c-23 0 -35 10 -35 31c0 85 50 133 111 133c77 0 119 -65 168 -65c17 0 30 13 30 34c0 22 13 32 36 32h20c23 0 36 -10 36 -32c0 -85 -51 -132 -111 -132c-84 0 -123 64 -166 64c-19 0 -31 -12 -33 -34s-12 -31 -36 -31h-20zM592 650c24 0 40 -13 27 -36
l-226 -373v-201c0 -25 -13 -40 -38 -40h-58c-25 0 -39 15 -39 40v200l-231 374c-14 22 2 36 27 36h63c25 0 41 -12 57 -38l153 -256l149 256c15 27 32 38 57 38h59z" />
    <glyph glyph-name="Z" unicode="Z" horiz-adv-x="589" 
d="M526 110c25 0 39 -14 39 -39v-32c0 -25 -14 -39 -39 -39h-460c-24 0 -37 13 -37 35v34c0 19 12 33 24 47l322 425h-291c-25 0 -40 13 -40 38v33c0 25 15 38 40 38h425c24 0 38 -12 38 -35v-33c0 -20 -13 -33 -24 -48l-319 -424h322z" />
    <glyph glyph-name="Zacute" unicode="&#x179;" horiz-adv-x="589" 
d="M190 731l-10 15c-14 22 -7 36 14 49l154 97c30 19 42 12 54 -9l22 -37c16 -27 8 -38 -20 -50l-164 -74c-26 -11 -39 -9 -50 9zM526 110c25 0 39 -14 39 -39v-32c0 -25 -14 -39 -39 -39h-460c-24 0 -37 13 -37 35v34c0 19 12 33 24 47l322 425h-291c-25 0 -40 13 -40 38
v33c0 25 15 38 40 38h425c24 0 38 -12 38 -35v-33c0 -20 -13 -33 -24 -48l-319 -424h322z" />
    <glyph glyph-name="Zcaron" unicode="&#x17d;" horiz-adv-x="589" 
d="M146 803c-23 14 -32 28 -18 50l9 16c12 19 27 21 55 7l110 -56l109 56c28 14 43 12 55 -7l9 -16c14 -22 5 -36 -18 -50l-134 -81c-17 -10 -26 -11 -43 0zM526 110c25 0 39 -14 39 -39v-32c0 -25 -14 -39 -39 -39h-460c-24 0 -37 13 -37 35v34c0 19 12 33 24 47l322 425
h-291c-25 0 -40 13 -40 38v33c0 25 15 38 40 38h425c24 0 38 -12 38 -35v-33c0 -20 -13 -33 -24 -48l-319 -424h322z" />
    <glyph glyph-name="Zdotaccent" unicode="&#x17b;" horiz-adv-x="589" 
d="M301 724c-45 0 -85 40 -85 85c0 47 40 86 85 86c47 0 86 -39 86 -86c0 -46 -41 -85 -86 -85zM526 110c25 0 39 -14 39 -39v-32c0 -25 -14 -39 -39 -39h-460c-24 0 -37 13 -37 35v34c0 19 12 33 24 47l322 425h-291c-25 0 -40 13 -40 38v33c0 25 15 38 40 38h425
c24 0 38 -12 38 -35v-33c0 -20 -13 -33 -24 -48l-319 -424h322z" />
    <glyph glyph-name="G.ss01" horiz-adv-x="746" 
d="M378 -12c-193 0 -340 143 -340 337c0 195 151 337 341 337c99 0 186 -38 247 -102c17 -17 16 -38 -3 -54l-35 -32c-19 -16 -36 -13 -55 3c-39 38 -92 63 -151 63c-114 0 -206 -88 -206 -215c0 -126 88 -215 207 -215c56 0 105 20 140 54c29 27 48 63 53 103h-155
c-24 0 -39 13 -39 38v26c0 24 15 38 39 38h254c25 0 39 -15 39 -39v-13c0 -91 -35 -173 -95 -232c-60 -60 -144 -97 -241 -97z" />
    <glyph glyph-name="Gbreve.ss01" horiz-adv-x="746" 
d="M376 715c-93 0 -165 65 -165 154c0 20 13 30 32 30h27c19 0 34 -9 34 -30c0 -45 29 -71 73 -71s73 26 73 71c0 21 15 30 34 30h25c20 0 32 -10 32 -30c0 -89 -72 -154 -165 -154zM378 -12c-193 0 -340 143 -340 337c0 195 151 337 341 337c99 0 186 -38 247 -102
c17 -17 16 -38 -3 -54l-35 -32c-19 -16 -36 -13 -55 3c-39 38 -92 63 -151 63c-114 0 -206 -88 -206 -215c0 -126 88 -215 207 -215c56 0 105 20 140 54c29 27 48 63 53 103h-155c-24 0 -39 13 -39 38v26c0 24 15 38 39 38h254c25 0 39 -15 39 -39v-13
c0 -91 -35 -173 -95 -232c-60 -60 -144 -97 -241 -97z" />
    <glyph glyph-name="uni0122.ss01" horiz-adv-x="746" 
d="M378 -12c-193 0 -340 143 -340 337c0 195 151 337 341 337c99 0 186 -38 247 -102c17 -17 16 -38 -3 -54l-35 -32c-19 -16 -36 -13 -55 3c-39 38 -92 63 -151 63c-114 0 -206 -88 -206 -215c0 -126 88 -215 207 -215c56 0 105 20 140 54c29 27 48 63 53 103h-155
c-24 0 -39 13 -39 38v26c0 24 15 38 39 38h254c25 0 39 -15 39 -39v-13c0 -91 -35 -173 -95 -232c-60 -60 -144 -97 -241 -97zM323 -258c-23 0 -30 13 -27 35l18 131c4 28 17 33 40 33h46c27 0 35 -15 27 -36l-45 -130c-9 -26 -20 -33 -37 -33h-22z" />
    <glyph glyph-name="Gdotaccent.ss01" horiz-adv-x="746" 
d="M376 724c-45 0 -85 40 -85 85c0 47 40 86 85 86c47 0 86 -39 86 -86c0 -46 -41 -85 -86 -85zM378 -12c-193 0 -340 143 -340 337c0 195 151 337 341 337c99 0 186 -38 247 -102c17 -17 16 -38 -3 -54l-35 -32c-19 -16 -36 -13 -55 3c-39 38 -92 63 -151 63
c-114 0 -206 -88 -206 -215c0 -126 88 -215 207 -215c56 0 105 20 140 54c29 27 48 63 53 103h-155c-24 0 -39 13 -39 38v26c0 24 15 38 39 38h254c25 0 39 -15 39 -39v-13c0 -91 -35 -173 -95 -232c-60 -60 -144 -97 -241 -97z" />
    <glyph glyph-name="I.ss01" horiz-adv-x="419" 
d="M76 0c-25 0 -39 14 -39 39v31c0 25 14 39 39 39h66v432h-66c-25 0 -39 13 -39 38v33c0 25 14 38 39 38h267c25 0 40 -13 40 -38v-33c0 -25 -15 -38 -40 -38h-66v-432h66c25 0 40 -14 40 -39v-31c0 -25 -15 -39 -40 -39h-267z" />
    <glyph glyph-name="IJ.ss01" horiz-adv-x="917" 
d="M76 0c-25 0 -39 14 -39 39v31c0 25 14 39 39 39h66v432h-66c-25 0 -39 13 -39 38v33c0 25 14 38 39 38h267c25 0 40 -13 40 -38v-33c0 -25 -15 -38 -40 -38h-66v-432h66c25 0 40 -14 40 -39v-31c0 -25 -15 -39 -40 -39h-267zM616 -13c-82 0 -148 32 -191 80
c-17 19 -17 37 0 54l33 34c18 18 36 16 54 -1c21 -23 50 -45 96 -45c60 0 103 41 103 116v315h-139c-25 0 -40 13 -40 38v34c0 25 15 38 40 38h234c25 0 40 -14 40 -39v-366c0 -178 -88 -258 -230 -258z" />
    <glyph glyph-name="Iacute.ss01" horiz-adv-x="419" 
d="M99 731l-10 15c-14 22 -7 36 14 49l154 97c30 19 42 12 54 -9l22 -37c16 -27 8 -38 -20 -50l-164 -74c-26 -11 -39 -9 -50 9zM76 0c-25 0 -39 14 -39 39v31c0 25 14 39 39 39h66v432h-66c-25 0 -39 13 -39 38v33c0 25 14 38 39 38h267c25 0 40 -13 40 -38v-33
c0 -25 -15 -38 -40 -38h-66v-432h66c25 0 40 -14 40 -39v-31c0 -25 -15 -39 -40 -39h-267z" />
    <glyph glyph-name="Icircumflex.ss01" horiz-adv-x="419" 
d="M366 797c23 -14 31 -29 18 -51l-10 -15c-12 -20 -27 -22 -55 -8l-109 57l-109 -57c-28 -14 -43 -12 -55 8l-10 15c-13 22 -5 37 18 51l134 81c18 10 27 9 44 0zM343 650c25 0 40 -13 40 -38v-33c0 -25 -15 -38 -40 -38h-66v-432h66c25 0 40 -14 40 -39v-31
c0 -25 -15 -39 -40 -39h-267c-25 0 -39 14 -39 39v31c0 25 14 39 39 39h66v432h-66c-25 0 -39 13 -39 38v33c0 25 14 38 39 38h267z" />
    <glyph glyph-name="Idieresis.ss01" horiz-adv-x="419" 
d="M100 724c-45 0 -83 38 -83 82c0 45 38 83 83 83s83 -38 83 -83s-39 -82 -83 -82zM319 724c-44 0 -82 38 -82 82c0 45 38 83 82 83c45 0 83 -38 83 -83s-38 -82 -83 -82zM76 0c-25 0 -39 14 -39 39v31c0 25 14 39 39 39h66v432h-66c-25 0 -39 13 -39 38v33
c0 25 14 38 39 38h267c25 0 40 -13 40 -38v-33c0 -25 -15 -38 -40 -38h-66v-432h66c25 0 40 -14 40 -39v-31c0 -25 -15 -39 -40 -39h-267z" />
    <glyph glyph-name="Idotaccent.ss01" horiz-adv-x="419" 
d="M210 724c-45 0 -85 40 -85 85c0 47 40 86 85 86c47 0 86 -39 86 -86c0 -46 -41 -85 -86 -85zM76 0c-25 0 -39 14 -39 39v31c0 25 14 39 39 39h66v432h-66c-25 0 -39 13 -39 38v33c0 25 14 38 39 38h267c25 0 40 -13 40 -38v-33c0 -25 -15 -38 -40 -38h-66v-432h66
c25 0 40 -14 40 -39v-31c0 -25 -15 -39 -40 -39h-267z" />
    <glyph glyph-name="Igrave.ss01" horiz-adv-x="419" 
d="M329 731c-12 -18 -24 -20 -51 -9l-163 74c-29 12 -37 23 -21 50l22 37c13 21 24 28 55 9l154 -97c21 -13 28 -27 13 -49zM76 0c-25 0 -39 14 -39 39v31c0 25 14 39 39 39h66v432h-66c-25 0 -39 13 -39 38v33c0 25 14 38 39 38h267c25 0 40 -13 40 -38v-33
c0 -25 -15 -38 -40 -38h-66v-432h66c25 0 40 -14 40 -39v-31c0 -25 -15 -39 -40 -39h-267z" />
    <glyph glyph-name="Imacron.ss01" horiz-adv-x="419" 
d="M90 759c-24 0 -37 13 -37 38v18c0 25 13 38 37 38h240c24 0 37 -13 37 -38v-18c0 -25 -13 -38 -37 -38h-240zM76 0c-25 0 -39 14 -39 39v31c0 25 14 39 39 39h66v432h-66c-25 0 -39 13 -39 38v33c0 25 14 38 39 38h267c25 0 40 -13 40 -38v-33c0 -25 -15 -38 -40 -38h-66
v-432h66c25 0 40 -14 40 -39v-31c0 -25 -15 -39 -40 -39h-267z" />
    <glyph glyph-name="Iogonek.ss01" horiz-adv-x="419" 
d="M343 541h-66v-432h66c25 0 40 -14 40 -39v-31c0 -25 -15 -39 -40 -39h-25c-36 -23 -64 -61 -64 -95c0 -47 36 -59 77 -46c18 5 33 7 43 -17l4 -8c9 -21 -2 -36 -22 -45c-87 -44 -196 2 -196 100c0 43 28 80 67 111h-151c-25 0 -39 14 -39 39v31c0 25 14 39 39 39h66v432
h-66c-25 0 -39 13 -39 38v33c0 25 14 38 39 38h267c25 0 40 -13 40 -38v-33c0 -25 -15 -38 -40 -38z" />
    <glyph glyph-name="Itilde.ss01" horiz-adv-x="419" 
d="M60 715c-21 0 -33 10 -33 31c0 85 47 133 103 133c72 0 111 -65 156 -65c17 0 28 13 28 34c0 22 12 32 34 32h18c22 0 33 -10 33 -32c0 -85 -46 -132 -103 -132c-77 0 -113 64 -154 64c-17 0 -29 -12 -30 -34c-2 -22 -12 -31 -33 -31h-19zM76 0c-25 0 -39 14 -39 39v31
c0 25 14 39 39 39h66v432h-66c-25 0 -39 13 -39 38v33c0 25 14 38 39 38h267c25 0 40 -13 40 -38v-33c0 -25 -15 -38 -40 -38h-66v-432h66c25 0 40 -14 40 -39v-31c0 -25 -15 -39 -40 -39h-267z" />
    <glyph glyph-name="J.ss01" horiz-adv-x="514" 
d="M212 -12c-82 0 -147 32 -191 80c-17 18 -17 37 0 54l33 33c18 18 36 16 54 -1c21 -22 50 -45 96 -45c60 0 103 40 103 114v317h-150c-25 0 -40 13 -40 38v34c0 25 15 38 40 38h245c25 0 40 -14 40 -39v-387c0 -157 -93 -236 -230 -236z" />
    <glyph glyph-name="uni00A40301.ss01" horiz-adv-x="514" 
d="M172 731l-10 15c-14 22 -7 36 14 49l154 97c30 19 42 12 54 -9l22 -37c16 -27 8 -38 -20 -50l-164 -74c-26 -11 -39 -9 -50 9zM212 -12c-82 0 -147 32 -191 80c-17 18 -17 37 0 54l33 33c18 18 36 16 54 -1c21 -22 50 -45 96 -45c60 0 103 40 103 114v317h-150
c-25 0 -40 13 -40 38v34c0 25 15 38 40 38h245c25 0 40 -14 40 -39v-387c0 -157 -93 -236 -230 -236z" />
    <glyph glyph-name="K.ss01" horiz-adv-x="637" 
d="M631 46c8 -24 -2 -34 -16 -42c-26 -15 -43 -16 -64 -16c-36 0 -68 10 -92 31c-28 23 -58 66 -82 99l-112 154l-52 -56v-176c0 -25 -13 -40 -38 -40h-58c-25 0 -39 15 -39 40v571c0 25 14 39 39 39h58c25 0 38 -14 38 -39v-245l227 247c20 23 32 37 58 37h83
c24 0 37 -18 19 -39l-237 -260l134 -185c30 -41 45 -55 61 -56c7 -1 14 -1 24 2c20 6 29 2 36 -20z" />
    <glyph glyph-name="uni0136.ss01" horiz-adv-x="637" 
d="M631 46c8 -24 -2 -34 -16 -42c-26 -15 -43 -16 -64 -16c-36 0 -68 10 -92 31c-28 23 -58 66 -82 99l-112 154l-52 -56v-176c0 -25 -13 -40 -38 -40h-58c-25 0 -39 15 -39 40v571c0 25 14 39 39 39h58c25 0 38 -14 38 -39v-245l227 247c20 23 32 37 58 37h83
c24 0 37 -18 19 -39l-237 -260l134 -185c30 -41 45 -55 61 -56c7 -1 14 -1 24 2c20 6 29 2 36 -20zM364 -59c27 0 35 -15 27 -36l-45 -130c-9 -26 -20 -33 -37 -33h-22c-23 0 -30 13 -27 35l18 131c4 28 17 33 40 33h46z" />
    <glyph glyph-name="Q.ss01" horiz-adv-x="787" 
d="M761 -72c13 -25 2 -38 -14 -50c-21 -17 -59 -27 -92 -27c-61 0 -108 32 -147 63c-44 35 -77 74 -117 74c-200 0 -353 144 -353 337s153 337 353 337c201 0 353 -144 353 -337c0 -133 -73 -243 -184 -299l4 -3c31 -25 57 -55 97 -55c15 0 32 5 44 12c18 11 30 2 41 -19z
M176 325c0 -125 94 -215 215 -215s216 90 216 215c0 126 -95 215 -216 215s-215 -89 -215 -215z" />
    <glyph glyph-name="R.ss01" horiz-adv-x="649" 
d="M628 47c9 -25 -3 -33 -17 -41c-26 -15 -52 -18 -71 -18c-64 0 -100 34 -133 100l-46 98c-16 33 -26 66 -77 66h-71v-212c0 -25 -13 -40 -38 -40h-58c-25 0 -39 15 -39 40v571c0 25 15 39 40 39h231c161 0 246 -77 246 -202c0 -95 -56 -158 -146 -183c10 -7 19 -21 28 -40
l35 -76c10 -22 22 -41 39 -43c6 -1 15 0 26 4c19 8 28 1 36 -21zM213 348h142c62 0 102 37 102 94c0 58 -40 96 -102 96h-142v-190z" />
    <glyph glyph-name="Racute.ss01" horiz-adv-x="649" 
d="M196 731l-10 15c-14 22 -7 36 14 49l154 97c30 19 42 12 54 -9l22 -37c16 -27 8 -38 -20 -50l-164 -74c-26 -11 -39 -9 -50 9zM628 47c9 -25 -3 -33 -17 -41c-26 -15 -52 -18 -71 -18c-64 0 -100 34 -133 100l-46 98c-16 33 -26 66 -77 66h-71v-212
c0 -25 -13 -40 -38 -40h-58c-25 0 -39 15 -39 40v571c0 25 15 39 40 39h231c161 0 246 -77 246 -202c0 -95 -56 -158 -146 -183c10 -7 19 -21 28 -40l35 -76c10 -22 22 -41 39 -43c6 -1 15 0 26 4c19 8 28 1 36 -21zM213 348h142c62 0 102 37 102 94c0 58 -40 96 -102 96
h-142v-190z" />
    <glyph glyph-name="Rcaron.ss01" horiz-adv-x="649" 
d="M152 803c-23 14 -32 28 -18 50l9 16c12 19 27 21 55 7l110 -56l109 56c28 14 43 12 55 -7l9 -16c14 -22 5 -36 -18 -50l-134 -81c-17 -10 -26 -11 -43 0zM628 47c9 -25 -3 -33 -17 -41c-26 -15 -52 -18 -71 -18c-64 0 -100 34 -133 100l-46 98c-16 33 -26 66 -77 66h-71
v-212c0 -25 -13 -40 -38 -40h-58c-25 0 -39 15 -39 40v571c0 25 15 39 40 39h231c161 0 246 -77 246 -202c0 -95 -56 -158 -146 -183c10 -7 19 -21 28 -40l35 -76c10 -22 22 -41 39 -43c6 -1 15 0 26 4c19 8 28 1 36 -21zM213 348h142c62 0 102 37 102 94
c0 58 -40 96 -102 96h-142v-190z" />
    <glyph glyph-name="uni0156.ss01" horiz-adv-x="649" 
d="M628 47c9 -25 -3 -33 -17 -41c-26 -15 -52 -18 -71 -18c-64 0 -100 34 -133 100l-46 98c-16 33 -26 66 -77 66h-71v-212c0 -25 -13 -40 -38 -40h-58c-25 0 -39 15 -39 40v571c0 25 15 39 40 39h231c161 0 246 -77 246 -202c0 -95 -56 -158 -146 -183c10 -7 19 -21 28 -40
l35 -76c10 -22 22 -41 39 -43c6 -1 15 0 26 4c19 8 28 1 36 -21zM213 348h142c62 0 102 37 102 94c0 58 -40 96 -102 96h-142v-190zM360 -59c27 0 35 -15 27 -36l-45 -130c-9 -26 -20 -33 -37 -33h-22c-23 0 -30 13 -27 35l18 131c4 28 17 33 40 33h46z" />
    <glyph glyph-name="a" unicode="a" horiz-adv-x="562" 
d="M274 513c126 0 226 -62 226 -210v-264c0 -25 -13 -39 -37 -39h-32c-24 0 -38 15 -38 39v17c-43 -42 -101 -69 -165 -69c-117 0 -196 65 -196 161c0 102 86 170 214 170c47 0 91 -11 130 -27v27c0 58 -42 94 -111 94c-48 0 -93 -15 -128 -39c-20 -12 -37 -8 -50 14l-9 16
c-15 26 -7 44 11 55c58 39 123 55 185 55zM257 78c65 0 122 40 122 89v37c-25 12 -69 29 -115 29c-63 0 -105 -32 -105 -80c0 -45 39 -75 98 -75z" />
    <glyph glyph-name="aacute" unicode="&#xe1;" horiz-adv-x="562" 
d="M171 588l-13 23c-12 18 -5 32 14 45l154 100c21 15 35 10 45 -5l24 -44c13 -21 6 -34 -13 -44l-168 -79c-19 -9 -34 -9 -43 4zM274 513c126 0 226 -62 226 -210v-264c0 -25 -13 -39 -37 -39h-32c-24 0 -38 15 -38 39v17c-43 -42 -101 -69 -165 -69
c-117 0 -196 65 -196 161c0 102 86 170 214 170c47 0 91 -11 130 -27v27c0 58 -42 94 -111 94c-48 0 -93 -15 -128 -39c-20 -12 -37 -8 -50 14l-9 16c-15 26 -7 44 11 55c58 39 123 55 185 55zM257 78c65 0 122 40 122 89v37c-25 12 -69 29 -115 29c-63 0 -105 -32 -105 -80
c0 -45 39 -75 98 -75z" />
    <glyph glyph-name="abreve" unicode="&#x103;" horiz-adv-x="562" 
d="M284 577c-105 0 -158 78 -166 146c-1 19 8 34 32 34h24c26 0 33 -18 37 -34c9 -36 27 -67 73 -67s64 31 73 67c3 16 11 34 37 34h23c25 0 34 -15 32 -34c-7 -68 -61 -146 -165 -146zM274 513c126 0 226 -62 226 -210v-264c0 -25 -13 -39 -37 -39h-32c-24 0 -38 15 -38 39
v17c-43 -42 -101 -69 -165 -69c-117 0 -196 65 -196 161c0 102 86 170 214 170c47 0 91 -11 130 -27v27c0 58 -42 94 -111 94c-48 0 -93 -15 -128 -39c-20 -12 -37 -8 -50 14l-9 16c-15 26 -7 44 11 55c58 39 123 55 185 55zM257 78c65 0 122 40 122 89v37
c-25 12 -69 29 -115 29c-63 0 -105 -32 -105 -80c0 -45 39 -75 98 -75z" />
    <glyph glyph-name="acircumflex" unicode="&#xe2;" horiz-adv-x="562" 
d="M126 594l-11 17c-14 20 -9 35 15 50l129 77c17 10 27 10 44 0l129 -77c24 -15 29 -30 15 -50l-11 -17c-13 -20 -25 -22 -51 -9l-104 55l-104 -55c-26 -13 -38 -11 -51 9zM274 513c126 0 226 -62 226 -210v-264c0 -25 -13 -39 -37 -39h-32c-24 0 -38 15 -38 39v17
c-43 -42 -101 -69 -165 -69c-117 0 -196 65 -196 161c0 102 86 170 214 170c47 0 91 -11 130 -27v27c0 58 -42 94 -111 94c-48 0 -93 -15 -128 -39c-20 -12 -37 -8 -50 14l-9 16c-15 26 -7 44 11 55c58 39 123 55 185 55zM257 78c65 0 122 40 122 89v37
c-25 12 -69 29 -115 29c-63 0 -105 -32 -105 -80c0 -45 39 -75 98 -75z" />
    <glyph glyph-name="adieresis" unicode="&#xe4;" horiz-adv-x="562" 
d="M175 589c-46 0 -84 38 -84 84c0 47 38 84 84 84c47 0 84 -37 84 -84c0 -46 -37 -84 -84 -84zM392 589c-47 0 -85 38 -85 84c0 47 38 84 85 84c46 0 84 -37 84 -84c0 -46 -38 -84 -84 -84zM274 513c126 0 226 -62 226 -210v-264c0 -25 -13 -39 -37 -39h-32
c-24 0 -38 15 -38 39v17c-43 -42 -101 -69 -165 -69c-117 0 -196 65 -196 161c0 102 86 170 214 170c47 0 91 -11 130 -27v27c0 58 -42 94 -111 94c-48 0 -93 -15 -128 -39c-20 -12 -37 -8 -50 14l-9 16c-15 26 -7 44 11 55c58 39 123 55 185 55zM257 78c65 0 122 40 122 89
v37c-25 12 -69 29 -115 29c-63 0 -105 -32 -105 -80c0 -45 39 -75 98 -75z" />
    <glyph glyph-name="agrave" unicode="&#xe0;" horiz-adv-x="562" 
d="M183 663c-19 10 -26 23 -13 44l24 44c10 15 24 20 45 5l154 -100c19 -13 26 -27 14 -45l-13 -23c-9 -13 -24 -13 -43 -4zM274 513c126 0 226 -62 226 -210v-264c0 -25 -13 -39 -37 -39h-32c-24 0 -38 15 -38 39v17c-43 -42 -101 -69 -165 -69c-117 0 -196 65 -196 161
c0 102 86 170 214 170c47 0 91 -11 130 -27v27c0 58 -42 94 -111 94c-48 0 -93 -15 -128 -39c-20 -12 -37 -8 -50 14l-9 16c-15 26 -7 44 11 55c58 39 123 55 185 55zM257 78c65 0 122 40 122 89v37c-25 12 -69 29 -115 29c-63 0 -105 -32 -105 -80c0 -45 39 -75 98 -75z
" />
    <glyph glyph-name="amacron" unicode="&#x101;" horiz-adv-x="562" 
d="M164 619c-25 0 -38 13 -38 38v14c0 25 13 38 38 38h238c25 0 39 -13 39 -38v-14c0 -25 -14 -38 -39 -38h-238zM274 513c126 0 226 -62 226 -210v-264c0 -25 -13 -39 -37 -39h-32c-24 0 -38 15 -38 39v17c-43 -42 -101 -69 -165 -69c-117 0 -196 65 -196 161
c0 102 86 170 214 170c47 0 91 -11 130 -27v27c0 58 -42 94 -111 94c-48 0 -93 -15 -128 -39c-20 -12 -37 -8 -50 14l-9 16c-15 26 -7 44 11 55c58 39 123 55 185 55zM257 78c65 0 122 40 122 89v37c-25 12 -69 29 -115 29c-63 0 -105 -32 -105 -80c0 -45 39 -75 98 -75z
" />
    <glyph glyph-name="aogonek" unicode="&#x105;" horiz-adv-x="562" 
d="M528 -166c9 -21 -2 -36 -22 -45c-87 -44 -196 2 -196 100c0 51 39 92 88 127c-3 7 -5 14 -5 23v17c-43 -42 -101 -69 -165 -69c-117 0 -196 65 -196 161c0 102 86 170 214 170c47 0 91 -11 130 -27v27c0 58 -42 94 -111 94c-48 0 -93 -15 -128 -39c-20 -12 -37 -8 -50 14
l-9 16c-15 26 -7 44 11 55c58 39 123 55 185 55c126 0 226 -62 226 -210v-264c0 -23 -11 -37 -32 -39c-36 -23 -64 -61 -64 -95c0 -47 36 -59 77 -46c18 5 33 7 43 -17zM257 78c65 0 122 40 122 89v37c-25 12 -69 29 -115 29c-63 0 -105 -32 -105 -80c0 -45 39 -75 98 -75z
" />
    <glyph glyph-name="aring" unicode="&#xe5;" horiz-adv-x="562" 
d="M283 577c-68 0 -120 52 -120 116s52 116 120 116c67 0 120 -52 120 -116s-53 -116 -120 -116zM283 734c-24 0 -41 -19 -41 -41s17 -40 41 -40s40 18 40 40s-16 41 -40 41zM274 513c126 0 226 -62 226 -210v-264c0 -25 -13 -39 -37 -39h-32c-24 0 -38 15 -38 39v17
c-43 -42 -101 -69 -165 -69c-117 0 -196 65 -196 161c0 102 86 170 214 170c47 0 91 -11 130 -27v27c0 58 -42 94 -111 94c-48 0 -93 -15 -128 -39c-20 -12 -37 -8 -50 14l-9 16c-15 26 -7 44 11 55c58 39 123 55 185 55zM257 78c65 0 122 40 122 89v37
c-25 12 -69 29 -115 29c-63 0 -105 -32 -105 -80c0 -45 39 -75 98 -75z" />
    <glyph glyph-name="atilde" unicode="&#xe3;" horiz-adv-x="562" 
d="M125 577c-22 0 -34 7 -34 26c0 78 43 123 100 123c69 0 117 -57 168 -57c21 0 29 11 29 31c0 19 11 26 33 26h19c22 0 33 -7 33 -26c0 -78 -42 -123 -98 -123c-70 0 -123 57 -170 57c-21 0 -28 -12 -28 -31s-12 -26 -34 -26h-18zM274 513c126 0 226 -62 226 -210v-264
c0 -25 -13 -39 -37 -39h-32c-24 0 -38 15 -38 39v17c-43 -42 -101 -69 -165 -69c-117 0 -196 65 -196 161c0 102 86 170 214 170c47 0 91 -11 130 -27v27c0 58 -42 94 -111 94c-48 0 -93 -15 -128 -39c-20 -12 -37 -8 -50 14l-9 16c-15 26 -7 44 11 55c58 39 123 55 185 55z
M257 78c65 0 122 40 122 89v37c-25 12 -69 29 -115 29c-63 0 -105 -32 -105 -80c0 -45 39 -75 98 -75z" />
    <glyph glyph-name="ae" unicode="&#xe6;" horiz-adv-x="926" 
d="M228 -13c-117 0 -196 65 -196 161c0 102 86 170 214 170c47 0 92 -13 131 -29v29c-1 59 -44 94 -113 94c-48 0 -93 -15 -128 -39c-20 -12 -37 -8 -50 14l-9 16c-15 26 -7 44 12 57c57 37 122 53 182 53c80 0 144 -25 183 -77c45 48 110 77 184 77c76 0 140 -27 183 -70
c47 -46 73 -112 73 -182c0 -28 -11 -41 -41 -41h-346c8 -86 76 -132 153 -132c39 0 83 11 127 45c18 14 32 17 48 0l24 -24c19 -19 11 -34 0 -46c-51 -52 -140 -76 -211 -76c-86 0 -165 36 -213 98c-45 -59 -124 -98 -207 -98zM508 302h256c-5 31 -18 58 -36 76
c-22 24 -54 37 -92 37c-70 0 -118 -44 -128 -113zM257 78c65 0 122 53 122 108v18c-25 12 -69 29 -115 29c-63 0 -104 -32 -104 -80c0 -45 39 -75 97 -75z" />
    <glyph glyph-name="aeacute" unicode="&#x1fd;" horiz-adv-x="926" 
d="M341 588l-13 23c-12 18 -5 32 14 45l154 100c21 15 35 10 45 -5l24 -44c13 -21 6 -34 -13 -44l-168 -79c-19 -9 -34 -9 -43 4zM228 -13c-117 0 -196 65 -196 161c0 102 86 170 214 170c47 0 92 -13 131 -29v29c-1 59 -44 94 -113 94c-48 0 -93 -15 -128 -39
c-20 -12 -37 -8 -50 14l-9 16c-15 26 -7 44 12 57c57 37 122 53 182 53c80 0 144 -25 183 -77c45 48 110 77 184 77c76 0 140 -27 183 -70c47 -46 73 -112 73 -182c0 -28 -11 -41 -41 -41h-346c8 -86 76 -132 153 -132c39 0 83 11 127 45c18 14 32 17 48 0l24 -24
c19 -19 11 -34 0 -46c-51 -52 -140 -76 -211 -76c-86 0 -165 36 -213 98c-45 -59 -124 -98 -207 -98zM508 302h256c-5 31 -18 58 -36 76c-22 24 -54 37 -92 37c-70 0 -118 -44 -128 -113zM257 78c65 0 122 53 122 108v18c-25 12 -69 29 -115 29c-63 0 -104 -32 -104 -80
c0 -45 39 -75 97 -75z" />
    <glyph glyph-name="b" unicode="b" horiz-adv-x="636" 
d="M349 513c147 0 251 -115 251 -263c0 -147 -104 -263 -251 -263c-73 0 -131 31 -172 77v-25c0 -24 -13 -39 -37 -39h-35c-24 0 -38 15 -38 39v625c0 23 13 33 38 39l55 10c27 6 40 -11 40 -37v-212c41 30 92 49 149 49zM329 103c84 0 139 65 139 147s-55 148 -139 148
c-75 0 -139 -53 -137 -148c1 -94 61 -147 137 -147z" />
    <glyph glyph-name="c" unicode="c" horiz-adv-x="536" 
d="M305 -13c-156 0 -270 113 -270 263c0 151 114 263 270 263c74 0 142 -24 196 -77c12 -12 19 -28 0 -47l-35 -35c-13 -12 -27 -17 -48 1c-39 36 -76 43 -109 43c-83 0 -142 -63 -142 -148c0 -84 56 -148 142 -148c33 0 70 8 109 43c21 19 35 14 48 1l35 -35
c19 -19 12 -34 0 -46c-54 -54 -122 -78 -196 -78z" />
    <glyph glyph-name="cacute" unicode="&#x107;" horiz-adv-x="536" 
d="M191 588l-13 23c-12 18 -5 32 14 45l154 100c21 15 35 10 45 -5l24 -44c13 -21 6 -34 -13 -44l-168 -79c-19 -9 -34 -9 -43 4zM305 -13c-156 0 -270 113 -270 263c0 151 114 263 270 263c74 0 142 -24 196 -77c12 -12 19 -28 0 -47l-35 -35c-13 -12 -27 -17 -48 1
c-39 36 -76 43 -109 43c-83 0 -142 -63 -142 -148c0 -84 56 -148 142 -148c33 0 70 8 109 43c21 19 35 14 48 1l35 -35c19 -19 12 -34 0 -46c-54 -54 -122 -78 -196 -78z" />
    <glyph glyph-name="ccaron" unicode="&#x10d;" horiz-adv-x="536" 
d="M151 662c-24 14 -33 27 -16 50l12 16c14 19 25 23 51 9l104 -55l104 55c26 14 37 10 51 -9l12 -16c17 -23 8 -36 -16 -50l-129 -78c-17 -10 -27 -10 -44 0zM466 146l35 -35c19 -19 12 -34 0 -46c-54 -54 -122 -78 -196 -78c-156 0 -270 113 -270 263
c0 151 114 263 270 263c74 0 142 -24 196 -77c12 -12 19 -28 0 -47l-35 -35c-13 -12 -27 -17 -48 1c-39 36 -76 43 -109 43c-83 0 -142 -63 -142 -148c0 -84 56 -148 142 -148c33 0 70 8 109 43c21 19 35 14 48 1z" />
    <glyph glyph-name="ccedilla" unicode="&#xe7;" horiz-adv-x="536" 
d="M466 146l35 -35c19 -19 12 -34 0 -46c-47 -47 -105 -71 -168 -77l-10 -41c77 4 130 -32 130 -99c0 -70 -58 -119 -144 -119c-40 0 -84 11 -118 30c-20 11 -27 28 -14 48l4 6c13 22 27 21 44 12c20 -11 46 -20 71 -20c38 0 62 16 62 44c0 40 -43 54 -103 42
c-17 -4 -29 -3 -23 16c7 26 15 56 23 84c-130 22 -220 126 -220 259c0 151 114 263 270 263c74 0 142 -24 196 -77c12 -12 19 -28 0 -47l-35 -35c-13 -12 -27 -17 -48 1c-39 36 -76 43 -109 43c-83 0 -142 -63 -142 -148c0 -84 56 -148 142 -148c33 0 70 8 109 43
c21 19 35 14 48 1z" />
    <glyph glyph-name="cdotaccent" unicode="&#x10b;" horiz-adv-x="536" 
d="M304 589c-48 0 -86 38 -86 86c0 47 38 86 86 86c47 0 86 -39 86 -86c0 -48 -39 -86 -86 -86zM305 -13c-156 0 -270 113 -270 263c0 151 114 263 270 263c74 0 142 -24 196 -77c12 -12 19 -28 0 -47l-35 -35c-13 -12 -27 -17 -48 1c-39 36 -76 43 -109 43
c-83 0 -142 -63 -142 -148c0 -84 56 -148 142 -148c33 0 70 8 109 43c21 19 35 14 48 1l35 -35c19 -19 12 -34 0 -46c-54 -54 -122 -78 -196 -78z" />
    <glyph glyph-name="d" unicode="d" horiz-adv-x="639" 
d="M528 713c27 5 40 -11 40 -37v-637c0 -24 -14 -39 -38 -39h-40c-24 0 -37 15 -37 39v21c-40 -44 -97 -73 -167 -73c-147 0 -252 116 -252 263c0 148 105 263 252 263c57 0 108 -19 149 -49v200c0 23 13 33 37 39zM305 103c76 0 138 53 138 147c0 95 -62 148 -138 148
c-84 0 -139 -66 -139 -148s55 -147 139 -147z" />
    <glyph glyph-name="eth" unicode="&#xf0;" horiz-adv-x="563" 
d="M379 559c98 -117 150 -219 149 -328c-1 -140 -105 -244 -247 -244c-143 0 -246 100 -246 235c0 137 103 233 231 233c20 0 40 -2 60 -7c-17 24 -37 47 -59 71l-79 -29c-21 -8 -36 0 -43 20l-4 9c-7 20 0 35 20 43l48 17l-36 35c-14 12 -23 29 -2 47l41 34
c20 18 34 10 46 -3c24 -24 46 -48 67 -71l82 30c20 7 35 0 43 -20l3 -9c8 -20 0 -36 -20 -43zM282 92c72 0 123 56 123 130s-50 129 -123 129s-124 -55 -124 -129s51 -130 124 -130z" />
    <glyph glyph-name="dcaron" unicode="&#x10f;" horiz-adv-x="690" 
d="M528 713c27 5 40 -11 40 -37v-637c0 -24 -14 -39 -38 -39h-40c-24 0 -37 15 -37 39v21c-40 -44 -97 -73 -167 -73c-147 0 -252 116 -252 263c0 148 105 263 252 263c57 0 108 -19 149 -49v200c0 23 13 33 37 39zM732 713c25 0 32 -14 25 -33l-48 -144
c-8 -23 -20 -28 -34 -28h-24c-20 0 -26 12 -23 32l25 144c3 25 14 29 33 29h46zM305 103c76 0 138 53 138 147c0 95 -62 148 -138 148c-84 0 -139 -66 -139 -148s55 -147 139 -147z" />
    <glyph glyph-name="dcroat" unicode="&#x111;" horiz-adv-x="636" 
d="M607 630c25 0 38 -9 38 -31v-5c0 -22 -13 -31 -38 -31h-39v-524c0 -24 -14 -39 -38 -39h-38c-24 0 -38 15 -38 39v22c-40 -44 -97 -74 -168 -74c-147 0 -252 116 -252 263c0 148 105 263 252 263c57 0 108 -19 149 -49v99h-120c-25 0 -39 9 -39 31v5c0 22 14 31 39 31
h120v34c0 23 13 33 37 39l56 10c27 5 40 -11 40 -37v-46h39zM306 103c76 0 137 53 137 147c0 95 -62 148 -137 148c-84 0 -139 -66 -139 -148s55 -147 139 -147z" />
    <glyph glyph-name="e" unicode="e" horiz-adv-x="585" 
d="M166 220c8 -85 76 -132 153 -132c39 0 83 11 127 45c18 14 32 17 48 0l24 -24c19 -19 11 -34 0 -46c-51 -52 -140 -76 -211 -76c-150 0 -272 103 -272 263c0 151 111 263 262 263c76 0 140 -27 183 -70c47 -46 73 -112 73 -182c0 -28 -11 -41 -41 -41h-346zM295 415
c-69 0 -118 -44 -128 -113h256c-5 31 -17 57 -36 76c-22 24 -54 37 -92 37z" />
    <glyph glyph-name="eacute" unicode="&#xe9;" horiz-adv-x="585" 
d="M191 588l-13 23c-12 18 -5 32 14 45l154 100c21 15 35 10 45 -5l24 -44c13 -21 6 -34 -13 -44l-168 -79c-19 -9 -34 -9 -43 4zM166 220c8 -85 76 -132 153 -132c39 0 83 11 127 45c18 14 32 17 48 0l24 -24c19 -19 11 -34 0 -46c-51 -52 -140 -76 -211 -76
c-150 0 -272 103 -272 263c0 151 111 263 262 263c76 0 140 -27 183 -70c47 -46 73 -112 73 -182c0 -28 -11 -41 -41 -41h-346zM295 415c-69 0 -118 -44 -128 -113h256c-5 31 -17 57 -36 76c-22 24 -54 37 -92 37z" />
    <glyph glyph-name="ecaron" unicode="&#x11b;" horiz-adv-x="585" 
d="M151 662c-24 14 -33 27 -16 50l12 16c14 19 25 23 51 9l104 -55l104 55c26 14 37 10 51 -9l12 -16c17 -23 8 -36 -16 -50l-129 -78c-17 -10 -27 -10 -44 0zM166 220c8 -85 76 -132 153 -132c39 0 83 11 127 45c18 14 32 17 48 0l24 -24c19 -19 11 -34 0 -46
c-51 -52 -140 -76 -211 -76c-150 0 -272 103 -272 263c0 151 111 263 262 263c76 0 140 -27 183 -70c47 -46 73 -112 73 -182c0 -28 -11 -41 -41 -41h-346zM295 415c-69 0 -118 -44 -128 -113h256c-5 31 -17 57 -36 76c-22 24 -54 37 -92 37z" />
    <glyph glyph-name="ecircumflex" unicode="&#xea;" horiz-adv-x="585" 
d="M146 594l-11 17c-14 20 -9 35 15 50l129 77c17 10 27 10 44 0l129 -77c24 -15 29 -30 15 -50l-11 -17c-13 -20 -25 -22 -51 -9l-104 55l-104 -55c-26 -13 -38 -11 -51 9zM166 220c8 -85 76 -132 153 -132c39 0 83 11 127 45c18 14 32 17 48 0l24 -24c19 -19 11 -34 0 -46
c-51 -52 -140 -76 -211 -76c-150 0 -272 103 -272 263c0 151 111 263 262 263c76 0 140 -27 183 -70c47 -46 73 -112 73 -182c0 -28 -11 -41 -41 -41h-346zM295 415c-69 0 -118 -44 -128 -113h256c-5 31 -17 57 -36 76c-22 24 -54 37 -92 37z" />
    <glyph glyph-name="edieresis" unicode="&#xeb;" horiz-adv-x="585" 
d="M195 589c-46 0 -84 38 -84 84c0 47 38 84 84 84c47 0 84 -37 84 -84c0 -46 -37 -84 -84 -84zM412 589c-47 0 -85 38 -85 84c0 47 38 84 85 84c46 0 84 -37 84 -84c0 -46 -38 -84 -84 -84zM166 220c8 -85 76 -132 153 -132c39 0 83 11 127 45c18 14 32 17 48 0l24 -24
c19 -19 11 -34 0 -46c-51 -52 -140 -76 -211 -76c-150 0 -272 103 -272 263c0 151 111 263 262 263c76 0 140 -27 183 -70c47 -46 73 -112 73 -182c0 -28 -11 -41 -41 -41h-346zM295 415c-69 0 -118 -44 -128 -113h256c-5 31 -17 57 -36 76c-22 24 -54 37 -92 37z" />
    <glyph glyph-name="edotaccent" unicode="&#x117;" horiz-adv-x="585" 
d="M303 589c-48 0 -86 38 -86 86c0 47 38 86 86 86c47 0 86 -39 86 -86c0 -48 -39 -86 -86 -86zM166 220c8 -85 76 -132 153 -132c39 0 83 11 127 45c18 14 32 17 48 0l24 -24c19 -19 11 -34 0 -46c-51 -52 -140 -76 -211 -76c-150 0 -272 103 -272 263
c0 151 111 263 262 263c76 0 140 -27 183 -70c47 -46 73 -112 73 -182c0 -28 -11 -41 -41 -41h-346zM295 415c-69 0 -118 -44 -128 -113h256c-5 31 -17 57 -36 76c-22 24 -54 37 -92 37z" />
    <glyph glyph-name="egrave" unicode="&#xe8;" horiz-adv-x="585" 
d="M203 663c-19 10 -26 23 -13 44l24 44c10 15 24 20 45 5l154 -100c19 -13 26 -27 14 -45l-13 -23c-9 -13 -24 -13 -43 -4zM166 220c8 -85 76 -132 153 -132c39 0 83 11 127 45c18 14 32 17 48 0l24 -24c19 -19 11 -34 0 -46c-51 -52 -140 -76 -211 -76
c-150 0 -272 103 -272 263c0 151 111 263 262 263c76 0 140 -27 183 -70c47 -46 73 -112 73 -182c0 -28 -11 -41 -41 -41h-346zM295 415c-69 0 -118 -44 -128 -113h256c-5 31 -17 57 -36 76c-22 24 -54 37 -92 37z" />
    <glyph glyph-name="emacron" unicode="&#x113;" horiz-adv-x="585" 
d="M184 619c-25 0 -38 13 -38 38v14c0 25 13 38 38 38h238c25 0 39 -13 39 -38v-14c0 -25 -14 -38 -39 -38h-238zM166 220c8 -85 76 -132 153 -132c39 0 83 11 127 45c18 14 32 17 48 0l24 -24c19 -19 11 -34 0 -46c-51 -52 -140 -76 -211 -76c-150 0 -272 103 -272 263
c0 151 111 263 262 263c76 0 140 -27 183 -70c47 -46 73 -112 73 -182c0 -28 -11 -41 -41 -41h-346zM295 415c-69 0 -118 -44 -128 -113h256c-5 31 -17 57 -36 76c-22 24 -54 37 -92 37z" />
    <glyph glyph-name="eogonek" unicode="&#x119;" horiz-adv-x="585" 
d="M166 220c8 -85 76 -132 153 -132c39 0 83 11 127 45c18 14 32 17 48 0l24 -24c19 -19 11 -34 0 -46c-30 -30 -72 -51 -116 -63c-31 -24 -54 -57 -54 -88c0 -47 36 -59 77 -46c18 5 33 7 43 -17l4 -8c9 -21 -2 -36 -22 -45c-87 -44 -196 2 -196 100c0 34 18 64 44 91
c-146 4 -263 106 -263 263c0 151 111 263 262 263c76 0 140 -27 183 -70c47 -46 73 -112 73 -182c0 -28 -11 -41 -41 -41h-346zM295 415c-69 0 -118 -44 -128 -113h256c-5 31 -17 57 -36 76c-22 24 -54 37 -92 37z" />
    <glyph glyph-name="f" unicode="f" horiz-adv-x="385" 
d="M401 702c19 -8 32 -19 20 -46l-12 -30c-10 -24 -23 -27 -45 -19c-13 6 -27 9 -41 9c-44 0 -83 -28 -83 -90v-21h106c24 0 38 -13 38 -37v-25c0 -24 -14 -38 -38 -38h-106v-366c0 -24 -13 -39 -37 -39h-58c-24 0 -38 15 -38 39v366h-47c-24 0 -38 14 -38 38v25
c0 24 14 37 38 37h47v21c0 135 101 194 201 194c34 0 69 -7 93 -18z" />
    <glyph glyph-name="g" unicode="g" horiz-adv-x="615" 
d="M512 505c24 0 37 -14 37 -38v-412c0 -168 -120 -245 -267 -245c-103 0 -176 36 -229 94c-15 16 -19 34 1 53l19 22c14 14 32 18 52 -1c34 -37 87 -68 158 -68c77 0 143 39 143 124v60c-40 -32 -92 -52 -151 -52c-137 0 -240 101 -240 235c0 135 103 236 241 236
c66 0 122 -24 163 -62v16c0 24 14 38 38 38h35zM301 144c79 0 133 56 133 133c0 78 -55 134 -134 134c-78 0 -133 -56 -133 -134c0 -77 54 -133 134 -133z" />
    <glyph glyph-name="gbreve" unicode="&#x11f;" horiz-adv-x="615" 
d="M303 577c-105 0 -158 78 -166 146c-1 19 8 34 32 34h24c26 0 33 -18 37 -34c9 -36 27 -67 73 -67s64 31 73 67c3 16 11 34 37 34h23c25 0 34 -15 32 -34c-7 -68 -61 -146 -165 -146zM512 505c24 0 37 -14 37 -38v-412c0 -168 -120 -245 -267 -245c-103 0 -176 36 -229 94
c-15 16 -19 34 1 53l19 22c14 14 32 18 52 -1c34 -37 87 -68 158 -68c77 0 143 39 143 124v60c-40 -32 -92 -52 -151 -52c-137 0 -240 101 -240 235c0 135 103 236 241 236c66 0 122 -24 163 -62v16c0 24 14 38 38 38h35zM301 144c79 0 133 56 133 133
c0 78 -55 134 -134 134c-78 0 -133 -56 -133 -134c0 -77 54 -133 134 -133z" />
    <glyph glyph-name="uni0123" unicode="&#x123;" horiz-adv-x="615" 
d="M281 576c-27 0 -35 14 -27 35l46 135c9 26 20 32 37 32h21c23 0 31 -13 28 -34l-19 -135c-5 -29 -17 -33 -40 -33h-46zM512 505c24 0 37 -14 37 -38v-412c0 -168 -120 -245 -267 -245c-103 0 -176 36 -229 94c-15 16 -19 34 1 53l19 22c14 14 32 18 52 -1
c34 -37 87 -68 158 -68c77 0 143 39 143 124v60c-40 -32 -92 -52 -151 -52c-137 0 -240 101 -240 235c0 135 103 236 241 236c66 0 122 -24 163 -62v16c0 24 14 38 38 38h35zM301 144c79 0 133 56 133 133c0 78 -55 134 -134 134c-78 0 -133 -56 -133 -134
c0 -77 54 -133 134 -133z" />
    <glyph glyph-name="gdotaccent" unicode="&#x121;" horiz-adv-x="615" 
d="M303 589c-48 0 -86 38 -86 86c0 47 38 86 86 86c47 0 86 -39 86 -86c0 -48 -39 -86 -86 -86zM512 505c24 0 37 -14 37 -38v-412c0 -168 -120 -245 -267 -245c-103 0 -176 36 -229 94c-15 16 -19 34 1 53l19 22c14 14 32 18 52 -1c34 -37 87 -68 158 -68
c77 0 143 39 143 124v60c-40 -32 -92 -52 -151 -52c-137 0 -240 101 -240 235c0 135 103 236 241 236c66 0 122 -24 163 -62v16c0 24 14 38 38 38h35zM301 144c79 0 133 56 133 133c0 78 -55 134 -134 134c-78 0 -133 -56 -133 -134c0 -77 54 -133 134 -133z" />
    <glyph glyph-name="h" unicode="h" horiz-adv-x="607" 
d="M340 513c124 0 206 -86 206 -214v-260c0 -24 -13 -39 -37 -39h-58c-24 0 -38 15 -38 39v250c0 66 -40 110 -105 110s-109 -44 -109 -110v-250c0 -24 -13 -39 -37 -39h-57c-24 0 -38 15 -38 39v625c0 23 13 33 38 39l54 10c27 5 40 -11 40 -37v-218c34 34 81 55 141 55z
" />
    <glyph glyph-name="hbar" unicode="&#x127;" horiz-adv-x="607" 
d="M340 513c124 0 206 -86 206 -214v-260c0 -24 -13 -39 -37 -39h-58c-24 0 -38 15 -38 39v250c0 66 -40 110 -105 110s-109 -44 -109 -110v-250c0 -24 -13 -39 -37 -39h-57c-24 0 -38 15 -38 39v524h-36c-25 0 -39 9 -39 31v5c0 22 14 31 39 31h36v34c0 23 13 33 38 39
l54 10c27 6 40 -11 40 -37v-46h124c25 0 39 -9 39 -31v-5c0 -22 -14 -31 -39 -31h-124v-105c34 34 81 55 141 55z" />
    <glyph glyph-name="i" unicode="i" horiz-adv-x="267" 
d="M134 589c-48 0 -86 38 -86 86c0 47 38 86 86 86c47 0 86 -39 86 -86c0 -48 -39 -86 -86 -86zM105 0c-24 0 -38 15 -38 39v428c0 24 14 38 38 38h58c24 0 37 -14 37 -38v-428c0 -24 -13 -39 -37 -39h-58z" />
    <glyph glyph-name="dotlessi" unicode="&#x131;" horiz-adv-x="267" 
d="M105 0c-24 0 -38 15 -38 39v428c0 24 14 38 38 38h58c24 0 37 -14 37 -38v-428c0 -24 -13 -39 -37 -39h-58z" />
    <glyph glyph-name="iacute" unicode="&#xed;" horiz-adv-x="267" 
d="M21 588l-13 23c-12 18 -5 32 14 45l154 100c21 15 35 10 45 -5l24 -44c13 -21 6 -34 -13 -44l-168 -79c-19 -9 -34 -9 -43 4zM105 0c-24 0 -38 15 -38 39v428c0 24 14 38 38 38h58c24 0 37 -14 37 -38v-428c0 -24 -13 -39 -37 -39h-58z" />
    <glyph glyph-name="icircumflex" unicode="&#xee;" horiz-adv-x="267" 
d="M268 661c21 -15 25 -30 13 -50l-10 -17c-12 -20 -22 -22 -46 -9l-93 55l-94 -55c-24 -13 -34 -11 -46 9l-10 17c-12 20 -8 35 13 50l117 77c15 10 24 10 39 0zM163 505c24 0 37 -14 37 -38v-428c0 -24 -13 -39 -37 -39h-58c-24 0 -38 15 -38 39v428c0 24 14 38 38 38h58z
" />
    <glyph glyph-name="idieresis" unicode="&#xef;" horiz-adv-x="267" 
d="M25 589c-47 0 -85 38 -85 84c0 47 38 84 85 84s84 -37 84 -84c0 -46 -37 -84 -84 -84zM242 589c-47 0 -85 38 -85 84c0 47 38 84 85 84c46 0 84 -37 84 -84c0 -46 -38 -84 -84 -84zM105 0c-24 0 -38 15 -38 39v428c0 24 14 38 38 38h58c24 0 37 -14 37 -38v-428
c0 -24 -13 -39 -37 -39h-58z" />
    <glyph glyph-name="i.loclTRK" horiz-adv-x="267" 
d="M134 589c-48 0 -86 38 -86 86c0 47 38 86 86 86c47 0 86 -39 86 -86c0 -48 -39 -86 -86 -86zM105 0c-24 0 -38 15 -38 39v428c0 24 14 38 38 38h58c24 0 37 -14 37 -38v-428c0 -24 -13 -39 -37 -39h-58z" />
    <glyph glyph-name="igrave" unicode="&#xec;" horiz-adv-x="267" 
d="M244 588c-9 -13 -24 -13 -43 -4l-168 79c-19 10 -26 23 -13 44l24 44c10 15 24 20 45 5l154 -100c19 -13 26 -27 14 -45zM105 0c-24 0 -38 15 -38 39v428c0 24 14 38 38 38h58c24 0 37 -14 37 -38v-428c0 -24 -13 -39 -37 -39h-58z" />
    <glyph glyph-name="ij" unicode="&#x133;" horiz-adv-x="522" 
d="M134 589c-48 0 -86 38 -86 86c0 47 38 86 86 86c47 0 86 -39 86 -86c0 -48 -39 -86 -86 -86zM390 588c-48 0 -86 39 -86 86c0 48 38 86 86 86c47 0 86 -38 86 -86c0 -47 -39 -86 -86 -86zM105 0c-24 0 -38 15 -38 39v428c0 24 14 38 38 38h58c24 0 37 -14 37 -38v-428
c0 -24 -13 -39 -37 -39h-58zM319 -184c-22 -11 -43 -7 -54 15l-21 39c-11 22 -6 41 17 54c52 29 62 51 62 138v405c0 24 14 38 38 38h58c24 0 37 -14 37 -38v-407c0 -138 -25 -188 -137 -244z" />
    <glyph glyph-name="imacron" unicode="&#x12b;" horiz-adv-x="267" 
d="M19 619c-24 0 -37 13 -37 38v14c0 25 13 38 37 38h229c24 0 37 -13 37 -38v-14c0 -25 -13 -38 -37 -38h-229zM105 0c-24 0 -38 15 -38 39v428c0 24 14 38 38 38h58c24 0 37 -14 37 -38v-428c0 -24 -13 -39 -37 -39h-58z" />
    <glyph glyph-name="iogonek" unicode="&#x12f;" horiz-adv-x="267" 
d="M134 589c-48 0 -86 38 -86 86c0 47 38 86 86 86c47 0 86 -39 86 -86c0 -48 -39 -86 -86 -86zM222 -166c9 -21 -2 -36 -22 -45c-87 -44 -196 2 -196 100c0 47 32 85 76 119c-8 6 -13 17 -13 31v428c0 24 14 38 38 38h58c24 0 37 -14 37 -38v-428c0 -24 -13 -39 -37 -39h-1
c-36 -23 -64 -61 -64 -95c0 -47 36 -59 77 -46c18 5 33 7 43 -17z" />
    <glyph glyph-name="itilde" unicode="&#x129;" horiz-adv-x="267" 
d="M-14 577c-20 0 -31 7 -31 26c0 78 40 123 93 123c64 0 108 -57 156 -57c20 0 27 11 27 31c0 19 11 26 31 26h17c21 0 32 -7 32 -26c0 -78 -40 -123 -92 -123c-65 0 -115 57 -158 57c-20 0 -26 -12 -26 -31s-11 -26 -32 -26h-17zM105 0c-24 0 -38 15 -38 39v428
c0 24 14 38 38 38h58c24 0 37 -14 37 -38v-428c0 -24 -13 -39 -37 -39h-58z" />
    <glyph glyph-name="j" unicode="j" horiz-adv-x="268" 
d="M135 589c-48 0 -86 38 -86 86c0 47 38 86 86 86c47 0 86 -39 86 -86c0 -48 -39 -86 -86 -86zM65 -184c-23 -11 -43 -7 -55 15l-21 39c-11 22 -6 41 17 54c52 29 63 51 63 138v405c0 24 13 38 37 38h58c24 0 38 -14 38 -38v-407c0 -138 -26 -189 -137 -244z" />
    <glyph glyph-name="uni0237" unicode="&#x237;" horiz-adv-x="268" 
d="M65 -184c-23 -11 -43 -7 -55 15l-21 39c-11 22 -6 41 17 54c52 29 63 51 63 138v405c0 24 13 38 37 38h58c24 0 38 -14 38 -38v-407c0 -138 -26 -189 -137 -244z" />
    <glyph glyph-name="uni006A0301" horiz-adv-x="268" 
d="M18 588l-13 23c-12 18 -6 32 14 45l154 100c21 15 35 10 45 -5l24 -44c13 -21 6 -34 -13 -44l-168 -79c-19 -9 -34 -9 -43 4zM65 -184c-23 -11 -43 -7 -55 15l-21 39c-11 22 -6 41 17 54c52 29 63 51 63 138v405c0 24 13 38 37 38h58c24 0 38 -14 38 -38v-407
c0 -138 -26 -189 -137 -244z" />
    <glyph glyph-name="k" unicode="k" horiz-adv-x="545" 
d="M527 39c18 -22 4 -39 -19 -39h-79c-25 0 -40 12 -57 37l-125 169l-48 -52v-115c0 -24 -13 -39 -37 -39h-57c-24 0 -38 15 -38 39v625c0 23 13 33 38 39l54 10c27 6 40 -11 40 -37v-401l170 193c20 24 33 37 58 37h74c23 0 37 -17 19 -39l-174 -191z" />
    <glyph glyph-name="uni0137" unicode="&#x137;" horiz-adv-x="545" 
d="M527 39c18 -22 4 -39 -19 -39h-79c-25 0 -40 12 -57 37l-125 169l-48 -52v-115c0 -24 -13 -39 -37 -39h-57c-24 0 -38 15 -38 39v625c0 23 13 33 38 39l54 10c27 6 40 -11 40 -37v-401l170 193c20 24 33 37 58 37h74c23 0 37 -17 19 -39l-174 -191zM321 -59
c27 0 35 -15 27 -36l-45 -130c-9 -26 -20 -33 -37 -33h-22c-23 0 -30 13 -27 35l18 131c4 28 17 33 40 33h46z" />
    <glyph glyph-name="kgreenlandic" unicode="&#x138;" horiz-adv-x="544" 
d="M526 39c18 -22 4 -39 -19 -39h-79c-25 0 -40 12 -57 37l-125 169l-48 -52v-115c0 -24 -13 -39 -37 -39h-57c-24 0 -38 15 -38 39v428c0 24 14 38 38 38h57c24 0 37 -14 37 -38v-192l170 193c20 24 33 37 58 37h74c23 0 37 -17 19 -39l-174 -191z" />
    <glyph glyph-name="l" unicode="l" horiz-adv-x="269" 
d="M106 0c-24 0 -38 15 -38 39v625c0 23 13 33 38 39l55 11c27 6 40 -12 40 -38v-637c0 -24 -13 -39 -37 -39h-58z" />
    <glyph glyph-name="lacute" unicode="&#x13a;" horiz-adv-x="269" 
d="M2 764l-10 15c-15 22 -8 36 14 49l154 97c30 19 42 12 54 -9l22 -37c16 -27 8 -38 -20 -50l-164 -74c-26 -11 -39 -9 -50 9zM106 0c-24 0 -38 15 -38 39v625c0 23 13 33 38 39l55 11c27 6 40 -12 40 -38v-637c0 -24 -13 -39 -37 -39h-58z" />
    <glyph glyph-name="lcaron" unicode="&#x13e;" horiz-adv-x="315" 
d="M106 0c-24 0 -38 15 -38 39v625c0 23 13 34 38 39l55 11c27 5 40 -12 40 -38v-637c0 -24 -13 -39 -37 -39h-58zM272 505c-23 0 -30 13 -27 34l20 142c4 29 19 33 40 33h46c27 0 34 -15 27 -36l-48 -141c-9 -26 -20 -32 -37 -32h-21z" />
    <glyph glyph-name="uni013C" unicode="&#x13c;" horiz-adv-x="269" 
d="M106 0c-24 0 -38 15 -38 39v625c0 23 13 33 38 39l55 11c27 6 40 -12 40 -38v-637c0 -24 -13 -39 -37 -39h-58zM82 -258c-23 0 -30 13 -27 35l18 131c4 28 17 33 40 33h46c27 0 35 -15 27 -36l-45 -130c-9 -26 -20 -33 -37 -33h-22z" />
    <glyph glyph-name="ldot" unicode="&#x140;" horiz-adv-x="374" 
d="M106 0c-24 0 -38 15 -38 39v625c0 23 13 34 38 39l55 11c27 5 40 -12 40 -38v-637c0 -24 -13 -39 -37 -39h-58zM313 271c-44 0 -80 36 -80 80c0 45 36 81 80 81c45 0 81 -36 81 -81c0 -44 -36 -80 -81 -80z" />
    <glyph glyph-name="lslash" unicode="&#x142;" horiz-adv-x="359" 
d="M288 455c31 16 46 2 46 -28v-21c0 -27 -10 -35 -34 -47l-55 -29v-291c0 -24 -14 -39 -38 -39h-58c-24 0 -37 15 -37 39v221l-40 -21c-31 -16 -46 -2 -46 28v21c0 27 10 35 35 47l51 27v302c0 23 13 34 37 39l56 11c27 6 40 -12 40 -38v-244z" />
    <glyph glyph-name="m" unicode="m" horiz-adv-x="940" 
d="M674 513c124 0 205 -86 205 -214v-260c0 -24 -14 -39 -38 -39h-58c-24 0 -37 15 -37 39v250c0 67 -37 110 -100 110s-107 -43 -107 -110v-250c0 -24 -13 -39 -37 -39h-58c-24 0 -38 15 -38 39v250c0 67 -37 110 -100 110s-107 -43 -107 -110v-250c0 -24 -13 -39 -37 -39
h-58c-24 0 -38 15 -38 39v428c0 24 14 38 38 38h38c24 0 38 -14 38 -38v-34c34 47 86 80 159 80s130 -30 164 -81c36 48 95 81 171 81z" />
    <glyph glyph-name="n" unicode="n" horiz-adv-x="607" 
d="M340 513c124 0 206 -86 206 -214v-260c0 -24 -13 -39 -37 -39h-58c-24 0 -38 15 -38 39v250c0 66 -40 110 -105 110s-109 -44 -109 -110v-250c0 -24 -13 -39 -37 -39h-58c-24 0 -38 15 -38 39v428c0 24 14 38 38 38h38c24 0 38 -14 38 -38v-34c33 48 86 80 160 80z" />
    <glyph glyph-name="nacute" unicode="&#x144;" horiz-adv-x="607" 
d="M205 588l-13 23c-12 18 -5 32 14 45l154 100c21 15 35 10 45 -5l24 -44c13 -21 6 -34 -13 -44l-168 -79c-19 -9 -34 -9 -43 4zM340 513c124 0 206 -86 206 -214v-260c0 -24 -13 -39 -37 -39h-58c-24 0 -38 15 -38 39v250c0 66 -40 110 -105 110s-109 -44 -109 -110v-250
c0 -24 -13 -39 -37 -39h-58c-24 0 -38 15 -38 39v428c0 24 14 38 38 38h38c24 0 38 -14 38 -38v-34c33 48 86 80 160 80z" />
    <glyph glyph-name="ncaron" unicode="&#x148;" horiz-adv-x="607" 
d="M165 662c-24 14 -33 27 -16 50l12 16c14 19 25 23 51 9l104 -55l104 55c26 14 37 10 51 -9l12 -16c17 -23 8 -36 -16 -50l-129 -78c-17 -10 -27 -10 -44 0zM340 513c124 0 206 -86 206 -214v-260c0 -24 -13 -39 -37 -39h-58c-24 0 -38 15 -38 39v250
c0 66 -40 110 -105 110s-109 -44 -109 -110v-250c0 -24 -13 -39 -37 -39h-58c-24 0 -38 15 -38 39v428c0 24 14 38 38 38h38c24 0 38 -14 38 -38v-34c33 48 86 80 160 80z" />
    <glyph glyph-name="uni0146" unicode="&#x146;" horiz-adv-x="607" 
d="M340 513c124 0 206 -86 206 -214v-260c0 -24 -13 -39 -37 -39h-58c-24 0 -38 15 -38 39v250c0 66 -40 110 -105 110s-109 -44 -109 -110v-250c0 -24 -13 -39 -37 -39h-58c-24 0 -38 15 -38 39v428c0 24 14 38 38 38h38c24 0 38 -14 38 -38v-34c33 48 86 80 160 80z
M326 -59c27 0 35 -15 27 -36l-45 -130c-9 -26 -20 -33 -37 -33h-22c-23 0 -30 13 -27 35l18 131c4 28 17 33 40 33h46z" />
    <glyph glyph-name="eng" unicode="&#x14b;" horiz-adv-x="607" 
d="M340 513c124 0 206 -86 206 -214v-215c0 -137 -28 -191 -138 -244c-22 -10 -40 -6 -51 15l-23 42c-11 21 -5 39 16 51c52 29 63 51 63 139v202c0 66 -40 110 -105 110s-109 -44 -109 -110v-251c0 -24 -13 -38 -37 -38h-58c-24 0 -38 14 -38 38v430c0 24 14 37 38 37h38
c24 0 38 -13 38 -37v-35c33 48 86 80 160 80z" />
    <glyph glyph-name="ntilde" unicode="&#xf1;" horiz-adv-x="607" 
d="M159 577c-22 0 -34 7 -34 26c0 78 43 123 100 123c69 0 117 -57 168 -57c21 0 29 11 29 31c0 19 11 26 33 26h19c22 0 33 -7 33 -26c0 -78 -42 -123 -98 -123c-70 0 -123 57 -170 57c-21 0 -28 -12 -28 -31s-12 -26 -34 -26h-18zM340 513c124 0 206 -86 206 -214v-260
c0 -24 -13 -39 -37 -39h-58c-24 0 -38 15 -38 39v250c0 66 -40 110 -105 110s-109 -44 -109 -110v-250c0 -24 -13 -39 -37 -39h-58c-24 0 -38 15 -38 39v428c0 24 14 38 38 38h38c24 0 38 -14 38 -38v-34c33 48 86 80 160 80z" />
    <glyph glyph-name="o" unicode="o" horiz-adv-x="615" 
d="M308 -13c-158 0 -274 113 -274 263s116 263 274 263s273 -113 273 -263s-115 -263 -273 -263zM308 103c82 0 141 62 141 147s-59 148 -141 148s-142 -63 -142 -148s59 -147 142 -147z" />
    <glyph glyph-name="oacute" unicode="&#xf3;" horiz-adv-x="615" 
d="M199 588l-13 23c-12 18 -5 32 14 45l154 100c21 15 35 10 45 -5l24 -44c13 -21 6 -34 -13 -44l-168 -79c-19 -9 -34 -9 -43 4zM308 -13c-158 0 -274 113 -274 263s116 263 274 263s273 -113 273 -263s-115 -263 -273 -263zM308 103c82 0 141 62 141 147s-59 148 -141 148
s-142 -63 -142 -148s59 -147 142 -147z" />
    <glyph glyph-name="ocircumflex" unicode="&#xf4;" horiz-adv-x="615" 
d="M154 594l-11 17c-14 20 -9 35 15 50l129 77c17 10 27 10 44 0l129 -77c24 -15 29 -30 15 -50l-11 -17c-13 -20 -25 -22 -51 -9l-104 55l-104 -55c-26 -13 -38 -11 -51 9zM308 513c158 0 273 -113 273 -263s-115 -263 -273 -263s-274 113 -274 263s116 263 274 263z
M308 103c82 0 141 62 141 147s-59 148 -141 148s-142 -63 -142 -148s59 -147 142 -147z" />
    <glyph glyph-name="odieresis" unicode="&#xf6;" horiz-adv-x="615" 
d="M203 589c-46 0 -84 38 -84 84c0 47 38 84 84 84c47 0 84 -37 84 -84c0 -46 -37 -84 -84 -84zM420 589c-47 0 -85 38 -85 84c0 47 38 84 85 84c46 0 84 -37 84 -84c0 -46 -38 -84 -84 -84zM308 -13c-158 0 -274 113 -274 263s116 263 274 263s273 -113 273 -263
s-115 -263 -273 -263zM308 103c82 0 141 62 141 147s-59 148 -141 148s-142 -63 -142 -148s59 -147 142 -147z" />
    <glyph glyph-name="ograve" unicode="&#xf2;" horiz-adv-x="615" 
d="M422 588c-9 -13 -24 -13 -43 -4l-168 79c-19 10 -26 23 -13 44l24 44c10 15 24 20 45 5l154 -100c19 -13 26 -27 14 -45zM308 -13c-158 0 -274 113 -274 263s116 263 274 263s273 -113 273 -263s-115 -263 -273 -263zM308 103c82 0 141 62 141 147s-59 148 -141 148
s-142 -63 -142 -148s59 -147 142 -147z" />
    <glyph glyph-name="ohungarumlaut" unicode="&#x151;" horiz-adv-x="615" 
d="M201 577c-23 0 -30 14 -22 35l48 124c10 27 25 33 47 33h38c22 0 35 -13 23 -34l-74 -130c-12 -20 -26 -28 -48 -28h-12zM382 577c-23 0 -30 14 -22 35l48 124c10 27 25 33 47 33h38c22 0 35 -13 23 -34l-74 -130c-12 -20 -26 -28 -48 -28h-12zM308 -13
c-158 0 -274 113 -274 263s116 263 274 263s273 -113 273 -263s-115 -263 -273 -263zM308 103c82 0 141 62 141 147s-59 148 -141 148s-142 -63 -142 -148s59 -147 142 -147z" />
    <glyph glyph-name="omacron" unicode="&#x14d;" horiz-adv-x="615" 
d="M192 619c-25 0 -38 13 -38 38v14c0 25 13 38 38 38h238c25 0 39 -13 39 -38v-14c0 -25 -14 -38 -39 -38h-238zM308 -13c-158 0 -274 113 -274 263s116 263 274 263s273 -113 273 -263s-115 -263 -273 -263zM308 103c82 0 141 62 141 147s-59 148 -141 148
s-142 -63 -142 -148s59 -147 142 -147z" />
    <glyph glyph-name="uni01EB" unicode="&#x1eb;" horiz-adv-x="615" 
d="M388 -3c-29 -23 -49 -55 -49 -84c0 -47 36 -59 77 -46c18 5 33 7 43 -17l4 -8c9 -21 -2 -36 -22 -45c-87 -44 -196 2 -196 100c0 34 17 64 44 91c-148 8 -255 118 -255 262c0 150 116 263 274 263s273 -113 273 -263c0 -123 -78 -222 -193 -253zM166 250
c0 -85 59 -147 142 -147c82 0 141 62 141 147s-59 148 -141 148s-142 -63 -142 -148z" />
    <glyph glyph-name="oslash" unicode="&#xf8;" horiz-adv-x="615" 
d="M505 437c48 -47 76 -113 76 -187c0 -150 -115 -263 -273 -263c-37 0 -72 6 -103 18l-10 -15c-16 -23 -32 -39 -57 -39h-56c-25 0 -36 16 -18 42l48 69c-49 47 -78 113 -78 188c0 150 116 263 274 263c38 0 73 -6 104 -18l20 28c16 23 33 39 58 39h61c25 0 30 -16 14 -39z
M166 250c0 -30 7 -58 21 -80l155 224c-10 3 -22 4 -34 4c-82 0 -142 -63 -142 -148zM308 103c82 0 141 62 141 147c0 29 -7 56 -19 78l-154 -222c10 -2 21 -3 32 -3z" />
    <glyph glyph-name="oslashacute" unicode="&#x1ff;" horiz-adv-x="615" 
d="M199 588l-13 23c-12 18 -5 32 14 45l154 100c21 15 35 10 45 -5l24 -44c13 -21 6 -34 -13 -44l-168 -79c-19 -9 -34 -9 -43 4zM505 437c48 -47 76 -113 76 -187c0 -150 -115 -263 -273 -263c-37 0 -72 6 -103 18l-10 -15c-16 -23 -32 -39 -57 -39h-56
c-25 0 -36 16 -18 42l48 69c-49 47 -78 113 -78 188c0 150 116 263 274 263c38 0 73 -6 104 -18l20 28c16 23 33 39 58 39h61c25 0 30 -16 14 -39zM166 250c0 -30 7 -58 21 -80l155 224c-10 3 -22 4 -34 4c-82 0 -142 -63 -142 -148zM308 103c82 0 141 62 141 147
c0 29 -7 56 -19 78l-154 -222c10 -2 21 -3 32 -3z" />
    <glyph glyph-name="otilde" unicode="&#xf5;" horiz-adv-x="615" 
d="M153 577c-22 0 -34 7 -34 26c0 78 43 123 100 123c69 0 117 -57 168 -57c21 0 29 11 29 31c0 19 11 26 33 26h19c22 0 33 -7 33 -26c0 -78 -42 -123 -98 -123c-70 0 -123 57 -170 57c-21 0 -28 -12 -28 -31s-12 -26 -34 -26h-18zM308 -13c-158 0 -274 113 -274 263
s116 263 274 263s273 -113 273 -263s-115 -263 -273 -263zM308 103c82 0 141 62 141 147s-59 148 -141 148s-142 -63 -142 -148s59 -147 142 -147z" />
    <glyph glyph-name="oe" unicode="&#x153;" horiz-adv-x="1000" 
d="M308 -13c-158 0 -274 113 -274 263s116 263 274 263c86 0 160 -36 207 -103c45 67 115 103 198 103c76 0 139 -27 182 -70c47 -46 74 -113 74 -183c0 -28 -10 -40 -40 -40h-348c8 -86 77 -132 153 -132c40 0 84 10 129 47c17 13 30 15 45 0l26 -27c18 -19 12 -32 0 -44
c-52 -54 -141 -77 -211 -77c-84 0 -160 34 -208 104c-47 -68 -120 -104 -207 -104zM582 302h256c-4 31 -17 58 -35 76c-23 24 -54 37 -93 37c-69 0 -118 -44 -128 -113zM308 103c82 0 141 62 141 147s-59 148 -141 148s-142 -63 -142 -148s59 -147 142 -147z" />
    <glyph glyph-name="p" unicode="p" horiz-adv-x="635" 
d="M349 513c147 0 252 -116 252 -263c0 -146 -105 -263 -252 -263c-58 0 -109 19 -149 50v-189c0 -24 -13 -38 -37 -38h-58c-24 0 -38 14 -38 38v619c0 24 14 38 38 38h37c24 0 38 -14 38 -38v-21c44 41 102 67 169 67zM329 103c84 0 139 65 139 147s-55 148 -139 148
c-75 0 -137 -53 -137 -148c0 -94 61 -147 137 -147z" />
    <glyph glyph-name="thorn" unicode="&#xfe;" horiz-adv-x="636" 
d="M350 513c146 0 251 -116 251 -263c0 -146 -104 -263 -251 -263c-58 0 -109 19 -149 50v-190c0 -24 -14 -37 -38 -37h-58c-24 0 -37 13 -37 37v817c0 23 13 33 37 39l54 10c27 6 40 -11 40 -37v-214c41 32 93 51 151 51zM330 103c84 0 139 65 139 147s-55 148 -139 148
c-76 0 -138 -53 -138 -148c0 -94 62 -147 138 -147z" />
    <glyph glyph-name="q" unicode="q" horiz-adv-x="635" 
d="M531 505c24 0 37 -14 37 -38v-619c0 -24 -13 -38 -37 -38h-58c-24 0 -38 14 -38 38v189c-40 -31 -91 -50 -149 -50c-147 0 -251 116 -251 263c0 148 105 263 251 263c68 0 127 -26 171 -67v21c0 24 14 38 38 38h36zM306 103c76 0 138 53 138 147c0 95 -62 148 -138 148
c-84 0 -139 -66 -139 -148s55 -147 139 -147z" />
    <glyph glyph-name="r" unicode="r" horiz-adv-x="402" 
d="M377 504c15 -5 29 -13 22 -40l-13 -50c-7 -25 -23 -28 -40 -23c-14 5 -30 8 -44 8c-66 0 -103 -50 -103 -122v-238c0 -24 -13 -39 -37 -39h-58c-24 0 -38 15 -38 39v428c0 24 14 38 38 38h38c24 0 38 -14 38 -38v-31c32 48 77 77 134 77c25 0 43 -3 63 -9z" />
    <glyph glyph-name="racute" unicode="&#x155;" horiz-adv-x="402" 
d="M119 588l-13 23c-12 18 -5 32 14 45l154 100c21 15 35 10 45 -5l24 -44c13 -21 6 -34 -13 -44l-168 -79c-19 -9 -34 -9 -43 4zM377 504c15 -5 29 -13 22 -40l-13 -50c-7 -25 -23 -28 -40 -23c-14 5 -30 8 -44 8c-66 0 -103 -50 -103 -122v-238c0 -24 -13 -39 -37 -39h-58
c-24 0 -38 15 -38 39v428c0 24 14 38 38 38h38c24 0 38 -14 38 -38v-31c32 48 77 77 134 77c25 0 43 -3 63 -9z" />
    <glyph glyph-name="rcaron" unicode="&#x159;" horiz-adv-x="402" 
d="M208 584l-129 78c-24 14 -33 27 -16 50l12 16c14 19 25 23 51 9l104 -55l104 55c26 14 37 10 51 -9l12 -16c17 -23 8 -36 -16 -50l-129 -78c-17 -10 -27 -10 -44 0zM377 504c15 -5 29 -13 22 -40l-13 -50c-7 -25 -23 -28 -40 -23c-14 5 -30 8 -44 8
c-66 0 -103 -50 -103 -122v-238c0 -24 -13 -39 -37 -39h-58c-24 0 -38 15 -38 39v428c0 24 14 38 38 38h38c24 0 38 -14 38 -38v-31c32 48 77 77 134 77c25 0 43 -3 63 -9z" />
    <glyph glyph-name="uni0157" unicode="&#x157;" horiz-adv-x="402" 
d="M377 504c15 -5 29 -13 22 -40l-13 -50c-7 -25 -23 -28 -40 -23c-14 5 -30 8 -44 8c-66 0 -103 -50 -103 -122v-238c0 -24 -13 -39 -37 -39h-58c-24 0 -38 15 -38 39v428c0 24 14 38 38 38h38c24 0 38 -14 38 -38v-31c32 48 77 77 134 77c25 0 43 -3 63 -9zM156 -59
c27 0 35 -15 27 -36l-45 -130c-9 -26 -20 -33 -37 -33h-22c-23 0 -30 13 -27 35l18 131c4 28 17 33 40 33h46z" />
    <glyph glyph-name="s" unicode="s" horiz-adv-x="473" 
d="M240 -13c-78 0 -156 31 -198 76c-18 17 -23 34 -2 56l17 19c19 21 37 19 56 3c34 -30 78 -51 126 -51c43 0 71 19 71 48c0 39 -42 53 -87 71c-82 28 -169 59 -169 155c0 91 75 149 190 149c64 0 131 -22 170 -59c18 -16 23 -32 2 -57l-14 -18c-15 -17 -35 -20 -55 -5
c-33 27 -63 39 -103 39c-39 0 -63 -17 -63 -42c0 -32 44 -45 103 -68c84 -34 153 -70 153 -163c0 -95 -80 -153 -197 -153z" />
    <glyph glyph-name="sacute" unicode="&#x15b;" horiz-adv-x="473" 
d="M129 588l-13 23c-12 18 -5 32 14 45l154 100c21 15 35 10 45 -5l24 -44c13 -21 6 -34 -13 -44l-168 -79c-19 -9 -34 -9 -43 4zM240 -13c-78 0 -156 31 -198 76c-18 17 -23 34 -2 56l17 19c19 21 37 19 56 3c34 -30 78 -51 126 -51c43 0 71 19 71 48c0 39 -42 53 -87 71
c-82 28 -169 59 -169 155c0 91 75 149 190 149c64 0 131 -22 170 -59c18 -16 23 -32 2 -57l-14 -18c-15 -17 -35 -20 -55 -5c-33 27 -63 39 -103 39c-39 0 -63 -17 -63 -42c0 -32 44 -45 103 -68c84 -34 153 -70 153 -163c0 -95 -80 -153 -197 -153z" />
    <glyph glyph-name="scaron" unicode="&#x161;" horiz-adv-x="473" 
d="M89 662c-24 14 -33 27 -16 50l12 16c14 19 25 23 51 9l104 -55l104 55c26 14 37 10 51 -9l12 -16c17 -23 8 -36 -16 -50l-129 -78c-17 -10 -27 -10 -44 0zM284 303c84 -34 153 -70 153 -163c0 -95 -80 -153 -197 -153c-78 0 -156 31 -198 76c-18 17 -23 34 -2 56l17 19
c19 21 37 19 56 3c34 -30 78 -51 126 -51c43 0 71 19 71 48c0 39 -42 53 -87 71c-82 28 -169 59 -169 155c0 91 75 149 190 149c64 0 131 -22 170 -59c18 -16 23 -32 2 -57l-14 -18c-15 -17 -35 -20 -55 -5c-33 27 -63 39 -103 39c-39 0 -63 -17 -63 -42
c0 -32 44 -45 103 -68z" />
    <glyph glyph-name="scedilla" unicode="&#x15f;" horiz-adv-x="473" 
d="M437 140c0 -87 -68 -143 -169 -152l-9 -34c77 4 130 -32 130 -99c0 -70 -58 -119 -144 -119c-40 0 -84 11 -118 30c-20 11 -27 28 -14 48l4 6c13 22 27 21 44 12c20 -11 46 -20 71 -20c38 0 62 16 62 44c0 40 -43 54 -103 42c-17 -4 -29 -3 -23 16c7 24 14 51 21 77
c-60 10 -114 37 -147 72c-18 17 -23 34 -2 56l17 19c19 21 37 19 56 3c34 -30 78 -51 126 -51c43 0 71 19 71 48c0 39 -42 53 -87 71c-82 28 -169 59 -169 155c0 91 75 149 190 149c64 0 131 -22 170 -59c18 -16 23 -32 2 -57l-14 -18c-15 -17 -35 -20 -55 -5
c-33 27 -63 39 -103 39c-39 0 -63 -17 -63 -42c0 -32 44 -45 103 -68c84 -34 153 -70 153 -163z" />
    <glyph glyph-name="uni0219" unicode="&#x219;" horiz-adv-x="473" 
d="M240 -13c-78 0 -156 31 -198 76c-18 17 -23 34 -2 56l17 19c19 21 37 19 56 3c34 -30 78 -51 126 -51c43 0 71 19 71 48c0 39 -42 53 -87 71c-82 28 -169 59 -169 155c0 91 75 149 190 149c64 0 131 -22 170 -59c18 -16 23 -32 2 -57l-14 -18c-15 -17 -35 -20 -55 -5
c-33 27 -63 39 -103 39c-39 0 -63 -17 -63 -42c0 -32 44 -45 103 -68c84 -34 153 -70 153 -163c0 -95 -80 -153 -197 -153zM178 -258c-23 0 -30 13 -27 35l18 131c4 28 17 33 40 33h46c27 0 35 -15 27 -36l-45 -130c-9 -26 -20 -33 -37 -33h-22z" />
    <glyph glyph-name="germandbls" unicode="&#xdf;" horiz-adv-x="618" 
d="M366 -13c-34 0 -71 4 -100 19c-22 11 -33 30 -21 53l14 29c11 21 29 27 51 18c15 -7 29 -9 45 -9c59 0 103 41 103 108c0 71 -51 115 -124 115h-37c-17 0 -27 10 -27 27v32c0 17 10 27 27 27h14c55 0 93 38 93 88c0 52 -41 88 -99 88c-62 0 -105 -47 -105 -116v-427
c0 -24 -13 -39 -37 -39h-58c-24 0 -38 15 -38 39v413c0 149 97 240 238 240c132 0 225 -79 225 -189c0 -59 -27 -105 -69 -134c78 -27 123 -93 123 -179c0 -123 -94 -203 -218 -203z" />
    <glyph glyph-name="t" unicode="t" horiz-adv-x="405" 
d="M401 62c11 -21 -4 -34 -17 -43c-28 -20 -68 -32 -112 -32c-95 0 -176 56 -176 180v238h-49c-24 0 -39 14 -39 38v25c0 24 15 37 39 37h49v126c0 23 13 34 38 39l54 11c27 6 40 -12 40 -38v-138h111c24 0 39 -13 39 -37v-25c0 -24 -15 -38 -39 -38h-111v-226
c0 -56 27 -77 66 -77c17 0 32 7 46 15c23 14 34 4 43 -13z" />
    <glyph glyph-name="tbar" unicode="&#x167;" horiz-adv-x="405" 
d="M401 62c11 -21 -4 -34 -17 -43c-28 -20 -68 -32 -112 -32c-95 0 -176 56 -176 180v62h-49c-24 0 -37 10 -37 35v6c0 24 13 34 37 34h49v101h-49c-24 0 -39 14 -39 38v25c0 24 15 37 39 37h49v126c0 23 13 34 38 39l54 11c27 6 40 -12 40 -38v-138h111c24 0 39 -13 39 -37
v-25c0 -24 -15 -38 -39 -38h-111v-101h81c24 0 37 -10 37 -34v-6c0 -25 -13 -35 -37 -35h-81v-50c0 -56 27 -77 66 -77c17 0 32 7 46 15c23 14 34 4 43 -13z" />
    <glyph glyph-name="tcaron" unicode="&#x165;" horiz-adv-x="405" 
d="M391 766c27 0 34 -15 27 -36l-47 -141c-9 -26 -20 -32 -37 -32h-22c-23 0 -30 13 -27 34l20 142c4 29 20 33 41 33h45zM383 104l18 -42c11 -21 -4 -34 -17 -43c-28 -20 -68 -32 -112 -32c-95 0 -176 56 -176 180v238h-49c-24 0 -39 14 -39 38v25c0 24 15 37 39 37h49v126
c0 23 13 34 38 39l54 11c27 6 40 -12 40 -38v-138h111c24 0 39 -13 39 -37v-25c0 -24 -15 -38 -39 -38h-111v-226c0 -56 27 -77 66 -77c17 0 32 7 46 15c23 14 34 4 43 -13z" />
    <glyph glyph-name="uni0163" unicode="&#x163;" horiz-adv-x="405" 
d="M274 -46c77 4 130 -32 130 -99c0 -70 -58 -119 -144 -119c-40 0 -84 11 -118 30c-20 11 -27 28 -14 48l4 6c13 22 27 21 44 12c20 -11 46 -20 71 -20c38 0 62 16 62 44c0 40 -43 54 -103 42c-17 -4 -29 -3 -23 16l23 83c-64 22 -110 76 -110 170v238h-49
c-24 0 -39 14 -39 38v25c0 24 15 37 39 37h49v126c0 23 13 34 38 39l54 11c27 6 40 -12 40 -38v-138h111c24 0 39 -13 39 -37v-25c0 -24 -15 -38 -39 -38h-111v-226c0 -56 27 -77 66 -77c17 0 32 7 46 15c23 14 34 4 43 -13l18 -42c11 -21 -4 -34 -17 -43
c-26 -18 -62 -30 -102 -32z" />
    <glyph glyph-name="uni021B" unicode="&#x21b;" horiz-adv-x="405" 
d="M401 62c11 -21 -4 -34 -17 -43c-28 -20 -68 -32 -112 -32c-95 0 -176 56 -176 180v238h-49c-24 0 -39 14 -39 38v25c0 24 15 37 39 37h49v126c0 23 13 34 38 39l54 11c27 6 40 -12 40 -38v-138h111c24 0 39 -13 39 -37v-25c0 -24 -15 -38 -39 -38h-111v-226
c0 -56 27 -77 66 -77c17 0 32 7 46 15c23 14 34 4 43 -13zM270 -59c27 0 35 -15 27 -36l-45 -130c-9 -26 -20 -33 -37 -33h-22c-23 0 -30 13 -27 35l18 131c4 28 17 33 40 33h46z" />
    <glyph glyph-name="u" unicode="u" horiz-adv-x="595" 
d="M491 505c24 0 38 -14 38 -38v-428c0 -24 -14 -39 -38 -39h-36c-24 0 -38 15 -38 39v27c-31 -47 -81 -79 -153 -79c-122 0 -203 83 -203 206v274c0 24 13 38 37 38h58c24 0 38 -14 38 -38v-259c0 -63 38 -106 99 -106c63 0 103 43 103 109v256c0 24 13 38 37 38h58z" />
    <glyph glyph-name="uacute" unicode="&#xfa;" horiz-adv-x="595" 
d="M182 588l-13 23c-12 18 -5 32 14 45l154 100c21 15 35 10 45 -5l24 -44c13 -21 6 -34 -13 -44l-168 -79c-19 -9 -34 -9 -43 4zM491 505c24 0 38 -14 38 -38v-428c0 -24 -14 -39 -38 -39h-36c-24 0 -38 15 -38 39v27c-31 -47 -81 -79 -153 -79c-122 0 -203 83 -203 206
v274c0 24 13 38 37 38h58c24 0 38 -14 38 -38v-259c0 -63 38 -106 99 -106c63 0 103 43 103 109v256c0 24 13 38 37 38h58z" />
    <glyph glyph-name="ucircumflex" unicode="&#xfb;" horiz-adv-x="595" 
d="M138 594l-11 17c-14 20 -9 35 15 50l129 77c17 10 27 10 44 0l129 -77c24 -15 29 -30 15 -50l-11 -17c-13 -20 -25 -22 -51 -9l-104 55l-104 -55c-26 -13 -38 -11 -51 9zM491 505c24 0 38 -14 38 -38v-428c0 -24 -14 -39 -38 -39h-36c-24 0 -38 15 -38 39v27
c-31 -47 -81 -79 -153 -79c-122 0 -203 83 -203 206v274c0 24 13 38 37 38h58c24 0 38 -14 38 -38v-259c0 -63 38 -106 99 -106c63 0 103 43 103 109v256c0 24 13 38 37 38h58z" />
    <glyph glyph-name="udieresis" unicode="&#xfc;" horiz-adv-x="595" 
d="M186 589c-46 0 -84 38 -84 84c0 47 38 84 84 84c47 0 84 -37 84 -84c0 -46 -37 -84 -84 -84zM403 589c-47 0 -85 38 -85 84c0 47 38 84 85 84c46 0 84 -37 84 -84c0 -46 -38 -84 -84 -84zM491 505c24 0 38 -14 38 -38v-428c0 -24 -14 -39 -38 -39h-36
c-24 0 -38 15 -38 39v27c-31 -47 -81 -79 -153 -79c-122 0 -203 83 -203 206v274c0 24 13 38 37 38h58c24 0 38 -14 38 -38v-259c0 -63 38 -106 99 -106c63 0 103 43 103 109v256c0 24 13 38 37 38h58z" />
    <glyph glyph-name="ugrave" unicode="&#xf9;" horiz-adv-x="595" 
d="M194 663c-19 10 -26 23 -13 44l24 44c10 15 24 20 45 5l154 -100c19 -13 26 -27 14 -45l-13 -23c-9 -13 -24 -13 -43 -4zM491 505c24 0 38 -14 38 -38v-428c0 -24 -14 -39 -38 -39h-36c-24 0 -38 15 -38 39v27c-31 -47 -81 -79 -153 -79c-122 0 -203 83 -203 206v274
c0 24 13 38 37 38h58c24 0 38 -14 38 -38v-259c0 -63 38 -106 99 -106c63 0 103 43 103 109v256c0 24 13 38 37 38h58z" />
    <glyph glyph-name="uhungarumlaut" unicode="&#x171;" horiz-adv-x="595" 
d="M185 577c-23 0 -30 14 -22 35l48 124c10 27 25 33 47 33h38c22 0 35 -13 23 -34l-74 -130c-12 -20 -26 -28 -48 -28h-12zM366 577c-23 0 -30 14 -22 35l48 124c10 27 25 33 47 33h38c22 0 35 -13 23 -34l-74 -130c-12 -20 -26 -28 -48 -28h-12zM491 505
c24 0 38 -14 38 -38v-428c0 -24 -14 -39 -38 -39h-36c-24 0 -38 15 -38 39v27c-31 -47 -81 -79 -153 -79c-122 0 -203 83 -203 206v274c0 24 13 38 37 38h58c24 0 38 -14 38 -38v-259c0 -63 38 -106 99 -106c63 0 103 43 103 109v256c0 24 13 38 37 38h58z" />
    <glyph glyph-name="umacron" unicode="&#x16b;" horiz-adv-x="595" 
d="M175 619c-25 0 -38 13 -38 38v14c0 25 13 38 38 38h238c25 0 39 -13 39 -38v-14c0 -25 -14 -38 -39 -38h-238zM491 505c24 0 38 -14 38 -38v-428c0 -24 -14 -39 -38 -39h-36c-24 0 -38 15 -38 39v27c-31 -47 -81 -79 -153 -79c-122 0 -203 83 -203 206v274
c0 24 13 38 37 38h58c24 0 38 -14 38 -38v-259c0 -63 38 -106 99 -106c63 0 103 43 103 109v256c0 24 13 38 37 38h58z" />
    <glyph glyph-name="uogonek" unicode="&#x173;" horiz-adv-x="595" 
d="M555 -166c9 -21 -2 -36 -22 -45c-87 -44 -196 2 -196 100c0 50 38 91 86 126c-4 6 -6 14 -6 24v27c-31 -47 -81 -79 -153 -79c-122 0 -203 83 -203 206v274c0 24 13 38 37 38h58c24 0 38 -14 38 -38v-259c0 -63 38 -106 99 -106c63 0 103 43 103 109v256
c0 24 13 38 37 38h58c24 0 38 -14 38 -38v-428c0 -23 -13 -37 -34 -39c-36 -23 -64 -61 -64 -95c0 -47 36 -59 77 -46c18 5 33 7 43 -17z" />
    <glyph glyph-name="uring" unicode="&#x16f;" horiz-adv-x="595" 
d="M295 577c-68 0 -120 52 -120 116s52 116 120 116c67 0 120 -52 120 -116s-53 -116 -120 -116zM295 734c-24 0 -41 -19 -41 -41s17 -40 41 -40s40 18 40 40s-16 41 -40 41zM491 505c24 0 38 -14 38 -38v-428c0 -24 -14 -39 -38 -39h-36c-24 0 -38 15 -38 39v27
c-31 -47 -81 -79 -153 -79c-122 0 -203 83 -203 206v274c0 24 13 38 37 38h58c24 0 38 -14 38 -38v-259c0 -63 38 -106 99 -106c63 0 103 43 103 109v256c0 24 13 38 37 38h58z" />
    <glyph glyph-name="utilde" unicode="&#x169;" horiz-adv-x="595" 
d="M136 577c-22 0 -34 7 -34 26c0 78 43 123 100 123c69 0 117 -57 168 -57c21 0 29 11 29 31c0 19 11 26 33 26h19c22 0 33 -7 33 -26c0 -78 -42 -123 -98 -123c-70 0 -123 57 -170 57c-21 0 -28 -12 -28 -31s-12 -26 -34 -26h-18zM491 505c24 0 38 -14 38 -38v-428
c0 -24 -14 -39 -38 -39h-36c-24 0 -38 15 -38 39v27c-31 -47 -81 -79 -153 -79c-122 0 -203 83 -203 206v274c0 24 13 38 37 38h58c24 0 38 -14 38 -38v-259c0 -63 38 -106 99 -106c63 0 103 43 103 109v256c0 24 13 38 37 38h58z" />
    <glyph glyph-name="v" unicode="v" horiz-adv-x="543" 
d="M496 505c24 0 38 -16 28 -38l-199 -435c-11 -24 -28 -37 -49 -37h-6c-21 0 -38 13 -49 37l-207 435c-10 22 5 38 28 38h58c25 0 37 -13 47 -38l126 -309l125 309c9 25 22 38 47 38h51z" />
    <glyph glyph-name="w" unicode="w" horiz-adv-x="781" 
d="M736 505c23 0 37 -15 28 -38l-169 -435c-11 -27 -25 -37 -47 -37h-6c-22 0 -37 10 -47 37l-105 294l-106 -294c-10 -27 -25 -37 -47 -37h-6c-22 0 -36 10 -47 37l-167 435c-9 23 5 38 28 38h56c25 0 41 -12 48 -38l90 -302l103 309c9 28 24 36 46 36h5c22 0 37 -9 46 -36
l103 -303l89 296c8 26 24 38 48 38h57z" />
    <glyph glyph-name="wacute" unicode="&#x1e83;" horiz-adv-x="781" 
d="M273 588l-13 23c-12 18 -5 32 14 45l154 100c21 15 35 10 45 -5l24 -44c13 -21 6 -34 -13 -44l-168 -79c-19 -9 -34 -9 -43 4zM736 505c23 0 37 -15 28 -38l-169 -435c-11 -27 -25 -37 -47 -37h-6c-22 0 -37 10 -47 37l-105 294l-106 -294c-10 -27 -25 -37 -47 -37h-6
c-22 0 -36 10 -47 37l-167 435c-9 23 5 38 28 38h56c25 0 41 -12 48 -38l90 -302l103 309c9 28 24 36 46 36h5c22 0 37 -9 46 -36l103 -303l89 296c8 26 24 38 48 38h57z" />
    <glyph glyph-name="wcircumflex" unicode="&#x175;" horiz-adv-x="781" 
d="M229 594l-11 17c-14 20 -9 35 15 50l129 77c17 10 27 10 44 0l129 -77c24 -15 29 -30 15 -50l-11 -17c-13 -20 -25 -22 -51 -9l-104 55l-104 -55c-26 -13 -38 -11 -51 9zM736 505c23 0 37 -15 28 -38l-169 -435c-11 -27 -25 -37 -47 -37h-6c-22 0 -37 10 -47 37l-105 294
l-106 -294c-10 -27 -25 -37 -47 -37h-6c-22 0 -36 10 -47 37l-167 435c-9 23 5 38 28 38h56c25 0 41 -12 48 -38l90 -302l103 309c9 28 24 36 46 36h5c22 0 37 -9 46 -36l103 -303l89 296c8 26 24 38 48 38h57z" />
    <glyph glyph-name="wdieresis" unicode="&#x1e85;" horiz-adv-x="781" 
d="M277 589c-46 0 -84 38 -84 84c0 47 38 84 84 84c47 0 84 -37 84 -84c0 -46 -37 -84 -84 -84zM494 589c-47 0 -85 38 -85 84c0 47 38 84 85 84c46 0 84 -37 84 -84c0 -46 -38 -84 -84 -84zM736 505c23 0 37 -15 28 -38l-169 -435c-11 -27 -25 -37 -47 -37h-6
c-22 0 -37 10 -47 37l-105 294l-106 -294c-10 -27 -25 -37 -47 -37h-6c-22 0 -36 10 -47 37l-167 435c-9 23 5 38 28 38h56c25 0 41 -12 48 -38l90 -302l103 309c9 28 24 36 46 36h5c22 0 37 -9 46 -36l103 -303l89 296c8 26 24 38 48 38h57z" />
    <glyph glyph-name="wgrave" unicode="&#x1e81;" horiz-adv-x="781" 
d="M285 663c-19 10 -26 23 -13 44l24 44c10 15 24 20 45 5l154 -100c19 -13 26 -27 14 -45l-13 -23c-9 -13 -24 -13 -43 -4zM736 505c23 0 37 -15 28 -38l-169 -435c-11 -27 -25 -37 -47 -37h-6c-22 0 -37 10 -47 37l-105 294l-106 -294c-10 -27 -25 -37 -47 -37h-6
c-22 0 -36 10 -47 37l-167 435c-9 23 5 38 28 38h56c25 0 41 -12 48 -38l90 -302l103 309c9 28 24 36 46 36h5c22 0 37 -9 46 -36l103 -303l89 296c8 26 24 38 48 38h57z" />
    <glyph glyph-name="x" unicode="x" horiz-adv-x="531" 
d="M507 38c17 -21 5 -38 -19 -38h-79c-24 0 -36 14 -53 37l-96 132l-96 -132c-17 -23 -29 -37 -53 -37h-68c-23 0 -36 16 -19 38l167 214l-166 216c-17 21 -4 37 19 37h79c24 0 36 -13 53 -37l96 -132l95 132c16 24 28 37 53 37h67c24 0 36 -16 19 -37l-165 -216z" />
    <glyph glyph-name="y" unicode="y" horiz-adv-x="541" 
d="M496 505c24 0 38 -16 28 -38l-230 -529c-43 -100 -101 -128 -170 -128c-29 0 -56 6 -76 16c-13 7 -27 17 -20 39l11 39c6 19 19 26 44 17c10 -4 23 -7 35 -7c23 0 44 7 62 47l34 75l-194 431c-10 22 4 38 28 38h65c25 0 38 -14 47 -38l119 -301l119 301c9 24 22 38 46 38
h52z" />
    <glyph glyph-name="yacute" unicode="&#xfd;" horiz-adv-x="541" 
d="M166 588l-13 23c-12 18 -5 32 14 45l154 100c21 15 35 10 45 -5l24 -44c13 -21 6 -34 -13 -44l-168 -79c-19 -9 -34 -9 -43 4zM496 505c24 0 38 -16 28 -38l-230 -529c-43 -100 -101 -128 -170 -128c-29 0 -56 6 -76 16c-13 7 -27 17 -20 39l11 39c6 19 19 26 44 17
c10 -4 23 -7 35 -7c23 0 44 7 62 47l34 75l-194 431c-10 22 4 38 28 38h65c25 0 38 -14 47 -38l119 -301l119 301c9 24 22 38 46 38h52z" />
    <glyph glyph-name="ycircumflex" unicode="&#x177;" horiz-adv-x="541" 
d="M121 594l-11 17c-14 20 -9 35 15 50l129 77c17 10 27 10 44 0l129 -77c24 -15 29 -30 15 -50l-11 -17c-13 -20 -25 -22 -51 -9l-104 55l-104 -55c-26 -13 -38 -11 -51 9zM496 505c24 0 38 -16 28 -38l-230 -529c-43 -100 -101 -128 -170 -128c-29 0 -56 6 -76 16
c-13 7 -27 17 -20 39l11 39c6 19 19 26 44 17c10 -4 23 -7 35 -7c23 0 44 7 62 47l34 75l-194 431c-10 22 4 38 28 38h65c25 0 38 -14 47 -38l119 -301l119 301c9 24 22 38 46 38h52z" />
    <glyph glyph-name="ydieresis" unicode="&#xff;" horiz-adv-x="541" 
d="M170 589c-46 0 -84 38 -84 84c0 47 38 84 84 84c47 0 84 -37 84 -84c0 -46 -37 -84 -84 -84zM387 589c-47 0 -85 38 -85 84c0 47 38 84 85 84c46 0 84 -37 84 -84c0 -46 -38 -84 -84 -84zM496 505c24 0 38 -16 28 -38l-230 -529c-43 -100 -101 -128 -170 -128
c-29 0 -56 6 -76 16c-13 7 -27 17 -20 39l11 39c6 19 19 26 44 17c10 -4 23 -7 35 -7c23 0 44 7 62 47l34 75l-194 431c-10 22 4 38 28 38h65c25 0 38 -14 47 -38l119 -301l119 301c9 24 22 38 46 38h52z" />
    <glyph glyph-name="ygrave" unicode="&#x1ef3;" horiz-adv-x="541" 
d="M152 663c-18 10 -25 23 -13 44l25 44c9 15 23 20 45 5l153 -100c20 -13 26 -27 15 -45l-14 -23c-9 -13 -23 -13 -43 -4zM496 505c24 0 38 -16 28 -38l-230 -529c-43 -100 -101 -128 -170 -128c-29 0 -56 6 -76 16c-13 7 -27 17 -20 39l11 39c6 19 19 26 44 17
c10 -4 23 -7 35 -7c23 0 44 7 62 47l34 75l-194 431c-10 22 4 38 28 38h65c25 0 38 -14 47 -38l119 -301l119 301c9 24 22 38 46 38h52z" />
    <glyph glyph-name="uni1EF9" unicode="&#x1ef9;" horiz-adv-x="541" 
d="M120 577c-22 0 -34 7 -34 26c0 78 43 123 100 123c69 0 117 -57 168 -57c21 0 29 11 29 31c0 19 11 26 33 26h19c22 0 33 -7 33 -26c0 -78 -42 -123 -98 -123c-70 0 -123 57 -170 57c-21 0 -28 -12 -28 -31s-12 -26 -34 -26h-18zM496 505c24 0 38 -16 28 -38l-230 -529
c-43 -100 -101 -128 -170 -128c-29 0 -56 6 -76 16c-13 7 -27 17 -20 39l11 39c6 19 19 26 44 17c10 -4 23 -7 35 -7c23 0 44 7 62 47l34 75l-194 431c-10 22 4 38 28 38h65c25 0 38 -14 47 -38l119 -301l119 301c9 24 22 38 46 38h52z" />
    <glyph glyph-name="z" unicode="z" horiz-adv-x="489" 
d="M68 0c-24 0 -39 15 -39 39v35c0 20 12 33 35 58l230 274h-218c-25 0 -39 14 -39 38v24c0 24 15 37 39 37h335c24 0 39 -14 39 -38v-35c0 -20 -13 -35 -35 -60l-223 -273h235c24 0 38 -13 38 -37v-24c0 -24 -13 -38 -38 -38h-359z" />
    <glyph glyph-name="zacute" unicode="&#x17a;" horiz-adv-x="489" 
d="M135 588l-13 23c-12 18 -5 32 14 45l154 100c21 15 35 10 45 -5l24 -44c13 -21 6 -34 -13 -44l-168 -79c-19 -9 -34 -9 -43 4zM68 0c-24 0 -39 15 -39 39v35c0 20 12 33 35 58l230 274h-218c-25 0 -39 14 -39 38v24c0 24 15 37 39 37h335c24 0 39 -14 39 -38v-35
c0 -20 -13 -35 -35 -60l-223 -273h235c24 0 38 -13 38 -37v-24c0 -24 -13 -38 -38 -38h-359z" />
    <glyph glyph-name="zcaron" unicode="&#x17e;" horiz-adv-x="489" 
d="M95 662c-24 14 -33 27 -16 50l12 16c14 19 25 23 51 9l104 -55l104 55c26 14 37 10 51 -9l12 -16c17 -23 8 -36 -16 -50l-129 -78c-17 -10 -27 -10 -44 0zM427 99c24 0 38 -13 38 -37v-24c0 -24 -13 -38 -38 -38h-359c-24 0 -39 15 -39 39v35c0 20 12 33 35 58l230 274
h-218c-25 0 -39 14 -39 38v24c0 24 15 37 39 37h335c24 0 39 -14 39 -38v-35c0 -20 -13 -35 -35 -60l-223 -273h235z" />
    <glyph glyph-name="zdotaccent" unicode="&#x17c;" horiz-adv-x="489" 
d="M248 589c-48 0 -86 38 -86 86c0 47 38 86 86 86c47 0 86 -39 86 -86c0 -48 -39 -86 -86 -86zM68 0c-24 0 -39 15 -39 39v35c0 20 12 33 35 58l230 274h-218c-25 0 -39 14 -39 38v24c0 24 15 37 39 37h335c24 0 39 -14 39 -38v-35c0 -20 -13 -35 -35 -60l-223 -273h235
c24 0 38 -13 38 -37v-24c0 -24 -13 -38 -38 -38h-359z" />
    <glyph glyph-name="a.ss01" horiz-adv-x="634" 
d="M530 508c24 0 38 -14 38 -38v-431c0 -24 -14 -39 -38 -39h-37c-24 0 -38 15 -38 39v23c-41 -45 -97 -75 -169 -75c-147 0 -251 116 -251 263c0 148 104 263 251 263c67 0 125 -26 169 -66v23c0 24 14 38 38 38h37zM306 103c75 0 137 54 137 147c0 95 -62 148 -137 148
c-84 0 -139 -66 -139 -148s55 -147 139 -147z" />
    <glyph glyph-name="aacute.ss01" horiz-adv-x="634" 
d="M200 588l-13 23c-12 18 -5 32 14 45l154 100c21 15 35 10 45 -5l24 -44c13 -21 6 -34 -13 -44l-168 -79c-19 -9 -34 -9 -43 4zM530 508c24 0 38 -14 38 -38v-431c0 -24 -14 -39 -38 -39h-37c-24 0 -38 15 -38 39v23c-41 -45 -97 -75 -169 -75c-147 0 -251 116 -251 263
c0 148 104 263 251 263c67 0 125 -26 169 -66v23c0 24 14 38 38 38h37zM306 103c75 0 137 54 137 147c0 95 -62 148 -137 148c-84 0 -139 -66 -139 -148s55 -147 139 -147z" />
    <glyph glyph-name="abreve.ss01" horiz-adv-x="634" 
d="M313 577c-105 0 -158 78 -166 146c-1 19 8 34 32 34h24c26 0 33 -18 37 -34c9 -36 27 -67 73 -67s64 31 73 67c3 16 11 34 37 34h23c25 0 34 -15 32 -34c-7 -68 -61 -146 -165 -146zM530 508c24 0 38 -14 38 -38v-431c0 -24 -14 -39 -38 -39h-37c-24 0 -38 15 -38 39v23
c-41 -45 -97 -75 -169 -75c-147 0 -251 116 -251 263c0 148 104 263 251 263c67 0 125 -26 169 -66v23c0 24 14 38 38 38h37zM306 103c75 0 137 54 137 147c0 95 -62 148 -137 148c-84 0 -139 -66 -139 -148s55 -147 139 -147z" />
    <glyph glyph-name="acircumflex.ss01" horiz-adv-x="634" 
d="M156 594l-11 17c-14 20 -9 35 15 50l129 77c17 10 27 10 44 0l129 -77c24 -15 29 -30 15 -50l-11 -17c-13 -20 -25 -22 -51 -9l-104 55l-104 -55c-26 -13 -38 -11 -51 9zM530 508c24 0 38 -14 38 -38v-431c0 -24 -14 -39 -38 -39h-37c-24 0 -38 15 -38 39v23
c-41 -45 -97 -75 -169 -75c-147 0 -251 116 -251 263c0 148 104 263 251 263c67 0 125 -26 169 -66v23c0 24 14 38 38 38h37zM306 103c75 0 137 54 137 147c0 95 -62 148 -137 148c-84 0 -139 -66 -139 -148s55 -147 139 -147z" />
    <glyph glyph-name="adieresis.ss01" horiz-adv-x="634" 
d="M204 589c-46 0 -84 38 -84 84c0 47 38 84 84 84c47 0 84 -37 84 -84c0 -46 -37 -84 -84 -84zM421 589c-47 0 -85 38 -85 84c0 47 38 84 85 84c46 0 84 -37 84 -84c0 -46 -38 -84 -84 -84zM530 508c24 0 38 -14 38 -38v-431c0 -24 -14 -39 -38 -39h-37
c-24 0 -38 15 -38 39v23c-41 -45 -97 -75 -169 -75c-147 0 -251 116 -251 263c0 148 104 263 251 263c67 0 125 -26 169 -66v23c0 24 14 38 38 38h37zM306 103c75 0 137 54 137 147c0 95 -62 148 -137 148c-84 0 -139 -66 -139 -148s55 -147 139 -147z" />
    <glyph glyph-name="agrave.ss01" horiz-adv-x="634" 
d="M212 663c-19 10 -26 23 -13 44l24 44c10 15 24 20 45 5l154 -100c19 -13 26 -27 14 -45l-13 -23c-9 -13 -24 -13 -43 -4zM530 508c24 0 38 -14 38 -38v-431c0 -24 -14 -39 -38 -39h-37c-24 0 -38 15 -38 39v23c-41 -45 -97 -75 -169 -75c-147 0 -251 116 -251 263
c0 148 104 263 251 263c67 0 125 -26 169 -66v23c0 24 14 38 38 38h37zM306 103c75 0 137 54 137 147c0 95 -62 148 -137 148c-84 0 -139 -66 -139 -148s55 -147 139 -147z" />
    <glyph glyph-name="amacron.ss01" horiz-adv-x="634" 
d="M193 619c-25 0 -38 13 -38 38v14c0 25 13 38 38 38h238c25 0 39 -13 39 -38v-14c0 -25 -14 -38 -39 -38h-238zM530 508c24 0 38 -14 38 -38v-431c0 -24 -14 -39 -38 -39h-37c-24 0 -38 15 -38 39v23c-41 -45 -97 -75 -169 -75c-147 0 -251 116 -251 263
c0 148 104 263 251 263c67 0 125 -26 169 -66v23c0 24 14 38 38 38h37zM306 103c75 0 137 54 137 147c0 95 -62 148 -137 148c-84 0 -139 -66 -139 -148s55 -147 139 -147z" />
    <glyph glyph-name="aogonek.ss01" horiz-adv-x="634" 
d="M590 -166c9 -21 -2 -36 -22 -45c-87 -44 -196 2 -196 100c0 51 39 92 88 127c-3 7 -5 14 -5 23v23c-41 -45 -97 -75 -169 -75c-147 0 -251 116 -251 263c0 148 104 263 251 263c67 0 125 -26 169 -66v23c0 24 14 38 38 38h37c24 0 38 -14 38 -38v-431
c0 -24 -14 -39 -38 -39c-36 -23 -64 -61 -64 -95c0 -47 36 -59 77 -46c18 5 33 7 43 -17zM306 103c75 0 137 54 137 147c0 95 -62 148 -137 148c-84 0 -139 -66 -139 -148s55 -147 139 -147z" />
    <glyph glyph-name="aring.ss01" horiz-adv-x="634" 
d="M313 577c-68 0 -120 52 -120 116s52 116 120 116c67 0 120 -52 120 -116s-53 -116 -120 -116zM313 734c-24 0 -41 -19 -41 -41s17 -40 41 -40s40 18 40 40s-16 41 -40 41zM530 508c24 0 38 -14 38 -38v-431c0 -24 -14 -39 -38 -39h-37c-24 0 -38 15 -38 39v23
c-41 -45 -97 -75 -169 -75c-147 0 -251 116 -251 263c0 148 104 263 251 263c67 0 125 -26 169 -66v23c0 24 14 38 38 38h37zM306 103c75 0 137 54 137 147c0 95 -62 148 -137 148c-84 0 -139 -66 -139 -148s55 -147 139 -147z" />
    <glyph glyph-name="atilde.ss01" horiz-adv-x="634" 
d="M154 577c-22 0 -34 7 -34 26c0 78 43 123 100 123c69 0 117 -57 168 -57c21 0 29 11 29 31c0 19 11 26 33 26h19c22 0 33 -7 33 -26c0 -78 -42 -123 -98 -123c-70 0 -123 57 -170 57c-21 0 -28 -12 -28 -31s-12 -26 -34 -26h-18zM530 508c24 0 38 -14 38 -38v-431
c0 -24 -14 -39 -38 -39h-37c-24 0 -38 15 -38 39v23c-41 -45 -97 -75 -169 -75c-147 0 -251 116 -251 263c0 148 104 263 251 263c67 0 125 -26 169 -66v23c0 24 14 38 38 38h37zM306 103c75 0 137 54 137 147c0 95 -62 148 -137 148c-84 0 -139 -66 -139 -148
s55 -147 139 -147z" />
    <glyph glyph-name="d.ss01" horiz-adv-x="659" 
d="M647 48c9 -24 1 -34 -13 -42c-26 -15 -55 -19 -76 -19c-50 0 -88 28 -100 78c-41 -46 -99 -78 -172 -78c-147 0 -251 116 -251 263c0 148 104 263 251 263c57 0 108 -19 149 -49v200c0 23 13 33 37 39l56 10c27 5 40 -11 40 -37v-557c0 -11 2 -19 13 -19c8 0 15 4 24 5
c15 4 25 -4 31 -22zM306 103c75 0 137 54 137 147c0 95 -62 148 -137 148c-84 0 -139 -66 -139 -148s55 -147 139 -147z" />
    <glyph glyph-name="dcaron.ss01" horiz-adv-x="695" 
d="M636 83l11 -35c9 -24 1 -34 -13 -42c-26 -14 -55 -19 -76 -19c-50 0 -88 27 -102 77c-40 -46 -98 -77 -170 -77c-147 0 -251 116 -251 263c0 148 104 263 251 263c57 0 108 -19 149 -49v200c0 23 13 33 37 39l56 10c27 5 40 -11 40 -37v-557c0 -11 2 -19 13 -19
c8 0 15 4 24 5c15 4 25 -4 31 -22zM721 714c27 0 34 -15 27 -36l-48 -141c-9 -26 -20 -32 -37 -32h-21c-23 0 -30 13 -27 34l20 142c4 29 19 33 40 33h46zM306 103c75 0 137 54 137 147c0 95 -62 148 -137 148c-84 0 -139 -66 -139 -148s55 -147 139 -147z" />
    <glyph glyph-name="dcroat.ss01" horiz-adv-x="659" 
d="M647 48c9 -24 1 -34 -13 -42c-26 -15 -55 -19 -76 -19c-50 0 -88 27 -102 77c-40 -46 -98 -77 -170 -77c-147 0 -251 116 -251 263c0 148 104 263 251 263c57 0 108 -19 149 -49v94h-118c-25 0 -39 9 -39 31v5c0 22 14 31 39 31h118v39c0 23 13 33 37 39l56 10
c27 5 40 -11 40 -37v-51h41c25 0 38 -9 38 -31v-5c0 -22 -13 -31 -38 -31h-41v-439c0 -11 2 -19 13 -19c8 0 15 4 24 5c15 4 25 -4 31 -22zM306 103c75 0 137 54 137 147c0 95 -62 148 -137 148c-84 0 -139 -66 -139 -148s55 -147 139 -147z" />
    <glyph glyph-name="e.ss01" horiz-adv-x="573" 
d="M497 133l23 -24c19 -19 12 -34 0 -46c-51 -52 -140 -76 -210 -76c-155 0 -275 103 -275 262c0 152 113 264 273 264c141 0 231 -68 231 -168c0 -94 -92 -158 -233 -158c-51 0 -91 4 -132 11c19 -69 75 -110 147 -110c40 0 84 11 127 45c18 14 32 17 49 0zM307 415
c-70 0 -133 -48 -140 -141c41 -9 80 -13 139 -13c67 0 108 28 108 73c0 49 -41 81 -107 81z" />
    <glyph glyph-name="eacute.ss01" horiz-adv-x="573" 
d="M199 588l-13 23c-12 18 -5 32 14 45l154 100c21 15 35 10 45 -5l24 -44c13 -21 6 -34 -13 -44l-168 -79c-19 -9 -34 -9 -43 4zM497 133l23 -24c19 -19 12 -34 0 -46c-51 -52 -140 -76 -210 -76c-155 0 -275 103 -275 262c0 152 113 264 273 264c141 0 231 -68 231 -168
c0 -94 -92 -158 -233 -158c-51 0 -91 4 -132 11c19 -69 75 -110 147 -110c40 0 84 11 127 45c18 14 32 17 49 0zM307 415c-70 0 -133 -48 -140 -141c41 -9 80 -13 139 -13c67 0 108 28 108 73c0 49 -41 81 -107 81z" />
    <glyph glyph-name="ecaron.ss01" horiz-adv-x="573" 
d="M159 662c-24 14 -33 27 -16 50l12 16c14 19 25 23 51 9l104 -55l104 55c26 14 37 10 51 -9l12 -16c17 -23 8 -36 -16 -50l-129 -78c-17 -10 -27 -10 -44 0zM497 133l23 -24c19 -19 12 -34 0 -46c-51 -52 -140 -76 -210 -76c-155 0 -275 103 -275 262
c0 152 113 264 273 264c141 0 231 -68 231 -168c0 -94 -92 -158 -233 -158c-51 0 -91 4 -132 11c19 -69 75 -110 147 -110c40 0 84 11 127 45c18 14 32 17 49 0zM307 415c-70 0 -133 -48 -140 -141c41 -9 80 -13 139 -13c67 0 108 28 108 73c0 49 -41 81 -107 81z" />
    <glyph glyph-name="ecircumflex.ss01" horiz-adv-x="573" 
d="M155 594l-11 17c-14 20 -9 35 15 50l129 77c17 10 27 10 44 0l129 -77c24 -15 29 -30 15 -50l-11 -17c-13 -20 -25 -22 -51 -9l-104 55l-104 -55c-26 -13 -38 -11 -51 9zM497 133l23 -24c19 -19 12 -34 0 -46c-51 -52 -140 -76 -210 -76c-155 0 -275 103 -275 262
c0 152 113 264 273 264c141 0 231 -68 231 -168c0 -94 -92 -158 -233 -158c-51 0 -91 4 -132 11c19 -69 75 -110 147 -110c40 0 84 11 127 45c18 14 32 17 49 0zM307 415c-70 0 -133 -48 -140 -141c41 -9 80 -13 139 -13c67 0 108 28 108 73c0 49 -41 81 -107 81z" />
    <glyph glyph-name="edieresis.ss01" horiz-adv-x="573" 
d="M203 589c-46 0 -84 38 -84 84c0 47 38 84 84 84c47 0 84 -37 84 -84c0 -46 -37 -84 -84 -84zM420 589c-47 0 -85 38 -85 84c0 47 38 84 85 84c46 0 84 -37 84 -84c0 -46 -38 -84 -84 -84zM497 133l23 -24c19 -19 12 -34 0 -46c-51 -52 -140 -76 -210 -76
c-155 0 -275 103 -275 262c0 152 113 264 273 264c141 0 231 -68 231 -168c0 -94 -92 -158 -233 -158c-51 0 -91 4 -132 11c19 -69 75 -110 147 -110c40 0 84 11 127 45c18 14 32 17 49 0zM307 415c-70 0 -133 -48 -140 -141c41 -9 80 -13 139 -13c67 0 108 28 108 73
c0 49 -41 81 -107 81z" />
    <glyph glyph-name="edotaccent.ss01" horiz-adv-x="573" 
d="M312 589c-48 0 -86 38 -86 86c0 47 38 86 86 86c47 0 86 -39 86 -86c0 -48 -39 -86 -86 -86zM497 133l23 -24c19 -19 12 -34 0 -46c-51 -52 -140 -76 -210 -76c-155 0 -275 103 -275 262c0 152 113 264 273 264c141 0 231 -68 231 -168c0 -94 -92 -158 -233 -158
c-51 0 -91 4 -132 11c19 -69 75 -110 147 -110c40 0 84 11 127 45c18 14 32 17 49 0zM307 415c-70 0 -133 -48 -140 -141c41 -9 80 -13 139 -13c67 0 108 28 108 73c0 49 -41 81 -107 81z" />
    <glyph glyph-name="egrave.ss01" horiz-adv-x="573" 
d="M211 663c-19 10 -26 23 -13 44l24 44c10 15 24 20 45 5l154 -100c19 -13 26 -27 14 -45l-13 -23c-9 -13 -24 -13 -43 -4zM497 133l23 -24c19 -19 12 -34 0 -46c-51 -52 -140 -76 -210 -76c-155 0 -275 103 -275 262c0 152 113 264 273 264c141 0 231 -68 231 -168
c0 -94 -92 -158 -233 -158c-51 0 -91 4 -132 11c19 -69 75 -110 147 -110c40 0 84 11 127 45c18 14 32 17 49 0zM307 415c-70 0 -133 -48 -140 -141c41 -9 80 -13 139 -13c67 0 108 28 108 73c0 49 -41 81 -107 81z" />
    <glyph glyph-name="emacron.ss01" horiz-adv-x="573" 
d="M192 619c-25 0 -38 13 -38 38v14c0 25 13 38 38 38h238c25 0 39 -13 39 -38v-14c0 -25 -14 -38 -39 -38h-238zM497 133l23 -24c19 -19 12 -34 0 -46c-51 -52 -140 -76 -210 -76c-155 0 -275 103 -275 262c0 152 113 264 273 264c141 0 231 -68 231 -168
c0 -94 -92 -158 -233 -158c-51 0 -91 4 -132 11c19 -69 75 -110 147 -110c40 0 84 11 127 45c18 14 32 17 49 0zM307 415c-70 0 -133 -48 -140 -141c41 -9 80 -13 139 -13c67 0 108 28 108 73c0 49 -41 81 -107 81z" />
    <glyph glyph-name="eogonek.ss01" horiz-adv-x="573" 
d="M497 133l23 -24c19 -19 12 -34 0 -46c-26 -26 -61 -45 -98 -58c-23 -21 -38 -49 -38 -74c0 -47 36 -59 77 -46c18 5 33 7 43 -17l4 -8c9 -21 -2 -36 -22 -45c-87 -44 -196 2 -196 100c0 26 10 50 27 72h-7c-155 0 -275 103 -275 262c0 152 113 264 273 264
c141 0 231 -68 231 -168c0 -94 -92 -158 -233 -158c-51 0 -91 4 -132 11c19 -69 75 -110 147 -110c40 0 84 11 127 45c18 14 32 17 49 0zM307 415c-70 0 -133 -48 -140 -141c41 -9 80 -13 139 -13c67 0 108 28 108 73c0 49 -41 81 -107 81z" />
    <glyph glyph-name="g.ss01" horiz-adv-x="642" 
d="M615 496c17 -9 21 -22 14 -43l-9 -42c-7 -21 -18 -26 -29 -22c-9 1 -20 7 -29 7c-8 0 -13 -5 -13 -16v-327c0 -168 -120 -245 -267 -245c-103 0 -178 37 -231 94c-15 15 -18 34 1 53l22 26c14 13 32 18 52 -1c34 -37 86 -68 157 -68c77 0 143 39 143 124v58
c-40 -32 -92 -52 -151 -52c-137 0 -240 101 -240 235c0 135 103 236 241 236c67 0 124 -25 165 -64c17 45 59 64 104 64c21 0 49 -5 70 -17zM301 144c79 0 133 56 133 133c0 78 -55 134 -134 134c-78 0 -133 -56 -133 -134c0 -77 54 -133 134 -133z" />
    <glyph glyph-name="gbreve.ss01" horiz-adv-x="642" 
d="M304 577c-105 0 -158 78 -166 146c-1 19 8 34 32 34h24c26 0 33 -18 37 -34c9 -36 27 -67 73 -67s64 31 73 67c3 16 11 34 37 34h23c25 0 34 -15 32 -34c-7 -68 -61 -146 -165 -146zM615 496c17 -9 21 -22 14 -43l-9 -42c-7 -21 -18 -26 -29 -22c-9 1 -20 7 -29 7
c-8 0 -13 -5 -13 -16v-327c0 -168 -120 -245 -267 -245c-103 0 -178 37 -231 94c-15 15 -18 34 1 53l22 26c14 13 32 18 52 -1c34 -37 86 -68 157 -68c77 0 143 39 143 124v58c-40 -32 -92 -52 -151 -52c-137 0 -240 101 -240 235c0 135 103 236 241 236
c67 0 124 -25 165 -64c17 45 59 64 104 64c21 0 49 -5 70 -17zM301 144c79 0 133 56 133 133c0 78 -55 134 -134 134c-78 0 -133 -56 -133 -134c0 -77 54 -133 134 -133z" />
    <glyph glyph-name="uni0123.ss01" horiz-adv-x="642" 
d="M281 576c-27 0 -35 14 -27 35l46 135c9 26 20 32 37 32h21c23 0 31 -13 28 -34l-19 -135c-5 -29 -17 -33 -40 -33h-46zM615 496c17 -9 21 -22 14 -43l-9 -42c-7 -21 -18 -26 -29 -22c-9 1 -20 7 -29 7c-8 0 -13 -5 -13 -16v-327c0 -168 -120 -245 -267 -245
c-103 0 -178 37 -231 94c-15 15 -18 34 1 53l22 26c14 13 32 18 52 -1c34 -37 86 -68 157 -68c77 0 143 39 143 124v58c-40 -32 -92 -52 -151 -52c-137 0 -240 101 -240 235c0 135 103 236 241 236c67 0 124 -25 165 -64c17 45 59 64 104 64c21 0 49 -5 70 -17zM301 144
c79 0 133 56 133 133c0 78 -55 134 -134 134c-78 0 -133 -56 -133 -134c0 -77 54 -133 134 -133z" />
    <glyph glyph-name="gdotaccent.ss01" horiz-adv-x="642" 
d="M303 589c-48 0 -86 38 -86 86c0 47 38 86 86 86c47 0 86 -39 86 -86c0 -48 -39 -86 -86 -86zM615 496c17 -9 21 -22 14 -43l-9 -42c-7 -21 -18 -26 -29 -22c-9 1 -20 7 -29 7c-8 0 -13 -5 -13 -16v-327c0 -168 -120 -245 -267 -245c-103 0 -178 37 -231 94
c-15 15 -18 34 1 53l22 26c14 13 32 18 52 -1c34 -37 86 -68 157 -68c77 0 143 39 143 124v58c-40 -32 -92 -52 -151 -52c-137 0 -240 101 -240 235c0 135 103 236 241 236c67 0 124 -25 165 -64c17 45 59 64 104 64c21 0 49 -5 70 -17zM301 144c79 0 133 56 133 133
c0 78 -55 134 -134 134c-78 0 -133 -56 -133 -134c0 -77 54 -133 134 -133z" />
    <glyph glyph-name="i.ss01" horiz-adv-x="292" 
d="M132 589c-48 0 -86 38 -86 86c0 47 38 86 86 86c47 0 86 -39 86 -86c0 -48 -39 -86 -86 -86zM189 -13c-79 0 -124 44 -124 129v351c0 24 14 38 38 38h58c24 0 37 -14 37 -38v-344c0 -11 3 -19 14 -19c6 0 14 2 21 5c16 6 27 -1 34 -22l12 -39c8 -23 2 -33 -13 -41
c-27 -16 -54 -20 -77 -20z" />
    <glyph glyph-name="dotlessi.ss01" horiz-adv-x="292" 
d="M189 -13c-79 0 -124 44 -124 129v351c0 24 14 38 38 38h58c24 0 37 -14 37 -38v-344c0 -11 3 -19 14 -19c6 0 14 2 21 5c16 6 27 -1 34 -22l12 -39c8 -23 2 -33 -13 -41c-27 -16 -54 -20 -77 -20z" />
    <glyph glyph-name="iacute.ss01" horiz-adv-x="292" 
d="M20 588l-13 23c-12 18 -5 32 14 45l154 100c21 15 35 10 45 -5l24 -44c13 -21 6 -34 -13 -44l-168 -79c-19 -9 -34 -9 -43 4zM189 -13c-79 0 -124 44 -124 129v351c0 24 14 38 38 38h58c24 0 37 -14 37 -38v-344c0 -11 3 -19 14 -19c6 0 14 2 21 5c16 6 27 -1 34 -22
l12 -39c8 -23 2 -33 -13 -41c-27 -16 -54 -20 -77 -20z" />
    <glyph glyph-name="icircumflex.ss01" horiz-adv-x="292" 
d="M281 661c24 -15 29 -30 15 -50l-11 -17c-13 -20 -25 -22 -51 -9l-104 55l-104 -55c-27 -13 -38 -11 -51 9l-12 17c-13 20 -9 35 15 50l130 77c17 10 27 10 44 0zM267 87l12 -39c8 -23 2 -33 -13 -41c-27 -16 -54 -20 -77 -20c-79 0 -124 44 -124 129v351
c0 24 14 38 38 38h58c24 0 37 -14 37 -38v-344c0 -11 3 -19 14 -19c6 0 14 2 21 5c16 6 27 -1 34 -22z" />
    <glyph glyph-name="idieresis.ss01" horiz-adv-x="292" 
d="M24 589c-47 0 -85 38 -85 84c0 47 38 84 85 84s84 -37 84 -84c0 -46 -37 -84 -84 -84zM241 589c-47 0 -85 38 -85 84c0 47 38 84 85 84c46 0 84 -37 84 -84c0 -46 -38 -84 -84 -84zM189 -13c-79 0 -124 44 -124 129v351c0 24 14 38 38 38h58c24 0 37 -14 37 -38v-344
c0 -11 3 -19 14 -19c6 0 14 2 21 5c16 6 27 -1 34 -22l12 -39c8 -23 2 -33 -13 -41c-27 -16 -54 -20 -77 -20z" />
    <glyph glyph-name="i.loclTRK.ss01" horiz-adv-x="292" 
d="M132 589c-48 0 -86 38 -86 86c0 47 38 86 86 86c47 0 86 -39 86 -86c0 -48 -39 -86 -86 -86zM189 -13c-79 0 -124 44 -124 129v351c0 24 14 38 38 38h58c24 0 37 -14 37 -38v-344c0 -11 3 -19 14 -19c6 0 14 2 21 5c16 6 27 -1 34 -22l12 -39c8 -23 2 -33 -13 -41
c-27 -16 -54 -20 -77 -20z" />
    <glyph glyph-name="igrave.ss01" horiz-adv-x="292" 
d="M243 588c-9 -13 -24 -13 -43 -4l-168 79c-19 10 -26 23 -13 44l24 44c10 15 24 20 45 5l154 -100c19 -13 26 -27 14 -45zM189 -13c-79 0 -124 44 -124 129v351c0 24 14 38 38 38h58c24 0 37 -14 37 -38v-344c0 -11 3 -19 14 -19c6 0 14 2 21 5c16 6 27 -1 34 -22l12 -39
c8 -23 2 -33 -13 -41c-27 -16 -54 -20 -77 -20z" />
    <glyph glyph-name="ij.ss01" horiz-adv-x="554" 
d="M132 589c-48 0 -86 38 -86 86c0 47 38 86 86 86c47 0 86 -39 86 -86c0 -48 -39 -86 -86 -86zM409 589c-48 0 -86 38 -86 86c0 47 38 86 86 86c47 0 86 -39 86 -86c0 -48 -39 -86 -86 -86zM189 -13c-79 0 -124 44 -124 129v351c0 24 14 38 38 38h58c24 0 37 -14 37 -38
v-344c0 -11 3 -19 14 -19c6 0 14 2 21 5c16 6 27 -1 34 -22l12 -39c8 -23 2 -33 -13 -41c-27 -16 -54 -20 -77 -20zM351 -184c-22 -11 -43 -7 -54 15l-21 39c-11 22 -6 41 17 54c52 29 62 51 62 138v343h-38c-24 0 -38 14 -38 38v25c0 24 14 37 38 37h134
c24 0 37 -13 37 -37v-408c0 -138 -25 -189 -137 -244z" />
    <glyph glyph-name="imacron.ss01" horiz-adv-x="292" 
d="M13 619c-25 0 -39 13 -39 38v14c0 25 14 38 39 38h238c25 0 39 -13 39 -38v-14c0 -25 -14 -38 -39 -38h-238zM189 -13c-79 0 -124 44 -124 129v351c0 24 14 38 38 38h58c24 0 37 -14 37 -38v-344c0 -11 3 -19 14 -19c6 0 14 2 21 5c16 6 27 -1 34 -22l12 -39
c8 -23 2 -33 -13 -41c-27 -16 -54 -20 -77 -20z" />
    <glyph glyph-name="iogonek.ss01" horiz-adv-x="292" 
d="M132 589c-48 0 -86 38 -86 86c0 47 38 86 86 86c47 0 86 -39 86 -86c0 -48 -39 -86 -86 -86zM293 -159c9 -21 -2 -36 -22 -45c-87 -44 -196 2 -196 100c0 39 23 72 55 101c-42 18 -65 58 -65 119v351c0 24 14 38 38 38h58c24 0 37 -14 37 -38v-344c0 -11 3 -19 14 -19
c6 0 14 2 21 5c16 6 27 -1 34 -22l12 -39c8 -23 2 -33 -13 -41c-20 -12 -39 -17 -57 -19c-24 -22 -40 -50 -40 -76c0 -47 36 -59 77 -46c18 5 33 7 43 -17z" />
    <glyph glyph-name="itilde.ss01" horiz-adv-x="292" 
d="M-10 577c-20 0 -31 7 -31 26c0 78 39 123 91 123c61 0 104 -57 151 -57c19 0 25 11 25 31c0 19 11 26 31 26h16c20 0 30 -7 30 -26c0 -78 -37 -123 -88 -123c-63 0 -111 57 -153 57c-19 0 -25 -12 -25 -31s-11 -26 -31 -26h-16zM189 -13c-79 0 -124 44 -124 129v351
c0 24 14 38 38 38h58c24 0 37 -14 37 -38v-344c0 -11 3 -19 14 -19c6 0 14 2 21 5c16 6 27 -1 34 -22l12 -39c8 -23 2 -33 -13 -41c-27 -16 -54 -20 -77 -20z" />
    <glyph glyph-name="j.ss01" horiz-adv-x="298" 
d="M153 589c-48 0 -86 38 -86 86c0 47 38 86 86 86c47 0 86 -39 86 -86c0 -48 -39 -86 -86 -86zM95 -184c-22 -11 -43 -7 -54 15l-21 39c-11 22 -6 41 17 54c52 29 62 51 62 138v343h-38c-24 0 -38 14 -38 38v25c0 24 14 37 38 37h134c24 0 37 -13 37 -37v-408
c0 -138 -25 -189 -137 -244z" />
    <glyph glyph-name="uni0237.ss01" horiz-adv-x="298" 
d="M95 -184c-22 -11 -43 -7 -54 15l-21 39c-11 22 -6 41 17 54c52 29 62 51 62 138v343h-38c-24 0 -38 14 -38 38v25c0 24 14 37 38 37h134c24 0 37 -13 37 -37v-408c0 -138 -25 -189 -137 -244z" />
    <glyph glyph-name="uni006A0301.ss01" horiz-adv-x="298" 
d="M28 588l-13 23c-12 18 -5 32 14 45l154 100c21 15 35 10 45 -5l24 -44c13 -21 6 -34 -13 -44l-168 -79c-19 -9 -34 -9 -43 4zM95 -184c-22 -11 -43 -7 -54 15l-21 39c-11 22 -6 41 17 54c52 29 62 51 62 138v343h-38c-24 0 -38 14 -38 38v25c0 24 14 37 38 37h134
c24 0 37 -13 37 -37v-408c0 -138 -25 -189 -137 -244z" />
    <glyph glyph-name="k.ss01" horiz-adv-x="562" 
d="M554 45c8 -23 0 -35 -13 -42c-26 -13 -47 -16 -67 -16c-52 0 -89 24 -114 61l-113 159l-48 -53v-115c0 -24 -13 -39 -37 -39h-57c-24 0 -38 15 -38 39v625c0 23 13 33 38 39l54 10c27 6 40 -11 40 -37v-401l170 193c20 24 32 37 57 37h74c23 0 38 -17 19 -39l-173 -190
l108 -154c11 -15 21 -22 31 -23c8 -2 15 0 24 3c19 7 29 0 35 -20z" />
    <glyph glyph-name="uni0137.ss01" horiz-adv-x="562" 
d="M554 45c8 -23 0 -35 -13 -42c-26 -13 -47 -16 -67 -16c-52 0 -89 24 -114 61l-113 159l-48 -53v-115c0 -24 -13 -39 -37 -39h-57c-24 0 -38 15 -38 39v625c0 23 13 33 38 39l54 10c27 6 40 -11 40 -37v-401l170 193c20 24 32 37 57 37h74c23 0 38 -17 19 -39l-173 -190
l108 -154c11 -15 21 -22 31 -23c8 -2 15 0 24 3c19 7 29 0 35 -20zM318 -59c27 0 35 -15 27 -36l-45 -130c-9 -26 -20 -33 -37 -33h-22c-23 0 -30 13 -27 35l18 131c4 28 17 33 40 33h46z" />
    <glyph glyph-name="l.ss01" horiz-adv-x="294" 
d="M190 -13c-78 0 -123 44 -123 128v549c0 23 13 34 37 39l56 11c27 6 40 -12 40 -38v-553c0 -11 2 -19 14 -19c5 0 13 2 20 5c17 6 27 -1 35 -22l11 -39c9 -23 3 -33 -12 -41c-27 -16 -55 -20 -78 -20z" />
    <glyph glyph-name="lacute.ss01" horiz-adv-x="294" 
d="M10 766l-10 15c-15 22 -8 36 14 49l154 97c30 19 42 12 54 -9l22 -37c16 -27 8 -38 -20 -50l-164 -74c-26 -11 -39 -9 -50 9zM190 -13c-78 0 -123 44 -123 128v549c0 23 13 34 37 39l56 11c27 6 40 -12 40 -38v-553c0 -11 2 -19 14 -19c5 0 13 2 20 5c17 6 27 -1 35 -22
l11 -39c9 -23 3 -33 -12 -41c-27 -16 -55 -20 -78 -20z" />
    <glyph glyph-name="lcaron.ss01" horiz-adv-x="322" 
d="M190 -13c-78 0 -123 44 -123 128v549c0 23 13 34 37 39l56 11c27 6 40 -12 40 -38v-553c0 -11 2 -19 14 -19c5 0 13 2 20 5c17 6 27 -1 35 -22l11 -39c9 -23 3 -33 -12 -41c-27 -16 -55 -20 -78 -20zM268 506c-23 0 -30 13 -27 34l20 142c4 29 19 33 40 33h46
c27 0 34 -15 27 -36l-48 -141c-9 -26 -20 -32 -37 -32h-21z" />
    <glyph glyph-name="uni013C.ss01" horiz-adv-x="294" 
d="M190 -13c-78 0 -123 44 -123 128v549c0 23 13 34 37 39l56 11c27 6 40 -12 40 -38v-553c0 -11 2 -19 14 -19c5 0 13 2 20 5c17 6 27 -1 35 -22l11 -39c9 -23 3 -33 -12 -41c-27 -16 -55 -20 -78 -20zM125 -258c-23 0 -30 13 -27 35l18 131c4 28 17 33 40 33h46
c27 0 35 -15 27 -36l-45 -130c-9 -26 -20 -33 -37 -33h-22z" />
    <glyph glyph-name="ldot.ss01" horiz-adv-x="377" 
d="M190 -13c-78 0 -123 44 -123 128v549c0 23 13 34 37 39l56 11c27 6 40 -12 40 -38v-553c0 -11 2 -19 14 -19c5 0 13 2 20 5c17 6 27 -1 35 -22l11 -39c9 -23 3 -33 -12 -41c-27 -16 -55 -20 -78 -20zM314 286c-44 0 -79 36 -79 79c0 44 35 80 79 80s80 -36 80 -80
c0 -43 -36 -79 -80 -79z" />
    <glyph glyph-name="lslash.ss01" horiz-adv-x="371" 
d="M295 463c31 17 46 2 46 -29v-20c0 -27 -10 -35 -34 -48l-62 -33v-210c0 -11 3 -19 14 -19c6 0 14 2 21 5c16 6 27 -1 34 -22l12 -39c8 -23 2 -33 -13 -41c-27 -16 -54 -20 -77 -20c-79 0 -124 44 -124 128v147l-47 -25c-31 -17 -46 -2 -46 29v20c0 27 10 35 34 48l59 31
v299c0 23 13 34 38 39l55 11c27 6 40 -12 40 -38v-240z" />
    <glyph glyph-name="m.ss01" horiz-adv-x="967" 
d="M702 513c124 0 205 -86 205 -214v-260c0 -24 -14 -39 -38 -39h-58c-24 0 -37 15 -37 39v250c0 67 -37 110 -100 110s-107 -43 -107 -110v-250c0 -24 -13 -39 -37 -39h-58c-24 0 -38 15 -38 39v250c0 67 -37 110 -100 110s-107 -43 -107 -110v-250c0 -24 -13 -39 -37 -39
h-58c-24 0 -38 15 -38 39v341c0 11 -4 16 -13 16s-19 -6 -28 -7c-12 -4 -23 1 -29 22l-10 42c-7 21 -3 34 15 43c20 12 49 17 69 17c51 0 96 -24 108 -83c33 49 87 83 161 83c73 0 129 -30 163 -80c37 48 96 80 172 80z" />
    <glyph glyph-name="n.ss01" horiz-adv-x="639" 
d="M371 513c125 0 207 -88 207 -214v-260c0 -24 -14 -39 -38 -39h-58c-24 0 -37 15 -37 39v250c0 65 -39 110 -106 110c-63 0 -108 -43 -108 -110v-250c0 -24 -14 -39 -38 -39h-58c-24 0 -37 15 -37 39v341c0 11 -5 16 -13 16c-9 0 -20 -6 -29 -7c-11 -4 -22 1 -29 22l-9 42
c-7 21 -3 34 14 43c21 12 49 17 70 17c51 0 96 -24 107 -83c34 49 87 83 162 83z" />
    <glyph glyph-name="nacute.ss01" horiz-adv-x="639" 
d="M229 588l-13 23c-12 18 -5 32 14 45l154 100c21 15 35 10 45 -5l24 -44c13 -21 6 -34 -13 -44l-168 -79c-19 -9 -34 -9 -43 4zM371 513c125 0 207 -88 207 -214v-260c0 -24 -14 -39 -38 -39h-58c-24 0 -37 15 -37 39v250c0 65 -39 110 -106 110c-63 0 -108 -43 -108 -110
v-250c0 -24 -14 -39 -38 -39h-58c-24 0 -37 15 -37 39v341c0 11 -5 16 -13 16c-9 0 -20 -6 -29 -7c-11 -4 -22 1 -29 22l-9 42c-7 21 -3 34 14 43c21 12 49 17 70 17c51 0 96 -24 107 -83c34 49 87 83 162 83z" />
    <glyph glyph-name="ncaron.ss01" horiz-adv-x="639" 
d="M189 662c-24 14 -33 27 -16 50l12 16c14 19 25 23 51 9l104 -55l104 55c26 14 37 10 51 -9l12 -16c17 -23 8 -36 -16 -50l-129 -78c-17 -10 -27 -10 -44 0zM371 513c125 0 207 -88 207 -214v-260c0 -24 -14 -39 -38 -39h-58c-24 0 -37 15 -37 39v250
c0 65 -39 110 -106 110c-63 0 -108 -43 -108 -110v-250c0 -24 -14 -39 -38 -39h-58c-24 0 -37 15 -37 39v341c0 11 -5 16 -13 16c-9 0 -20 -6 -29 -7c-11 -4 -22 1 -29 22l-9 42c-7 21 -3 34 14 43c21 12 49 17 70 17c51 0 96 -24 107 -83c34 49 87 83 162 83z" />
    <glyph glyph-name="uni0146.ss01" horiz-adv-x="639" 
d="M371 513c125 0 207 -88 207 -214v-260c0 -24 -14 -39 -38 -39h-58c-24 0 -37 15 -37 39v250c0 65 -39 110 -106 110c-63 0 -108 -43 -108 -110v-250c0 -24 -14 -39 -38 -39h-58c-24 0 -37 15 -37 39v341c0 11 -5 16 -13 16c-9 0 -20 -6 -29 -7c-11 -4 -22 1 -29 22l-9 42
c-7 21 -3 34 14 43c21 12 49 17 70 17c51 0 96 -24 107 -83c34 49 87 83 162 83zM358 -59c27 0 35 -15 27 -36l-45 -130c-9 -26 -20 -33 -37 -33h-22c-23 0 -30 13 -27 35l18 131c4 28 17 33 40 33h46z" />
    <glyph glyph-name="eng.ss01" horiz-adv-x="639" 
d="M371 513c125 0 207 -88 207 -214v-215c0 -137 -28 -191 -139 -244c-21 -10 -39 -6 -51 15l-22 42c-11 21 -6 39 15 51c52 29 64 51 64 139v202c0 65 -39 110 -106 110c-63 0 -108 -43 -108 -110v-251c0 -24 -14 -38 -38 -38h-58c-24 0 -37 14 -37 38v342
c0 11 -5 16 -13 16c-9 0 -20 -6 -29 -7c-11 -4 -22 1 -29 22l-9 42c-7 21 -3 34 14 43c21 12 49 17 70 17c51 0 96 -24 107 -83c34 49 87 83 162 83z" />
    <glyph glyph-name="ntilde.ss01" horiz-adv-x="639" 
d="M183 577c-22 0 -34 7 -34 26c0 78 43 123 100 123c69 0 117 -57 168 -57c21 0 29 11 29 31c0 19 11 26 33 26h19c22 0 33 -7 33 -26c0 -78 -42 -123 -98 -123c-70 0 -123 57 -170 57c-21 0 -28 -12 -28 -31s-12 -26 -34 -26h-18zM371 513c125 0 207 -88 207 -214v-260
c0 -24 -14 -39 -38 -39h-58c-24 0 -37 15 -37 39v250c0 65 -39 110 -106 110c-63 0 -108 -43 -108 -110v-250c0 -24 -14 -39 -38 -39h-58c-24 0 -37 15 -37 39v341c0 11 -5 16 -13 16c-9 0 -20 -6 -29 -7c-11 -4 -22 1 -29 22l-9 42c-7 21 -3 34 14 43c21 12 49 17 70 17
c51 0 96 -24 107 -83c34 49 87 83 162 83z" />
    <glyph glyph-name="p.ss01" horiz-adv-x="666" 
d="M380 513c146 0 251 -116 251 -263c0 -146 -104 -263 -251 -263c-59 0 -109 19 -149 51v-190c0 -24 -14 -38 -38 -38h-58c-24 0 -37 14 -37 38v532c0 11 -5 16 -13 16c-9 0 -20 -6 -29 -7c-11 -4 -22 1 -29 22l-9 42c-7 21 -3 34 14 43c21 12 49 17 70 17
c48 0 90 -21 105 -72c43 44 102 72 173 72zM360 103c84 0 139 65 139 147s-55 148 -139 148c-76 0 -138 -53 -138 -148c0 -94 62 -147 138 -147z" />
    <glyph glyph-name="q.ss01" horiz-adv-x="664" 
d="M634 496c17 -9 21 -22 14 -43l-9 -42c-7 -21 -18 -26 -29 -22c-9 1 -20 7 -29 7c-8 0 -13 -5 -13 -16v-532c0 -24 -13 -38 -37 -38h-58c-24 0 -38 14 -38 38v189c-39 -31 -90 -50 -149 -50c-147 0 -251 116 -251 263c0 148 105 263 251 263c71 0 130 -28 173 -72
c15 51 57 72 105 72c21 0 49 -5 70 -17zM306 103c76 0 138 53 138 147c0 95 -62 148 -138 148c-84 0 -139 -66 -139 -148s55 -147 139 -147z" />
    <glyph glyph-name="r.ss01" horiz-adv-x="433" 
d="M409 504c15 -5 29 -13 21 -40l-13 -50c-7 -25 -23 -28 -39 -23c-14 5 -30 8 -45 8c-65 0 -102 -50 -102 -122v-238c0 -24 -14 -39 -38 -39h-58c-24 0 -37 15 -37 39v341c0 11 -5 16 -13 16c-9 0 -20 -6 -29 -7c-11 -4 -22 1 -29 22l-9 42c-7 21 -3 34 14 43
c21 12 49 17 70 17c48 0 91 -22 105 -74c30 46 76 74 139 74c24 0 43 -3 63 -9z" />
    <glyph glyph-name="racute.ss01" horiz-adv-x="433" 
d="M103 588l-13 23c-12 18 -5 32 14 45l154 100c21 15 35 10 45 -5l24 -44c13 -21 6 -34 -13 -44l-168 -79c-19 -9 -34 -9 -43 4zM409 504c15 -5 29 -13 21 -40l-13 -50c-7 -25 -23 -28 -39 -23c-14 5 -30 8 -45 8c-65 0 -102 -50 -102 -122v-238c0 -24 -14 -39 -38 -39h-58
c-24 0 -37 15 -37 39v341c0 11 -5 16 -13 16c-9 0 -20 -6 -29 -7c-11 -4 -22 1 -29 22l-9 42c-7 21 -3 34 14 43c21 12 49 17 70 17c48 0 91 -22 105 -74c30 46 76 74 139 74c24 0 43 -3 63 -9z" />
    <glyph glyph-name="rcaron.ss01" horiz-adv-x="433" 
d="M63 662c-24 14 -33 27 -16 50l12 16c14 19 25 23 51 9l104 -55l104 55c26 14 37 10 51 -9l12 -16c17 -23 8 -36 -16 -50l-129 -78c-17 -10 -27 -10 -44 0zM409 504c15 -5 29 -13 21 -40l-13 -50c-7 -25 -23 -28 -39 -23c-14 5 -30 8 -45 8c-65 0 -102 -50 -102 -122v-238
c0 -24 -14 -39 -38 -39h-58c-24 0 -37 15 -37 39v341c0 11 -5 16 -13 16c-9 0 -20 -6 -29 -7c-11 -4 -22 1 -29 22l-9 42c-7 21 -3 34 14 43c21 12 49 17 70 17c48 0 91 -22 105 -74c30 46 76 74 139 74c24 0 43 -3 63 -9z" />
    <glyph glyph-name="uni0157.ss01" horiz-adv-x="433" 
d="M409 504c15 -5 29 -13 21 -40l-13 -50c-7 -25 -23 -28 -39 -23c-14 5 -30 8 -45 8c-65 0 -102 -50 -102 -122v-238c0 -24 -14 -39 -38 -39h-58c-24 0 -37 15 -37 39v341c0 11 -5 16 -13 16c-9 0 -20 -6 -29 -7c-11 -4 -22 1 -29 22l-9 42c-7 21 -3 34 14 43
c21 12 49 17 70 17c48 0 91 -22 105 -74c30 46 76 74 139 74c24 0 43 -3 63 -9zM186 -59c27 0 35 -15 27 -36l-45 -130c-9 -26 -20 -33 -37 -33h-22c-23 0 -30 13 -27 35l18 131c4 28 17 33 40 33h46z" />
    <glyph glyph-name="u.ss01" horiz-adv-x="621" 
d="M608 48c9 -24 1 -34 -13 -42c-26 -15 -55 -19 -76 -19c-52 0 -91 29 -103 82c-29 -49 -78 -82 -152 -82c-122 0 -203 83 -203 206v274c0 24 13 38 37 38h58c24 0 38 -14 38 -38v-259c0 -63 38 -106 99 -106c63 0 103 43 103 109v256c0 24 13 38 37 38h58
c24 0 38 -14 38 -38v-348c0 -11 2 -19 13 -19c8 0 15 4 24 5c15 4 25 -4 31 -22z" />
    <glyph glyph-name="uacute.ss01" horiz-adv-x="621" 
d="M186 588l-13 23c-12 18 -5 32 14 45l154 100c21 15 35 10 45 -5l24 -44c13 -21 6 -34 -13 -44l-168 -79c-19 -9 -34 -9 -43 4zM608 48c9 -24 1 -34 -13 -42c-26 -15 -55 -19 -76 -19c-52 0 -91 29 -103 82c-29 -49 -78 -82 -152 -82c-122 0 -203 83 -203 206v274
c0 24 13 38 37 38h58c24 0 38 -14 38 -38v-259c0 -63 38 -106 99 -106c63 0 103 43 103 109v256c0 24 13 38 37 38h58c24 0 38 -14 38 -38v-348c0 -11 2 -19 13 -19c8 0 15 4 24 5c15 4 25 -4 31 -22z" />
    <glyph glyph-name="ucircumflex.ss01" horiz-adv-x="621" 
d="M141 594l-11 17c-14 20 -9 35 15 50l129 77c17 10 27 10 44 0l129 -77c24 -15 29 -30 15 -50l-11 -17c-13 -20 -25 -22 -51 -9l-104 55l-104 -55c-26 -13 -38 -11 -51 9zM608 48c9 -24 1 -34 -13 -42c-26 -15 -55 -19 -76 -19c-52 0 -91 29 -103 82
c-29 -49 -78 -82 -152 -82c-122 0 -203 83 -203 206v274c0 24 13 38 37 38h58c24 0 38 -14 38 -38v-259c0 -63 38 -106 99 -106c63 0 103 43 103 109v256c0 24 13 38 37 38h58c24 0 38 -14 38 -38v-348c0 -11 2 -19 13 -19c8 0 15 4 24 5c15 4 25 -4 31 -22z" />
    <glyph glyph-name="udieresis.ss01" horiz-adv-x="621" 
d="M190 589c-46 0 -84 38 -84 84c0 47 38 84 84 84c47 0 84 -37 84 -84c0 -46 -37 -84 -84 -84zM407 589c-47 0 -85 38 -85 84c0 47 38 84 85 84c46 0 84 -37 84 -84c0 -46 -38 -84 -84 -84zM608 48c9 -24 1 -34 -13 -42c-26 -15 -55 -19 -76 -19c-52 0 -91 29 -103 82
c-29 -49 -78 -82 -152 -82c-122 0 -203 83 -203 206v274c0 24 13 38 37 38h58c24 0 38 -14 38 -38v-259c0 -63 38 -106 99 -106c63 0 103 43 103 109v256c0 24 13 38 37 38h58c24 0 38 -14 38 -38v-348c0 -11 2 -19 13 -19c8 0 15 4 24 5c15 4 25 -4 31 -22z" />
    <glyph glyph-name="ugrave.ss01" horiz-adv-x="621" 
d="M198 663c-19 10 -26 23 -13 44l24 44c10 15 24 20 45 5l154 -100c19 -13 26 -27 14 -45l-13 -23c-9 -13 -24 -13 -43 -4zM608 48c9 -24 1 -34 -13 -42c-26 -15 -55 -19 -76 -19c-52 0 -91 29 -103 82c-29 -49 -78 -82 -152 -82c-122 0 -203 83 -203 206v274
c0 24 13 38 37 38h58c24 0 38 -14 38 -38v-259c0 -63 38 -106 99 -106c63 0 103 43 103 109v256c0 24 13 38 37 38h58c24 0 38 -14 38 -38v-348c0 -11 2 -19 13 -19c8 0 15 4 24 5c15 4 25 -4 31 -22z" />
    <glyph glyph-name="uhungarumlaut.ss01" horiz-adv-x="621" 
d="M188 577c-23 0 -30 14 -22 35l48 124c10 27 25 33 47 33h38c22 0 35 -13 23 -34l-74 -130c-12 -20 -26 -28 -48 -28h-12zM369 577c-23 0 -30 14 -22 35l48 124c10 27 25 33 47 33h38c22 0 35 -13 23 -34l-74 -130c-12 -20 -26 -28 -48 -28h-12zM608 48
c9 -24 1 -34 -13 -42c-26 -15 -55 -19 -76 -19c-52 0 -91 29 -103 82c-29 -49 -78 -82 -152 -82c-122 0 -203 83 -203 206v274c0 24 13 38 37 38h58c24 0 38 -14 38 -38v-259c0 -63 38 -106 99 -106c63 0 103 43 103 109v256c0 24 13 38 37 38h58c24 0 38 -14 38 -38v-348
c0 -11 2 -19 13 -19c8 0 15 4 24 5c15 4 25 -4 31 -22z" />
    <glyph glyph-name="umacron.ss01" horiz-adv-x="621" 
d="M179 619c-25 0 -38 13 -38 38v14c0 25 13 38 38 38h238c25 0 39 -13 39 -38v-14c0 -25 -14 -38 -39 -38h-238zM608 48c9 -24 1 -34 -13 -42c-26 -15 -55 -19 -76 -19c-52 0 -91 29 -103 82c-29 -49 -78 -82 -152 -82c-122 0 -203 83 -203 206v274c0 24 13 38 37 38h58
c24 0 38 -14 38 -38v-259c0 -63 38 -106 99 -106c63 0 103 43 103 109v256c0 24 13 38 37 38h58c24 0 38 -14 38 -38v-348c0 -11 2 -19 13 -19c8 0 15 4 24 5c15 4 25 -4 31 -22z" />
    <glyph glyph-name="uogonek.ss01" horiz-adv-x="621" 
d="M638 -159c9 -21 -2 -36 -22 -45c-87 -44 -196 2 -196 100c0 38 22 71 54 100c-29 12 -50 37 -58 73c-29 -49 -78 -82 -152 -82c-122 0 -203 83 -203 206v274c0 24 13 38 37 38h58c24 0 38 -14 38 -38v-259c0 -63 38 -106 99 -106c63 0 103 43 103 109v256
c0 24 13 38 37 38h58c24 0 38 -14 38 -38v-348c0 -11 2 -19 13 -19c8 0 15 4 24 5c15 4 25 -4 31 -22l11 -35c9 -24 1 -34 -13 -42c-12 -7 -25 -12 -38 -15c-25 -22 -43 -52 -43 -79c0 -47 36 -59 77 -46c18 5 33 7 43 -17z" />
    <glyph glyph-name="uring.ss01" horiz-adv-x="621" 
d="M298 577c-68 0 -120 52 -120 116s52 116 120 116c67 0 120 -52 120 -116s-53 -116 -120 -116zM298 734c-24 0 -41 -19 -41 -41s17 -40 41 -40s40 18 40 40s-16 41 -40 41zM608 48c9 -24 1 -34 -13 -42c-26 -15 -55 -19 -76 -19c-52 0 -91 29 -103 82
c-29 -49 -78 -82 -152 -82c-122 0 -203 83 -203 206v274c0 24 13 38 37 38h58c24 0 38 -14 38 -38v-259c0 -63 38 -106 99 -106c63 0 103 43 103 109v256c0 24 13 38 37 38h58c24 0 38 -14 38 -38v-348c0 -11 2 -19 13 -19c8 0 15 4 24 5c15 4 25 -4 31 -22z" />
    <glyph glyph-name="utilde.ss01" horiz-adv-x="621" 
d="M140 577c-22 0 -34 7 -34 26c0 78 43 123 100 123c69 0 117 -57 168 -57c21 0 29 11 29 31c0 19 11 26 33 26h19c22 0 33 -7 33 -26c0 -78 -42 -123 -98 -123c-70 0 -123 57 -170 57c-21 0 -28 -12 -28 -31s-12 -26 -34 -26h-18zM608 48c9 -24 1 -34 -13 -42
c-26 -15 -55 -19 -76 -19c-52 0 -91 29 -103 82c-29 -49 -78 -82 -152 -82c-122 0 -203 83 -203 206v274c0 24 13 38 37 38h58c24 0 38 -14 38 -38v-259c0 -63 38 -106 99 -106c63 0 103 43 103 109v256c0 24 13 38 37 38h58c24 0 38 -14 38 -38v-348c0 -11 2 -19 13 -19
c8 0 15 4 24 5c15 4 25 -4 31 -22z" />
    <glyph glyph-name="v.ss01" horiz-adv-x="603" 
d="M318 -13c-129 0 -230 77 -230 227v166c0 11 -5 16 -13 16c-9 0 -20 -6 -29 -7c-12 -4 -22 2 -29 22l-9 42c-7 20 -3 30 14 39c31 16 63 21 84 21c74 0 115 -44 115 -125v-184c0 -68 35 -107 98 -107c66 0 112 58 112 156c0 81 -22 156 -48 197c-14 27 -17 46 15 66l28 17
c31 19 53 11 71 -18c40 -61 69 -147 69 -250c-1 -157 -94 -278 -248 -278z" />
    <glyph glyph-name="w.ss01" horiz-adv-x="924" 
d="M817 515c41 -61 70 -145 69 -248c0 -171 -99 -280 -249 -280c-69 0 -123 24 -159 69c-37 -42 -91 -69 -162 -69c-126 0 -227 67 -227 217v176c0 11 -5 16 -13 16c-9 0 -20 -6 -29 -7c-12 -4 -22 2 -29 22l-9 42c-7 20 -3 30 14 39c31 16 63 21 84 21
c74 0 115 -44 115 -125v-188c0 -68 36 -103 96 -103s99 41 99 105v265c0 23 14 38 38 38h48c24 0 37 -14 37 -38v-266c0 -68 36 -104 97 -104c66 0 116 56 116 164c0 81 -22 148 -49 189c-16 26 -18 46 15 66l27 17c32 19 54 11 71 -18z" />
    <glyph glyph-name="wacute.ss01" horiz-adv-x="924" 
d="M369 588l-13 23c-12 18 -5 32 14 45l154 100c21 15 35 10 45 -5l24 -44c13 -21 6 -34 -13 -44l-168 -79c-19 -9 -34 -9 -43 4zM817 515c41 -61 70 -145 69 -248c0 -171 -99 -280 -249 -280c-69 0 -123 24 -159 69c-37 -42 -91 -69 -162 -69c-126 0 -227 67 -227 217v176
c0 11 -5 16 -13 16c-9 0 -20 -6 -29 -7c-12 -4 -22 2 -29 22l-9 42c-7 20 -3 30 14 39c31 16 63 21 84 21c74 0 115 -44 115 -125v-188c0 -68 36 -103 96 -103s99 41 99 105v265c0 23 14 38 38 38h48c24 0 37 -14 37 -38v-266c0 -68 36 -104 97 -104c66 0 116 56 116 164
c0 81 -22 148 -49 189c-16 26 -18 46 15 66l27 17c32 19 54 11 71 -18z" />
    <glyph glyph-name="wcircumflex.ss01" horiz-adv-x="924" 
d="M325 594l-11 17c-14 20 -9 35 15 50l129 77c17 10 27 10 44 0l129 -77c24 -15 29 -30 15 -50l-11 -17c-13 -20 -25 -22 -51 -9l-104 55l-104 -55c-26 -13 -38 -11 -51 9zM817 515c41 -61 70 -145 69 -248c0 -171 -99 -280 -249 -280c-69 0 -123 24 -159 69
c-37 -42 -91 -69 -162 -69c-126 0 -227 67 -227 217v176c0 11 -5 16 -13 16c-9 0 -20 -6 -29 -7c-12 -4 -22 2 -29 22l-9 42c-7 20 -3 30 14 39c31 16 63 21 84 21c74 0 115 -44 115 -125v-188c0 -68 36 -103 96 -103s99 41 99 105v265c0 23 14 38 38 38h48
c24 0 37 -14 37 -38v-266c0 -68 36 -104 97 -104c66 0 116 56 116 164c0 81 -22 148 -49 189c-16 26 -18 46 15 66l27 17c32 19 54 11 71 -18z" />
    <glyph glyph-name="wdieresis.ss01" horiz-adv-x="924" 
d="M373 589c-46 0 -84 38 -84 84c0 47 38 84 84 84c47 0 84 -37 84 -84c0 -46 -37 -84 -84 -84zM590 589c-47 0 -85 38 -85 84c0 47 38 84 85 84c46 0 84 -37 84 -84c0 -46 -38 -84 -84 -84zM817 515c41 -61 70 -145 69 -248c0 -171 -99 -280 -249 -280
c-69 0 -123 24 -159 69c-37 -42 -91 -69 -162 -69c-126 0 -227 67 -227 217v176c0 11 -5 16 -13 16c-9 0 -20 -6 -29 -7c-12 -4 -22 2 -29 22l-9 42c-7 20 -3 30 14 39c31 16 63 21 84 21c74 0 115 -44 115 -125v-188c0 -68 36 -103 96 -103s99 41 99 105v265
c0 23 14 38 38 38h48c24 0 37 -14 37 -38v-266c0 -68 36 -104 97 -104c66 0 116 56 116 164c0 81 -22 148 -49 189c-16 26 -18 46 15 66l27 17c32 19 54 11 71 -18z" />
    <glyph glyph-name="wgrave.ss01" horiz-adv-x="924" 
d="M381 663c-19 10 -26 23 -13 44l24 44c10 15 24 20 45 5l154 -100c19 -13 26 -27 14 -45l-13 -23c-9 -13 -24 -13 -43 -4zM817 515c41 -61 70 -145 69 -248c0 -171 -99 -280 -249 -280c-69 0 -123 24 -159 69c-37 -42 -91 -69 -162 -69c-126 0 -227 67 -227 217v176
c0 11 -5 16 -13 16c-9 0 -20 -6 -29 -7c-12 -4 -22 2 -29 22l-9 42c-7 20 -3 30 14 39c31 16 63 21 84 21c74 0 115 -44 115 -125v-188c0 -68 36 -103 96 -103s99 41 99 105v265c0 23 14 38 38 38h48c24 0 37 -14 37 -38v-266c0 -68 36 -104 97 -104c66 0 116 56 116 164
c0 81 -22 148 -49 189c-16 26 -18 46 15 66l27 17c32 19 54 11 71 -18z" />
    <glyph glyph-name="a.ss02" horiz-adv-x="581" 
d="M581 48c9 -24 1 -34 -13 -42c-26 -15 -56 -19 -76 -19c-48 0 -84 24 -99 69c-42 -42 -100 -69 -164 -69c-117 0 -196 65 -196 161c0 102 86 170 214 170c47 0 91 -11 130 -27v27c0 58 -42 94 -111 94c-48 0 -93 -15 -128 -39c-20 -12 -37 -8 -50 14l-9 16
c-15 26 -8 43 11 55c59 40 123 55 185 55c126 0 226 -62 226 -210v-184c0 -11 3 -19 14 -19c7 0 15 4 23 5c16 4 25 -4 32 -22zM258 78c65 0 122 40 122 89v37c-25 12 -69 29 -115 29c-63 0 -105 -32 -105 -80c0 -45 39 -75 98 -75z" />
    <glyph glyph-name="aacute.ss02" horiz-adv-x="581" 
d="M174 588l-13 23c-12 18 -5 32 14 45l154 100c21 15 35 10 45 -5l24 -44c13 -21 6 -34 -13 -44l-168 -79c-19 -9 -34 -9 -43 4zM581 48c9 -24 1 -34 -13 -42c-26 -15 -56 -19 -76 -19c-48 0 -84 24 -99 69c-42 -42 -100 -69 -164 -69c-117 0 -196 65 -196 161
c0 102 86 170 214 170c47 0 91 -11 130 -27v27c0 58 -42 94 -111 94c-48 0 -93 -15 -128 -39c-20 -12 -37 -8 -50 14l-9 16c-15 26 -8 43 11 55c59 40 123 55 185 55c126 0 226 -62 226 -210v-184c0 -11 3 -19 14 -19c7 0 15 4 23 5c16 4 25 -4 32 -22zM258 78
c65 0 122 40 122 89v37c-25 12 -69 29 -115 29c-63 0 -105 -32 -105 -80c0 -45 39 -75 98 -75z" />
    <glyph glyph-name="abreve.ss02" horiz-adv-x="581" 
d="M287 577c-105 0 -158 78 -166 146c-1 19 8 34 32 34h24c26 0 33 -18 37 -34c9 -36 27 -67 73 -67s64 31 73 67c3 16 11 34 37 34h23c25 0 34 -15 32 -34c-7 -68 -61 -146 -165 -146zM581 48c9 -24 1 -34 -13 -42c-26 -15 -56 -19 -76 -19c-48 0 -84 24 -99 69
c-42 -42 -100 -69 -164 -69c-117 0 -196 65 -196 161c0 102 86 170 214 170c47 0 91 -11 130 -27v27c0 58 -42 94 -111 94c-48 0 -93 -15 -128 -39c-20 -12 -37 -8 -50 14l-9 16c-15 26 -8 43 11 55c59 40 123 55 185 55c126 0 226 -62 226 -210v-184c0 -11 3 -19 14 -19
c7 0 15 4 23 5c16 4 25 -4 32 -22zM258 78c65 0 122 40 122 89v37c-25 12 -69 29 -115 29c-63 0 -105 -32 -105 -80c0 -45 39 -75 98 -75z" />
    <glyph glyph-name="acircumflex.ss02" horiz-adv-x="581" 
d="M129 594l-11 17c-14 20 -9 35 15 50l129 77c17 10 27 10 44 0l129 -77c24 -15 29 -30 15 -50l-11 -17c-13 -20 -25 -22 -51 -9l-104 55l-104 -55c-26 -13 -38 -11 -51 9zM581 48c9 -24 1 -34 -13 -42c-26 -15 -56 -19 -76 -19c-48 0 -84 24 -99 69
c-42 -42 -100 -69 -164 -69c-117 0 -196 65 -196 161c0 102 86 170 214 170c47 0 91 -11 130 -27v27c0 58 -42 94 -111 94c-48 0 -93 -15 -128 -39c-20 -12 -37 -8 -50 14l-9 16c-15 26 -8 43 11 55c59 40 123 55 185 55c126 0 226 -62 226 -210v-184c0 -11 3 -19 14 -19
c7 0 15 4 23 5c16 4 25 -4 32 -22zM258 78c65 0 122 40 122 89v37c-25 12 -69 29 -115 29c-63 0 -105 -32 -105 -80c0 -45 39 -75 98 -75z" />
    <glyph glyph-name="adieresis.ss02" horiz-adv-x="581" 
d="M178 589c-46 0 -84 38 -84 84c0 47 38 84 84 84c47 0 84 -37 84 -84c0 -46 -37 -84 -84 -84zM395 589c-47 0 -85 38 -85 84c0 47 38 84 85 84c46 0 84 -37 84 -84c0 -46 -38 -84 -84 -84zM581 48c9 -24 1 -34 -13 -42c-26 -15 -56 -19 -76 -19c-48 0 -84 24 -99 69
c-42 -42 -100 -69 -164 -69c-117 0 -196 65 -196 161c0 102 86 170 214 170c47 0 91 -11 130 -27v27c0 58 -42 94 -111 94c-48 0 -93 -15 -128 -39c-20 -12 -37 -8 -50 14l-9 16c-15 26 -8 43 11 55c59 40 123 55 185 55c126 0 226 -62 226 -210v-184c0 -11 3 -19 14 -19
c7 0 15 4 23 5c16 4 25 -4 32 -22zM258 78c65 0 122 40 122 89v37c-25 12 -69 29 -115 29c-63 0 -105 -32 -105 -80c0 -45 39 -75 98 -75z" />
    <glyph glyph-name="agrave.ss02" horiz-adv-x="581" 
d="M186 663c-19 10 -26 23 -13 44l24 44c10 15 24 20 45 5l154 -100c19 -13 26 -27 14 -45l-13 -23c-9 -13 -24 -13 -43 -4zM581 48c9 -24 1 -34 -13 -42c-26 -15 -56 -19 -76 -19c-48 0 -84 24 -99 69c-42 -42 -100 -69 -164 -69c-117 0 -196 65 -196 161
c0 102 86 170 214 170c47 0 91 -11 130 -27v27c0 58 -42 94 -111 94c-48 0 -93 -15 -128 -39c-20 -12 -37 -8 -50 14l-9 16c-15 26 -8 43 11 55c59 40 123 55 185 55c126 0 226 -62 226 -210v-184c0 -11 3 -19 14 -19c7 0 15 4 23 5c16 4 25 -4 32 -22zM258 78
c65 0 122 40 122 89v37c-25 12 -69 29 -115 29c-63 0 -105 -32 -105 -80c0 -45 39 -75 98 -75z" />
    <glyph glyph-name="amacron.ss02" horiz-adv-x="581" 
d="M167 619c-25 0 -38 13 -38 38v14c0 25 13 38 38 38h238c25 0 39 -13 39 -38v-14c0 -25 -14 -38 -39 -38h-238zM581 48c9 -24 1 -34 -13 -42c-26 -15 -56 -19 -76 -19c-48 0 -84 24 -99 69c-42 -42 -100 -69 -164 -69c-117 0 -196 65 -196 161c0 102 86 170 214 170
c47 0 91 -11 130 -27v27c0 58 -42 94 -111 94c-48 0 -93 -15 -128 -39c-20 -12 -37 -8 -50 14l-9 16c-15 26 -8 43 11 55c59 40 123 55 185 55c126 0 226 -62 226 -210v-184c0 -11 3 -19 14 -19c7 0 15 4 23 5c16 4 25 -4 32 -22zM258 78c65 0 122 40 122 89v37
c-25 12 -69 29 -115 29c-63 0 -105 -32 -105 -80c0 -45 39 -75 98 -75z" />
    <glyph glyph-name="aogonek.ss02" horiz-adv-x="581" 
d="M608 -159c9 -21 -2 -36 -22 -45c-87 -44 -196 2 -196 100c0 38 22 72 54 101c-23 11 -41 30 -51 59c-42 -42 -100 -69 -164 -69c-117 0 -196 65 -196 161c0 102 86 170 214 170c47 0 91 -11 130 -27v27c0 58 -42 94 -111 94c-48 0 -93 -15 -128 -39
c-20 -12 -37 -8 -50 14l-9 16c-15 26 -8 43 11 55c59 40 123 55 185 55c126 0 226 -62 226 -210v-184c0 -11 3 -19 14 -19c7 0 15 4 23 5c16 4 25 -4 32 -22l11 -35c9 -24 1 -34 -13 -42c-13 -8 -28 -13 -42 -15c-25 -23 -42 -52 -42 -79c0 -47 36 -59 77 -46
c18 5 33 7 43 -17zM258 78c65 0 122 40 122 89v37c-25 12 -69 29 -115 29c-63 0 -105 -32 -105 -80c0 -45 39 -75 98 -75z" />
    <glyph glyph-name="aring.ss02" horiz-adv-x="581" 
d="M286 577c-68 0 -120 52 -120 116s52 116 120 116c67 0 120 -52 120 -116s-53 -116 -120 -116zM286 734c-24 0 -41 -19 -41 -41s17 -40 41 -40s40 18 40 40s-16 41 -40 41zM581 48c9 -24 1 -34 -13 -42c-26 -15 -56 -19 -76 -19c-48 0 -84 24 -99 69
c-42 -42 -100 -69 -164 -69c-117 0 -196 65 -196 161c0 102 86 170 214 170c47 0 91 -11 130 -27v27c0 58 -42 94 -111 94c-48 0 -93 -15 -128 -39c-20 -12 -37 -8 -50 14l-9 16c-15 26 -8 43 11 55c59 40 123 55 185 55c126 0 226 -62 226 -210v-184c0 -11 3 -19 14 -19
c7 0 15 4 23 5c16 4 25 -4 32 -22zM258 78c65 0 122 40 122 89v37c-25 12 -69 29 -115 29c-63 0 -105 -32 -105 -80c0 -45 39 -75 98 -75z" />
    <glyph glyph-name="atilde.ss02" horiz-adv-x="581" 
d="M128 577c-22 0 -34 7 -34 26c0 78 43 123 100 123c69 0 117 -57 168 -57c21 0 29 11 29 31c0 19 11 26 33 26h19c22 0 33 -7 33 -26c0 -78 -42 -123 -98 -123c-70 0 -123 57 -170 57c-21 0 -28 -12 -28 -31s-12 -26 -34 -26h-18zM581 48c9 -24 1 -34 -13 -42
c-26 -15 -56 -19 -76 -19c-48 0 -84 24 -99 69c-42 -42 -100 -69 -164 -69c-117 0 -196 65 -196 161c0 102 86 170 214 170c47 0 91 -11 130 -27v27c0 58 -42 94 -111 94c-48 0 -93 -15 -128 -39c-20 -12 -37 -8 -50 14l-9 16c-15 26 -8 43 11 55c59 40 123 55 185 55
c126 0 226 -62 226 -210v-184c0 -11 3 -19 14 -19c7 0 15 4 23 5c16 4 25 -4 32 -22zM258 78c65 0 122 40 122 89v37c-25 12 -69 29 -115 29c-63 0 -105 -32 -105 -80c0 -45 39 -75 98 -75z" />
    <glyph glyph-name="f.ss02" horiz-adv-x="382" 
d="M402 701c18 -9 31 -20 20 -47l-12 -30c-11 -23 -24 -26 -45 -19c-15 7 -30 11 -45 11c-44 0 -83 -28 -83 -90v-21h106c24 0 38 -13 38 -37v-25c0 -24 -14 -38 -38 -38h-106v-414c0 -122 -76 -181 -169 -181c-37 0 -73 11 -96 26c-24 15 -34 30 -19 55l11 24
c12 21 24 33 47 21c18 -10 31 -13 45 -11c31 2 48 31 48 78v402h-47c-24 0 -38 14 -38 38v25c0 24 14 37 38 37h47v21c0 135 101 194 201 194c36 0 71 -7 97 -19z" />
    <glyph glyph-name="k.ss02" horiz-adv-x="595" 
d="M568 45c8 -23 0 -34 -14 -42c-26 -13 -47 -16 -67 -16c-52 0 -88 24 -114 61l-89 130h-85v-139c0 -24 -13 -39 -37 -39h-57c-24 0 -38 15 -38 39v625c0 23 13 33 38 39l54 10c27 6 40 -11 40 -37v-210c40 30 92 47 147 47c114 0 191 -66 191 -166
c0 -72 -45 -128 -118 -153l48 -72c10 -14 21 -22 32 -23c8 -2 14 0 23 3c20 7 29 0 36 -20zM199 298v-41h110c58 0 98 32 98 79s-37 78 -90 78c-70 0 -118 -47 -118 -116z" />
    <glyph glyph-name="uni0137.ss02" horiz-adv-x="595" 
d="M568 45c8 -23 0 -34 -14 -42c-26 -13 -47 -16 -67 -16c-52 0 -88 24 -114 61l-89 130h-85v-139c0 -24 -13 -39 -37 -39h-57c-24 0 -38 15 -38 39v625c0 23 13 33 38 39l54 10c27 6 40 -11 40 -37v-210c40 30 92 47 147 47c114 0 191 -66 191 -166
c0 -72 -45 -128 -118 -153l48 -72c10 -14 21 -22 32 -23c8 -2 14 0 23 3c20 7 29 0 36 -20zM199 298v-41h110c58 0 98 32 98 79s-37 78 -90 78c-70 0 -118 -47 -118 -116zM327 -59c27 0 35 -15 27 -36l-45 -130c-9 -26 -20 -33 -37 -33h-22c-23 0 -30 13 -27 35l18 131
c4 28 17 33 40 33h46z" />
    <glyph glyph-name="y.ss02" horiz-adv-x="614" 
d="M510 505c24 0 38 -14 38 -38v-412c0 -168 -117 -245 -264 -245c-97 0 -165 36 -214 88c-12 13 -17 25 1 43l27 32c11 11 25 17 43 -1c32 -33 80 -62 144 -62c77 0 140 39 140 124v70c-33 -37 -80 -61 -142 -61c-119 0 -198 82 -198 202v135c0 11 -5 16 -13 16
c-9 0 -20 -6 -29 -7c-12 -4 -22 2 -29 22l-9 42c-7 20 -3 30 14 39c31 17 63 21 84 21c74 0 110 -44 110 -125v-125c0 -63 38 -106 99 -106c63 0 103 43 103 109v201c0 24 13 38 37 38h58z" />
    <glyph glyph-name="yacute.ss02" horiz-adv-x="614" 
d="M184 588l-13 23c-12 18 -5 32 14 45l154 100c21 15 35 10 45 -5l24 -44c13 -21 6 -34 -13 -44l-168 -79c-19 -9 -34 -9 -43 4zM510 505c24 0 38 -14 38 -38v-412c0 -168 -117 -245 -264 -245c-97 0 -165 36 -214 88c-12 13 -17 25 1 43l27 32c11 11 25 17 43 -1
c32 -33 80 -62 144 -62c77 0 140 39 140 124v70c-33 -37 -80 -61 -142 -61c-119 0 -198 82 -198 202v135c0 11 -5 16 -13 16c-9 0 -20 -6 -29 -7c-12 -4 -22 2 -29 22l-9 42c-7 20 -3 30 14 39c31 17 63 21 84 21c74 0 110 -44 110 -125v-125c0 -63 38 -106 99 -106
c63 0 103 43 103 109v201c0 24 13 38 37 38h58z" />
    <glyph glyph-name="ycircumflex.ss02" horiz-adv-x="614" 
d="M140 594l-11 17c-14 20 -9 35 15 50l129 77c17 10 27 10 44 0l129 -77c24 -15 29 -30 15 -50l-11 -17c-13 -20 -25 -22 -51 -9l-104 55l-104 -55c-26 -13 -38 -11 -51 9zM510 505c24 0 38 -14 38 -38v-412c0 -168 -117 -245 -264 -245c-97 0 -165 36 -214 88
c-12 13 -17 25 1 43l27 32c11 11 25 17 43 -1c32 -33 80 -62 144 -62c77 0 140 39 140 124v70c-33 -37 -80 -61 -142 -61c-119 0 -198 82 -198 202v135c0 11 -5 16 -13 16c-9 0 -20 -6 -29 -7c-12 -4 -22 2 -29 22l-9 42c-7 20 -3 30 14 39c31 17 63 21 84 21
c74 0 110 -44 110 -125v-125c0 -63 38 -106 99 -106c63 0 103 43 103 109v201c0 24 13 38 37 38h58z" />
    <glyph glyph-name="ydieresis.ss02" horiz-adv-x="614" 
d="M188 589c-46 0 -84 38 -84 84c0 47 38 84 84 84c47 0 84 -37 84 -84c0 -46 -37 -84 -84 -84zM405 589c-47 0 -85 38 -85 84c0 47 38 84 85 84c46 0 84 -37 84 -84c0 -46 -38 -84 -84 -84zM510 505c24 0 38 -14 38 -38v-412c0 -168 -117 -245 -264 -245
c-97 0 -165 36 -214 88c-12 13 -17 25 1 43l27 32c11 11 25 17 43 -1c32 -33 80 -62 144 -62c77 0 140 39 140 124v70c-33 -37 -80 -61 -142 -61c-119 0 -198 82 -198 202v135c0 11 -5 16 -13 16c-9 0 -20 -6 -29 -7c-12 -4 -22 2 -29 22l-9 42c-7 20 -3 30 14 39
c31 17 63 21 84 21c74 0 110 -44 110 -125v-125c0 -63 38 -106 99 -106c63 0 103 43 103 109v201c0 24 13 38 37 38h58z" />
    <glyph glyph-name="ygrave.ss02" horiz-adv-x="614" 
d="M196 663c-19 10 -26 23 -13 44l24 44c10 15 24 20 45 5l154 -100c19 -13 26 -27 14 -45l-13 -23c-9 -13 -24 -13 -43 -4zM510 505c24 0 38 -14 38 -38v-412c0 -168 -117 -245 -264 -245c-97 0 -165 36 -214 88c-12 13 -17 25 1 43l27 32c11 11 25 17 43 -1
c32 -33 80 -62 144 -62c77 0 140 39 140 124v70c-33 -37 -80 -61 -142 -61c-119 0 -198 82 -198 202v135c0 11 -5 16 -13 16c-9 0 -20 -6 -29 -7c-12 -4 -22 2 -29 22l-9 42c-7 20 -3 30 14 39c31 17 63 21 84 21c74 0 110 -44 110 -125v-125c0 -63 38 -106 99 -106
c63 0 103 43 103 109v201c0 24 13 38 37 38h58z" />
    <glyph glyph-name="uni1EF9.ss02" horiz-adv-x="614" 
d="M138 577c-22 0 -34 7 -34 26c0 78 43 123 100 123c69 0 117 -57 168 -57c21 0 29 11 29 31c0 19 11 26 33 26h19c22 0 33 -7 33 -26c0 -78 -42 -123 -98 -123c-70 0 -123 57 -170 57c-21 0 -28 -12 -28 -31s-12 -26 -34 -26h-18zM510 505c24 0 38 -14 38 -38v-412
c0 -168 -117 -245 -264 -245c-97 0 -165 36 -214 88c-12 13 -17 25 1 43l27 32c11 11 25 17 43 -1c32 -33 80 -62 144 -62c77 0 140 39 140 124v70c-33 -37 -80 -61 -142 -61c-119 0 -198 82 -198 202v135c0 11 -5 16 -13 16c-9 0 -20 -6 -29 -7c-12 -4 -22 2 -29 22l-9 42
c-7 20 -3 30 14 39c31 17 63 21 84 21c74 0 110 -44 110 -125v-125c0 -63 38 -106 99 -106c63 0 103 43 103 109v201c0 24 13 38 37 38h58z" />
    <glyph glyph-name="a.ss03" horiz-adv-x="660" 
d="M647 48c9 -24 1 -34 -13 -42c-26 -15 -55 -19 -76 -19c-50 0 -88 27 -102 77c-40 -46 -98 -77 -170 -77c-147 0 -251 116 -251 263c0 148 104 263 251 263c67 0 125 -26 169 -66v23c0 24 14 38 38 38h37c24 0 38 -14 38 -38v-351c0 -11 2 -19 13 -19c8 0 15 4 24 5
c15 4 25 -4 31 -22zM306 103c75 0 137 54 137 147c0 95 -62 148 -137 148c-84 0 -139 -66 -139 -148s55 -147 139 -147z" />
    <glyph glyph-name="aacute.ss03" horiz-adv-x="660" 
d="M201 588l-13 23c-12 18 -5 32 14 45l154 100c21 15 35 10 45 -5l24 -44c13 -21 6 -34 -13 -44l-168 -79c-19 -9 -34 -9 -43 4zM647 48c9 -24 1 -34 -13 -42c-26 -15 -55 -19 -76 -19c-50 0 -88 27 -102 77c-40 -46 -98 -77 -170 -77c-147 0 -251 116 -251 263
c0 148 104 263 251 263c67 0 125 -26 169 -66v23c0 24 14 38 38 38h37c24 0 38 -14 38 -38v-351c0 -11 2 -19 13 -19c8 0 15 4 24 5c15 4 25 -4 31 -22zM306 103c75 0 137 54 137 147c0 95 -62 148 -137 148c-84 0 -139 -66 -139 -148s55 -147 139 -147z" />
    <glyph glyph-name="abreve.ss03" horiz-adv-x="660" 
d="M314 577c-105 0 -158 78 -166 146c-1 19 8 34 32 34h24c26 0 33 -18 37 -34c9 -36 27 -67 73 -67s64 31 73 67c3 16 11 34 37 34h23c25 0 34 -15 32 -34c-7 -68 -61 -146 -165 -146zM647 48c9 -24 1 -34 -13 -42c-26 -15 -55 -19 -76 -19c-50 0 -88 27 -102 77
c-40 -46 -98 -77 -170 -77c-147 0 -251 116 -251 263c0 148 104 263 251 263c67 0 125 -26 169 -66v23c0 24 14 38 38 38h37c24 0 38 -14 38 -38v-351c0 -11 2 -19 13 -19c8 0 15 4 24 5c15 4 25 -4 31 -22zM306 103c75 0 137 54 137 147c0 95 -62 148 -137 148
c-84 0 -139 -66 -139 -148s55 -147 139 -147z" />
    <glyph glyph-name="acircumflex.ss03" horiz-adv-x="660" 
d="M156 594l-11 17c-14 20 -9 35 15 50l129 77c17 10 27 10 44 0l129 -77c24 -15 29 -30 15 -50l-11 -17c-13 -20 -25 -22 -51 -9l-104 55l-104 -55c-26 -13 -38 -11 -51 9zM647 48c9 -24 1 -34 -13 -42c-26 -15 -55 -19 -76 -19c-50 0 -88 27 -102 77
c-40 -46 -98 -77 -170 -77c-147 0 -251 116 -251 263c0 148 104 263 251 263c67 0 125 -26 169 -66v23c0 24 14 38 38 38h37c24 0 38 -14 38 -38v-351c0 -11 2 -19 13 -19c8 0 15 4 24 5c15 4 25 -4 31 -22zM306 103c75 0 137 54 137 147c0 95 -62 148 -137 148
c-84 0 -139 -66 -139 -148s55 -147 139 -147z" />
    <glyph glyph-name="adieresis.ss03" horiz-adv-x="660" 
d="M205 589c-46 0 -84 38 -84 84c0 47 38 84 84 84c47 0 84 -37 84 -84c0 -46 -37 -84 -84 -84zM422 589c-47 0 -85 38 -85 84c0 47 38 84 85 84c46 0 84 -37 84 -84c0 -46 -38 -84 -84 -84zM647 48c9 -24 1 -34 -13 -42c-26 -15 -55 -19 -76 -19c-50 0 -88 27 -102 77
c-40 -46 -98 -77 -170 -77c-147 0 -251 116 -251 263c0 148 104 263 251 263c67 0 125 -26 169 -66v23c0 24 14 38 38 38h37c24 0 38 -14 38 -38v-351c0 -11 2 -19 13 -19c8 0 15 4 24 5c15 4 25 -4 31 -22zM306 103c75 0 137 54 137 147c0 95 -62 148 -137 148
c-84 0 -139 -66 -139 -148s55 -147 139 -147z" />
    <glyph glyph-name="agrave.ss03" horiz-adv-x="660" 
d="M213 663c-19 10 -26 23 -13 44l24 44c10 15 24 20 45 5l154 -100c19 -13 26 -27 14 -45l-13 -23c-9 -13 -24 -13 -43 -4zM647 48c9 -24 1 -34 -13 -42c-26 -15 -55 -19 -76 -19c-50 0 -88 27 -102 77c-40 -46 -98 -77 -170 -77c-147 0 -251 116 -251 263
c0 148 104 263 251 263c67 0 125 -26 169 -66v23c0 24 14 38 38 38h37c24 0 38 -14 38 -38v-351c0 -11 2 -19 13 -19c8 0 15 4 24 5c15 4 25 -4 31 -22zM306 103c75 0 137 54 137 147c0 95 -62 148 -137 148c-84 0 -139 -66 -139 -148s55 -147 139 -147z" />
    <glyph glyph-name="amacron.ss03" horiz-adv-x="660" 
d="M194 619c-25 0 -38 13 -38 38v14c0 25 13 38 38 38h238c25 0 39 -13 39 -38v-14c0 -25 -14 -38 -39 -38h-238zM647 48c9 -24 1 -34 -13 -42c-26 -15 -55 -19 -76 -19c-50 0 -88 27 -102 77c-40 -46 -98 -77 -170 -77c-147 0 -251 116 -251 263c0 148 104 263 251 263
c67 0 125 -26 169 -66v23c0 24 14 38 38 38h37c24 0 38 -14 38 -38v-351c0 -11 2 -19 13 -19c8 0 15 4 24 5c15 4 25 -4 31 -22zM306 103c75 0 137 54 137 147c0 95 -62 148 -137 148c-84 0 -139 -66 -139 -148s55 -147 139 -147z" />
    <glyph glyph-name="aogonek.ss03" horiz-adv-x="660" 
d="M674 -156c9 -21 -2 -36 -22 -45c-87 -44 -196 2 -196 100c0 38 21 70 52 99c-25 12 -43 34 -52 66c-40 -46 -98 -77 -170 -77c-147 0 -251 116 -251 263c0 148 104 263 251 263c67 0 125 -26 169 -66v23c0 24 14 38 38 38h37c24 0 38 -14 38 -38v-351c0 -11 2 -19 13 -19
c8 0 15 4 24 5c15 4 25 -4 31 -22l11 -35c9 -24 1 -34 -13 -42c-15 -9 -31 -14 -46 -16c-23 -22 -38 -49 -38 -75c0 -47 36 -59 77 -46c18 5 33 7 43 -17zM306 103c75 0 137 54 137 147c0 95 -62 148 -137 148c-84 0 -139 -66 -139 -148s55 -147 139 -147z" />
    <glyph glyph-name="aring.ss03" horiz-adv-x="660" 
d="M313 577c-68 0 -120 52 -120 116s52 116 120 116c67 0 120 -52 120 -116s-53 -116 -120 -116zM313 734c-24 0 -41 -19 -41 -41s17 -40 41 -40s40 18 40 40s-16 41 -40 41zM647 48c9 -24 1 -34 -13 -42c-26 -15 -55 -19 -76 -19c-50 0 -88 27 -102 77
c-40 -46 -98 -77 -170 -77c-147 0 -251 116 -251 263c0 148 104 263 251 263c67 0 125 -26 169 -66v23c0 24 14 38 38 38h37c24 0 38 -14 38 -38v-351c0 -11 2 -19 13 -19c8 0 15 4 24 5c15 4 25 -4 31 -22zM306 103c75 0 137 54 137 147c0 95 -62 148 -137 148
c-84 0 -139 -66 -139 -148s55 -147 139 -147z" />
    <glyph glyph-name="atilde.ss03" horiz-adv-x="660" 
d="M155 577c-22 0 -34 7 -34 26c0 78 43 123 100 123c69 0 117 -57 168 -57c21 0 29 11 29 31c0 19 11 26 33 26h19c22 0 33 -7 33 -26c0 -78 -42 -123 -98 -123c-70 0 -123 57 -170 57c-21 0 -28 -12 -28 -31s-12 -26 -34 -26h-18zM647 48c9 -24 1 -34 -13 -42
c-26 -15 -55 -19 -76 -19c-50 0 -88 27 -102 77c-40 -46 -98 -77 -170 -77c-147 0 -251 116 -251 263c0 148 104 263 251 263c67 0 125 -26 169 -66v23c0 24 14 38 38 38h37c24 0 38 -14 38 -38v-351c0 -11 2 -19 13 -19c8 0 15 4 24 5c15 4 25 -4 31 -22zM306 103
c75 0 137 54 137 147c0 95 -62 148 -137 148c-84 0 -139 -66 -139 -148s55 -147 139 -147z" />
    <glyph glyph-name="ae.ss03" horiz-adv-x="975" 
d="M286 -13c-147 0 -251 116 -251 263c0 148 104 263 251 263c71 0 128 -28 169 -73v32c0 24 13 37 37 37h22c24 0 37 -13 37 -37v-33c42 45 102 73 184 73c111 0 206 -67 206 -167c0 -94 -93 -158 -233 -158c-54 0 -89 5 -134 14c20 -70 76 -113 149 -113
c39 0 84 10 128 45c18 14 32 17 48 0l24 -24c19 -19 11 -34 0 -46c-51 -53 -124 -76 -195 -76c-73 0 -134 30 -177 77v-33c0 -24 -13 -38 -37 -38h-22c-24 0 -37 14 -37 38v34c-41 -47 -98 -78 -169 -78zM708 261c67 0 108 28 108 73c0 49 -43 81 -105 81
c-75 0 -135 -49 -142 -140c42 -9 76 -14 139 -14zM306 103c76 0 137 53 137 147c0 95 -62 148 -137 148c-84 0 -139 -66 -139 -148c0 -81 54 -147 139 -147z" />
    <glyph glyph-name="aeacute.ss03" horiz-adv-x="975" 
d="M386 588l-13 23c-12 18 -5 32 14 45l154 100c21 15 35 10 45 -5l24 -44c13 -21 6 -34 -13 -44l-168 -79c-19 -9 -34 -9 -43 4zM286 -13c-147 0 -251 116 -251 263c0 148 104 263 251 263c71 0 128 -28 169 -73v32c0 24 13 37 37 37h22c24 0 37 -13 37 -37v-33
c42 45 102 73 184 73c111 0 206 -67 206 -167c0 -94 -93 -158 -233 -158c-54 0 -89 5 -134 14c20 -70 76 -113 149 -113c39 0 84 10 128 45c18 14 32 17 48 0l24 -24c19 -19 11 -34 0 -46c-51 -53 -124 -76 -195 -76c-73 0 -134 30 -177 77v-33c0 -24 -13 -38 -37 -38h-22
c-24 0 -37 14 -37 38v34c-41 -47 -98 -78 -169 -78zM708 261c67 0 108 28 108 73c0 49 -43 81 -105 81c-75 0 -135 -49 -142 -140c42 -9 76 -14 139 -14zM306 103c76 0 137 53 137 147c0 95 -62 148 -137 148c-84 0 -139 -66 -139 -148c0 -81 54 -147 139 -147z" />
    <glyph glyph-name="f_t" horiz-adv-x="750" 
d="M747 62c11 -21 -5 -34 -17 -43c-29 -20 -68 -32 -112 -32c-95 0 -176 56 -176 180v238h-202v-367c0 -24 -13 -38 -37 -38h-58c-24 0 -38 14 -38 38v367h-48c-24 0 -37 14 -37 38v25c0 24 13 37 37 37h48v21c0 135 91 194 191 194c33 0 66 -6 90 -18c18 -8 31 -19 20 -46
l-12 -30c-11 -24 -24 -27 -45 -19c-14 6 -26 9 -38 9c-44 0 -73 -28 -73 -90v-21h202v126c0 23 13 34 37 39l55 11c27 6 40 -12 40 -38v-138h112c24 0 37 -13 37 -37v-25c0 -24 -13 -38 -37 -38h-112v-226c0 -56 27 -77 65 -77c17 0 33 7 46 15c23 14 35 4 44 -13z" />
    <glyph glyph-name="f_t.ss01" horiz-adv-x="747" 
d="M743 62c11 -21 -4 -34 -17 -43c-28 -20 -68 -32 -112 -32c-95 0 -176 56 -176 180v238h-201v-414c0 -122 -76 -181 -169 -181c-37 0 -73 9 -104 29c-16 11 -27 23 -13 46l15 33c11 19 20 29 38 19c13 -8 26 -14 42 -14c35 0 58 25 58 78v404h-48c-24 0 -38 14 -38 38v25
c0 24 14 37 38 37h48v21c0 135 91 194 191 194c36 0 66 -7 92 -19c18 -9 31 -20 20 -47l-12 -30c-11 -23 -24 -26 -45 -19c-15 7 -25 11 -40 11c-44 0 -73 -28 -73 -90v-21h201v126c0 23 13 34 38 39l54 11c27 6 40 -12 40 -38v-138h112c24 0 38 -13 38 -37v-25
c0 -24 -14 -38 -38 -38h-112v-226c0 -56 27 -77 66 -77c17 0 32 7 46 15c23 14 34 4 43 -13z" />
    <glyph glyph-name="fi.ss01" horiz-adv-x="674" 
d="M516 562c-47 0 -85 37 -85 84c0 46 38 84 85 84c46 0 84 -38 84 -84c0 -47 -38 -84 -84 -84zM661 48c9 -23 3 -33 -12 -41c-27 -16 -55 -20 -78 -20c-79 1 -123 44 -123 129v289h-211v-414c0 -122 -76 -181 -169 -181c-37 0 -73 9 -104 29c-16 11 -27 23 -13 46l15 33
c11 19 20 29 38 19c13 -8 26 -14 42 -14c35 0 58 25 58 78v404h-48c-24 0 -37 14 -37 38v25c0 24 13 37 37 37h48v21c0 135 91 194 191 194c36 0 68 -7 94 -19c18 -9 30 -20 19 -47l-12 -30c-11 -23 -23 -26 -44 -19c-15 7 -27 11 -42 11c-44 0 -73 -28 -73 -90v-21h306
c24 0 38 -13 38 -37v-345c0 -11 2 -19 14 -19c5 0 13 2 20 5c17 5 27 -1 35 -22z" />
    <glyph glyph-name="fl.ss01" horiz-adv-x="647" 
d="M639 48c9 -23 3 -33 -12 -41c-27 -16 -55 -20 -78 -20c-78 0 -123 44 -123 128v456c-29 40 -85 45 -105 45c-48 0 -84 -34 -84 -89v-22h92c24 0 37 -13 37 -37v-25c0 -24 -13 -38 -37 -38h-92v-414c0 -122 -76 -181 -169 -181c-37 0 -73 11 -96 26c-24 15 -33 30 -19 55
l11 24c11 21 24 32 47 21c18 -10 31 -13 45 -11c31 3 48 31 48 78v402h-48c-24 0 -37 14 -37 38v25c0 24 13 37 37 37h48v21c0 126 92 194 201 194c43 0 91 -13 127 -35c6 10 16 15 31 18l56 11c27 6 40 -12 40 -38v-553c0 -11 2 -19 14 -19c5 0 13 2 20 5
c17 6 27 -1 35 -22z" />
    <glyph glyph-name="ordfeminine" unicode="&#xaa;" horiz-adv-x="389" 
d="M190 662c77 0 144 -39 144 -116v-179c0 -16 -9 -25 -25 -25h-25c-16 0 -25 9 -25 25v11c-24 -22 -57 -38 -95 -38c-75 0 -127 41 -127 102c0 63 59 98 135 98c30 0 54 -5 76 -12v11c0 33 -27 55 -67 55c-35 0 -58 -14 -73 -25c-11 -9 -22 -10 -31 1l-14 17
c-9 12 -7 22 4 32c26 23 68 43 123 43zM179 401c42 0 67 29 67 57v14c-13 5 -34 11 -62 11c-34 0 -57 -17 -57 -42s20 -40 52 -40z" />
    <glyph glyph-name="ordmasculine" unicode="&#xba;" horiz-adv-x="404" 
d="M202 341c-98 0 -168 67 -168 161c0 93 70 160 168 160s168 -67 168 -160c0 -95 -71 -161 -168 -161zM202 420c45 0 78 33 78 82c0 48 -33 81 -78 81s-78 -33 -78 -81c0 -49 33 -82 78 -82z" />
    <glyph glyph-name="zero" unicode="0" horiz-adv-x="638" 
d="M595 325c0 -201 -112 -337 -276 -337s-276 136 -276 337c0 202 112 337 276 337s276 -135 276 -337zM176 325c0 -134 58 -224 143 -224s143 90 143 224c0 135 -58 225 -143 225s-143 -90 -143 -225z" />
    <glyph glyph-name="one" unicode="1" horiz-adv-x="371" 
d="M246 650c25 0 38 -13 38 -38v-573c0 -25 -13 -39 -38 -39h-58c-25 0 -38 14 -38 39v500h-108c-25 0 -42 13 -32 42l10 33c8 25 21 36 47 36h179z" />
    <glyph glyph-name="two" unicode="2" horiz-adv-x="551" 
d="M474 110c25 0 39 -14 39 -38v-33c0 -25 -14 -39 -39 -39h-396c-25 0 -39 14 -39 39v28c0 17 3 33 25 52c57 52 121 114 179 172c71 71 113 119 113 171c0 57 -41 92 -100 92c-52 0 -96 -26 -138 -68c-20 -18 -39 -15 -55 4l-19 22c-16 19 -13 39 6 57
c56 57 127 93 220 93c129 0 216 -79 216 -195c0 -67 -33 -121 -96 -193c-43 -49 -101 -101 -172 -164h256z" />
    <glyph glyph-name="three" unicode="3" horiz-adv-x="553" 
d="M401 345c68 -32 111 -87 111 -163c0 -114 -101 -194 -247 -194c-89 0 -171 39 -223 91c-18 17 -26 35 -9 52l26 27c16 16 35 24 54 4c36 -37 90 -66 148 -66c69 0 114 39 114 95c0 63 -55 102 -135 102h-24c-25 0 -38 14 -38 39v18c0 25 13 39 38 39h28
c66 0 113 36 113 86c0 47 -42 80 -101 80c-48 0 -87 -13 -126 -46c-19 -15 -39 -15 -55 4l-19 24c-16 19 -9 39 9 53c59 49 128 72 208 72c128 0 218 -72 218 -175c0 -64 -35 -112 -90 -142z" />
    <glyph glyph-name="four" unicode="4" horiz-adv-x="578" 
d="M509 236c26 0 39 -13 39 -38v-21c0 -25 -14 -38 -39 -38h-55v-101c0 -25 -13 -38 -38 -38h-53c-25 0 -39 14 -39 38v101h-272c-25 0 -38 13 -38 38v27c0 24 7 36 22 54l289 357c17 21 28 35 63 35h28c24 0 38 -15 38 -39v-375h55zM150 236h175v220z" />
    <glyph glyph-name="five" unicode="5" horiz-adv-x="576" 
d="M300 438c143 0 241 -88 241 -223c0 -134 -106 -228 -260 -228c-89 0 -176 35 -229 89c-19 18 -26 36 -8 54l27 27c18 18 34 19 52 2c38 -37 96 -63 149 -63c79 0 134 49 134 118c0 72 -53 119 -132 119c-44 0 -82 -15 -108 -37c-22 -14 -38 -14 -57 -6l-25 11
c-27 12 -26 32 -21 60l41 251c4 23 13 38 39 38h311c25 0 38 -14 38 -38v-34c0 -25 -13 -39 -38 -39h-251l-20 -125c33 15 72 24 117 24z" />
    <glyph glyph-name="six" unicode="6" horiz-adv-x="570" 
d="M291 -12c-146 0 -251 89 -253 237c-1 154 103 281 235 421c22 22 48 24 66 8l28 -26c14 -13 27 -33 -4 -60c-46 -46 -107 -112 -154 -174l2 1c32 25 75 36 115 36c126 0 220 -92 220 -218c0 -133 -108 -225 -255 -225zM292 89c70 0 122 50 122 118c0 69 -53 120 -122 120
c-68 0 -121 -51 -121 -120c0 -68 52 -118 121 -118z" />
    <glyph glyph-name="seven" unicode="7" horiz-adv-x="489" 
d="M433 650c25 0 39 -13 39 -35v-25c0 -11 -6 -25 -12 -40l-225 -512c-10 -24 -28 -38 -53 -38h-52c-24 0 -46 16 -32 47l218 492h-266c-25 0 -38 14 -38 39v34c0 25 13 38 38 38h383z" />
    <glyph glyph-name="eight" unicode="8" horiz-adv-x="592" 
d="M432 362c76 -30 122 -94 122 -170c0 -120 -108 -205 -258 -205c-149 0 -258 85 -258 205c0 76 46 139 122 169c-48 27 -77 73 -77 128c0 102 89 173 213 173s213 -71 213 -173c0 -56 -27 -101 -77 -127zM296 563c-50 0 -88 -34 -88 -79c0 -47 38 -82 88 -82s88 35 88 82
c0 45 -38 79 -88 79zM296 90c71 0 124 46 124 110c0 65 -53 113 -124 113s-124 -48 -124 -113c0 -64 53 -110 124 -110z" />
    <glyph glyph-name="nine" unicode="9" horiz-adv-x="570" 
d="M225 -10l-21 21c-19 17 -23 39 2 62c48 47 84 91 152 171l-4 -2c-22 -20 -57 -29 -90 -29c-137 0 -241 90 -241 223c0 132 105 226 255 226c81 0 150 -29 196 -79c39 -42 58 -100 58 -159c1 -156 -104 -289 -237 -427c-22 -23 -46 -29 -70 -7zM278 318
c69 0 122 51 122 120c0 68 -52 118 -122 118s-122 -50 -122 -118c0 -69 53 -120 122 -120z" />
    <glyph glyph-name="fraction" unicode="&#x2044;" horiz-adv-x="524" 
d="M11 0c-26 0 -40 16 -24 39l429 573c17 22 32 38 57 38h40c25 0 39 -16 23 -38l-428 -573c-17 -23 -32 -39 -57 -39h-40z" />
    <glyph glyph-name="onehalf" unicode="&#xbd;" horiz-adv-x="854" 
d="M130 301v260h-65c-18 0 -31 10 -24 31l9 30c5 18 16 28 34 28h128c17 0 28 -9 28 -28v-321c0 -18 -11 -28 -28 -28h-54c-17 0 -28 10 -28 28zM655 650c25 0 39 -16 23 -38l-428 -573c-17 -23 -32 -39 -57 -39h-40c-25 0 -40 16 -23 39l428 573c17 22 32 38 57 38h40z
M790 85c18 0 28 -10 28 -28v-29c0 -18 -10 -28 -28 -28h-245c-16 0 -26 10 -26 26v19c0 16 11 27 26 39c41 36 82 66 107 91c27 27 49 51 49 75c0 28 -20 46 -51 46c-24 0 -53 -14 -75 -32c-18 -14 -35 -12 -49 6l-7 8c-14 18 -10 31 7 46c34 32 87 55 136 55
c77 0 140 -43 140 -118c0 -42 -17 -75 -66 -120c-18 -16 -43 -35 -68 -56h122z" />
    <glyph glyph-name="onequarter" unicode="&#xbc;" horiz-adv-x="765" 
d="M120 301v260h-65c-18 0 -31 10 -24 31l9 30c5 18 16 28 34 28h128c17 0 28 -9 28 -28v-321c0 -18 -11 -28 -28 -28h-54c-17 0 -28 10 -28 28zM639 650c25 0 39 -16 23 -38l-428 -573c-17 -23 -32 -39 -57 -39h-40c-25 0 -40 16 -23 39l428 573c17 22 32 38 57 38h40z
M695 146c18 0 28 -9 28 -27v-19c0 -19 -10 -27 -28 -27h-18v-45c0 -18 -10 -28 -28 -28h-43c-18 0 -28 10 -28 28v45h-146c-17 0 -27 7 -27 26v14c0 17 8 29 18 42l147 198c14 18 23 28 48 28h31c18 0 28 -10 28 -28v-207h18zM510 146h73v104z" />
    <glyph glyph-name="threequarters" unicode="&#xbe;" horiz-adv-x="818" 
d="M324 381c0 -67 -59 -114 -149 -114c-49 0 -103 21 -134 53c-15 15 -16 27 1 46l6 7c17 17 30 10 45 -2c20 -18 51 -27 78 -27c32 0 56 18 56 46c0 32 -29 51 -68 51h-11c-17 0 -25 9 -25 24v13c0 16 8 24 25 24h17c33 0 55 18 55 44c0 25 -19 41 -52 41
c-19 0 -38 -3 -61 -16c-17 -10 -31 -12 -44 8l-4 6c-14 20 -9 33 9 45c32 22 72 32 109 32c79 0 132 -42 132 -105c0 -35 -19 -64 -48 -82c39 -19 63 -52 63 -94zM700 650c25 0 39 -16 23 -38l-428 -573c-17 -23 -32 -39 -57 -39h-40c-25 0 -40 16 -23 39l428 573
c17 22 32 38 57 38h40zM751 146c18 0 28 -9 28 -27v-19c0 -19 -10 -27 -28 -27h-18v-45c0 -18 -10 -28 -28 -28h-43c-18 0 -28 10 -28 28v45h-146c-17 0 -27 7 -27 26v14c0 17 8 29 18 42l147 198c14 18 23 28 48 28h31c18 0 28 -10 28 -28v-207h18zM566 146h73v104z" />
    <glyph glyph-name="period" unicode="." horiz-adv-x="254" 
d="M127 -12c-47 0 -86 39 -86 86c0 48 39 86 86 86c48 0 86 -38 86 -86c0 -47 -38 -86 -86 -86z" />
    <glyph glyph-name="comma" unicode="," horiz-adv-x="256" 
d="M127 160c53 0 88 -37 89 -92c0 -71 -45 -149 -127 -236c-15 -15 -29 -15 -41 -5l-11 10c-14 12 -11 26 2 41c43 48 66 83 68 109c-39 10 -68 45 -68 86c0 48 40 87 88 87z" />
    <glyph glyph-name="colon" unicode=":" horiz-adv-x="274" 
d="M137 340c-47 0 -86 39 -86 86c0 48 39 86 86 86c48 0 86 -38 86 -86c0 -47 -38 -86 -86 -86zM137 -12c-47 0 -86 39 -86 86c0 48 39 86 86 86c48 0 86 -38 86 -86c0 -47 -38 -86 -86 -86z" />
    <glyph glyph-name="semicolon" unicode=";" horiz-adv-x="292" 
d="M148 340c-48 0 -86 39 -86 86c0 48 38 86 86 86c47 0 86 -38 86 -86c0 -47 -39 -86 -86 -86zM235 68c1 -71 -45 -149 -127 -236c-15 -15 -28 -15 -40 -5l-11 10c-14 12 -12 26 2 41c43 48 66 84 67 110c-39 9 -67 44 -67 85c0 48 39 87 88 87c52 0 88 -37 88 -92z" />
    <glyph glyph-name="ellipsis" unicode="&#x2026;" horiz-adv-x="721" 
d="M127 -12c-47 0 -86 39 -86 86c0 48 39 86 86 86c48 0 86 -38 86 -86c0 -47 -38 -86 -86 -86zM361 -12c-47 0 -86 39 -86 86c0 48 39 86 86 86c48 0 86 -38 86 -86c0 -47 -38 -86 -86 -86zM594 -12c-47 0 -86 39 -86 86c0 48 39 86 86 86c48 0 86 -38 86 -86
c0 -47 -38 -86 -86 -86z" />
    <glyph glyph-name="exclam" unicode="!" horiz-adv-x="271" 
d="M162 650c25 0 42 -16 40 -41l-18 -362c-2 -25 -13 -39 -38 -39h-21c-25 0 -37 14 -38 39l-18 362c-2 26 16 41 41 41h52zM136 160c47 0 86 -38 86 -86c0 -47 -39 -86 -86 -86c-48 0 -86 39 -86 86c0 48 38 86 86 86z" />
    <glyph glyph-name="exclamdown" unicode="&#xa1;" horiz-adv-x="264" 
d="M132 340c-47 0 -86 39 -86 86c0 48 39 86 86 86c48 0 86 -38 86 -86c0 -47 -38 -86 -86 -86zM106 -150c-25 0 -42 16 -40 41l18 363c2 25 13 38 38 38h21c25 0 37 -13 38 -38l18 -363c2 -26 -16 -41 -41 -41h-52z" />
    <glyph glyph-name="question" unicode="?" horiz-adv-x="504" 
d="M247 662c128 0 217 -70 217 -170c0 -90 -77 -147 -121 -190c-29 -27 -37 -49 -37 -72v-9c0 -23 -14 -35 -39 -35h-40c-25 0 -39 12 -39 35v8c0 45 20 79 56 114c35 35 96 75 96 130c0 48 -40 81 -103 81c-43 0 -90 -30 -107 -72c-12 -22 -27 -30 -52 -20l-30 12
c-24 9 -27 29 -18 51c28 77 114 137 217 137zM245 145c44 0 80 -36 80 -79c0 -42 -36 -79 -80 -79c-43 0 -79 37 -79 79c0 43 36 79 79 79z" />
    <glyph glyph-name="questiondown" unicode="&#xbf;" horiz-adv-x="497" 
d="M255 353c-44 0 -80 36 -80 79c0 42 36 78 80 78c43 0 79 -36 79 -78c0 -43 -36 -79 -79 -79zM253 -165c-128 0 -217 70 -217 171c0 90 77 147 121 190c29 27 37 49 37 72v9c0 23 14 35 39 35h40c25 0 39 -12 39 -35v-8c0 -45 -20 -79 -56 -114c-35 -35 -96 -75 -96 -130
c0 -48 40 -81 103 -81c43 0 90 29 107 72c12 22 27 30 52 20l30 -12c24 -9 27 -29 18 -51c-28 -77 -114 -138 -217 -138z" />
    <glyph glyph-name="periodcentered" unicode="&#xb7;" horiz-adv-x="277" 
d="M139 191c-51 0 -92 42 -92 92c0 51 41 92 92 92c50 0 92 -41 92 -92c0 -50 -42 -92 -92 -92z" />
    <glyph glyph-name="bullet" unicode="&#x2022;" horiz-adv-x="386" 
d="M193 168c-69 0 -124 56 -124 125s55 124 124 124s125 -55 125 -124s-56 -125 -125 -125z" />
    <glyph glyph-name="asterisk" unicode="*" horiz-adv-x="427" 
d="M368 443c14 -8 16 -19 9 -32l-13 -23c-8 -13 -19 -17 -32 -9l-82 50l4 -96c0 -16 -9 -24 -24 -24h-33c-15 0 -24 8 -23 24l3 97l-81 -51c-12 -7 -24 -4 -32 10l-13 22c-7 13 -4 25 9 32l88 46l-88 48c-14 7 -16 18 -8 32l13 22c7 13 18 17 31 9l81 -50l-3 97
c-1 15 8 23 23 23h33c16 0 24 -8 24 -23l-4 -98l82 51c12 8 24 4 32 -9l13 -22c8 -14 5 -25 -9 -32l-88 -48z" />
    <glyph glyph-name="numbersign" unicode="#" horiz-adv-x="628" 
d="M147 0c-25 0 -36 14 -33 39l19 136h-72c-21 0 -33 12 -29 33l3 15c5 22 17 33 38 33h72l20 140h-76c-21 0 -34 11 -29 33l3 15c5 22 17 33 38 33h75l19 135c4 25 19 38 44 38h27c25 0 36 -13 33 -38l-19 -135h114l19 135c3 25 19 38 44 38h26c25 0 36 -13 33 -38
l-19 -135h70c21 0 33 -12 29 -33l-3 -15c-5 -22 -17 -33 -38 -33h-69l-20 -140h73c21 0 34 -11 29 -33l-3 -15c-5 -22 -17 -33 -38 -33h-73l-19 -136c-3 -25 -19 -39 -44 -39h-26c-25 0 -36 14 -33 39l19 136h-114l-19 -136c-3 -25 -19 -39 -44 -39h-27zM249 256h114l19 140
h-114z" />
    <glyph glyph-name="slash" unicode="/" horiz-adv-x="554" 
d="M48 -53c-25 0 -34 15 -21 38l371 693c12 23 28 38 53 38h54c25 0 35 -15 23 -38l-371 -693c-13 -23 -29 -38 -54 -38h-55z" />
    <glyph glyph-name="backslash" unicode="\" horiz-adv-x="554" 
d="M454 -53c-25 0 -43 14 -56 38l-371 693c-14 24 -4 38 21 38h52c25 0 43 -14 56 -38l371 -693c14 -24 4 -38 -21 -38h-52z" />
    <glyph glyph-name="parenleft" unicode="(" horiz-adv-x="310" 
d="M211 -116c-25 0 -38 13 -53 38c-73 113 -120 251 -120 388s46 276 120 389c15 25 28 38 53 38h49c25 0 39 -15 21 -40c-75 -108 -123 -248 -123 -387s49 -279 123 -386c18 -25 4 -40 -21 -40h-49z" />
    <glyph glyph-name="parenright" unicode=")" horiz-adv-x="310" 
d="M100 -116h-49c-25 0 -39 15 -21 40c74 107 122 247 122 386s-48 279 -122 387c-18 25 -4 40 21 40h49c25 0 37 -13 52 -38c74 -113 120 -252 120 -389s-46 -275 -120 -388c-15 -25 -27 -38 -52 -38z" />
    <glyph glyph-name="braceleft" unicode="{" horiz-adv-x="352" 
d="M239 -116c-94 0 -140 52 -140 171v130c0 47 -10 69 -40 78c-22 6 -36 15 -36 38v22c0 23 14 31 36 37c30 9 40 31 40 78v129c0 119 46 171 140 171h61c24 0 38 -13 38 -38v-19c0 -24 -14 -38 -38 -38h-30c-38 0 -51 -26 -51 -69v-142c0 -75 -30 -112 -80 -120v-1
c51 -8 80 -50 80 -110v-152c0 -43 13 -70 51 -70h30c24 0 38 -14 38 -38v-19c0 -25 -14 -38 -38 -38h-61z" />
    <glyph glyph-name="braceright" unicode="}" horiz-adv-x="352" 
d="M114 -116h-61c-25 0 -38 13 -38 38v19c0 24 13 38 38 38h30c38 0 50 27 50 70v152c0 60 30 102 81 110v1c-51 8 -81 45 -81 120v142c0 43 -12 69 -50 69h-30c-25 0 -38 14 -38 38v19c0 25 13 38 38 38h61c94 0 140 -52 140 -171v-129c0 -47 10 -69 40 -78
c21 -6 35 -14 35 -37v-22c0 -23 -14 -32 -35 -38c-30 -9 -40 -31 -40 -78v-130c0 -119 -46 -171 -140 -171z" />
    <glyph glyph-name="bracketleft" unicode="[" horiz-adv-x="320" 
d="M113 -116c-24 0 -38 13 -38 38v778c0 25 14 38 38 38h153c24 0 38 -13 38 -38v-14c0 -24 -14 -38 -38 -38h-76v-674h76c24 0 38 -14 38 -38v-14c0 -25 -14 -38 -38 -38h-153z" />
    <glyph glyph-name="bracketright" unicode="]" horiz-adv-x="320" 
d="M207 -116h-152c-25 0 -38 13 -38 38v14c0 24 13 38 38 38h75v674h-75c-25 0 -38 14 -38 38v14c0 25 13 38 38 38h152c25 0 38 -13 38 -38v-778c0 -25 -13 -38 -38 -38z" />
    <glyph glyph-name="hyphen" unicode="-" horiz-adv-x="484" 
d="M94 248c-24 0 -38 14 -38 38v29c0 24 14 37 38 37h296c24 0 37 -13 37 -37v-29c0 -24 -13 -38 -37 -38h-296z" />
    <glyph glyph-name="endash" unicode="&#x2013;" horiz-adv-x="594" 
d="M94 248c-24 0 -38 14 -38 38v28c0 25 14 38 38 38h405c25 0 38 -13 38 -38v-28c0 -24 -13 -38 -38 -38h-405z" />
    <glyph glyph-name="emdash" unicode="&#x2014;" horiz-adv-x="733" 
d="M94 248c-24 0 -38 14 -38 38v28c0 25 14 38 38 38h545c24 0 38 -13 38 -38v-28c0 -24 -14 -38 -38 -38h-545z" />
    <glyph glyph-name="underscore" unicode="_" horiz-adv-x="580" 
d="M88 -132c-25 0 -38 13 -38 38v28c0 24 13 38 38 38h405c24 0 38 -14 38 -38v-28c0 -25 -14 -38 -38 -38h-405z" />
    <glyph glyph-name="quotesinglbase" unicode="&#x201a;" horiz-adv-x="250" 
d="M126 140c50 0 83 -35 84 -86c0 -67 -33 -118 -103 -205c-14 -16 -27 -14 -39 -5l-6 4c-12 9 -12 23 -2 36c21 28 49 65 50 93c-38 8 -66 41 -66 81c0 45 37 82 82 82z" />
    <glyph glyph-name="quotedblbase" unicode="&#x201e;" horiz-adv-x="446" 
d="M126 140c50 0 83 -35 84 -86c0 -67 -33 -118 -103 -205c-14 -16 -27 -14 -39 -5l-6 4c-12 9 -12 23 -2 36c21 28 49 65 50 93c-38 8 -66 41 -66 81c0 45 37 82 82 82zM321 140c50 0 83 -35 84 -86c0 -67 -33 -118 -103 -205c-14 -16 -27 -14 -39 -5l-6 4
c-12 9 -12 23 -2 36c21 28 49 65 50 93c-38 8 -66 41 -66 81c0 45 37 82 82 82z" />
    <glyph glyph-name="quotedblleft" unicode="&#x201c;" horiz-adv-x="442" 
d="M137 557c38 -8 66 -41 66 -81c0 -45 -37 -82 -83 -82c-49 0 -83 35 -83 86c-1 66 32 118 103 204c13 16 27 15 38 6l6 -5c12 -9 12 -22 2 -36c-20 -27 -48 -65 -49 -92zM332 557c38 -8 66 -41 66 -81c0 -45 -37 -82 -82 -82c-50 0 -83 35 -84 86c0 66 33 118 103 204
c14 16 27 15 39 6l6 -5c12 -9 12 -22 2 -36c-20 -27 -48 -65 -50 -92z" />
    <glyph glyph-name="quotedblright" unicode="&#x201d;" horiz-adv-x="439" 
d="M129 696c49 0 83 -35 83 -86c1 -66 -32 -118 -103 -204c-13 -16 -27 -15 -38 -6l-6 5c-12 9 -12 22 -2 36c20 27 48 65 49 92c-38 8 -66 41 -66 81c0 45 37 82 83 82zM324 696c50 0 83 -35 84 -86c0 -66 -33 -118 -103 -204c-14 -16 -27 -15 -39 -6l-6 5
c-12 9 -12 22 -2 36c20 27 48 65 50 92c-38 8 -66 41 -66 81c0 45 37 82 82 82z" />
    <glyph glyph-name="quoteleft" unicode="&#x2018;" horiz-adv-x="246" 
d="M137 556c38 -8 66 -41 66 -80c0 -46 -37 -83 -83 -83c-49 0 -83 35 -83 87c-1 66 32 117 103 204c13 16 27 14 38 5l6 -4c12 -9 12 -23 2 -36c-21 -28 -48 -65 -49 -93z" />
    <glyph glyph-name="quoteright" unicode="&#x2019;" horiz-adv-x="243" 
d="M212 610c1 -66 -32 -118 -103 -204c-13 -16 -27 -15 -38 -6l-6 5c-12 9 -12 22 -2 36c20 27 48 65 49 92c-38 8 -66 41 -66 81c0 45 37 82 83 82c49 0 83 -35 83 -86z" />
    <glyph glyph-name="guillemotleft" unicode="&#xab;" horiz-adv-x="534" 
d="M155 300l98 -115c14 -16 18 -35 -1 -53l-15 -13c-20 -17 -44 -10 -57 4l-136 153c-14 16 -13 31 2 49l134 150c13 15 37 22 57 4l15 -13c19 -17 15 -36 1 -52zM374 300l98 -115c14 -16 18 -35 -1 -53l-15 -13c-20 -17 -44 -10 -57 4l-136 153c-14 16 -13 31 2 49l134 150
c13 15 37 22 57 4l15 -13c19 -17 15 -36 1 -52z" />
    <glyph glyph-name="guillemotright" unicode="&#xbb;" horiz-adv-x="533" 
d="M268 325c16 -18 16 -33 2 -49l-136 -153c-13 -14 -37 -21 -57 -4l-14 13c-20 18 -15 37 -2 53l98 115l-98 114c-13 16 -18 35 2 52l14 13c20 18 44 11 57 -4zM487 325c16 -18 16 -33 2 -49l-136 -153c-13 -14 -37 -21 -57 -4l-14 13c-20 18 -15 37 -2 53l98 115l-98 114
c-13 16 -18 35 2 52l14 13c20 18 44 11 57 -4z" />
    <glyph glyph-name="guilsinglleft" unicode="&#x2039;" horiz-adv-x="315" 
d="M155 300l98 -115c14 -16 18 -35 -1 -53l-15 -13c-20 -17 -44 -10 -57 4l-136 153c-14 16 -13 31 2 49l134 150c13 15 37 22 57 4l15 -13c19 -17 15 -36 1 -52z" />
    <glyph glyph-name="guilsinglright" unicode="&#x203a;" horiz-adv-x="314" 
d="M268 325c16 -18 16 -33 2 -49l-136 -153c-13 -14 -37 -21 -57 -4l-14 13c-20 18 -15 37 -2 53l98 115l-98 114c-13 16 -18 35 2 52l14 13c20 18 44 11 57 -4z" />
    <glyph glyph-name="quotedbl" unicode="&#x22;" horiz-adv-x="360" 
d="M98 394c-24 0 -34 13 -36 37l-14 180c-2 26 15 39 39 39h29c24 0 41 -13 39 -39l-14 -180c-2 -24 -11 -37 -35 -37h-8zM255 394c-24 0 -34 13 -36 37l-14 180c-2 26 15 39 39 39h29c24 0 41 -13 39 -39l-14 -180c-2 -24 -11 -37 -35 -37h-8z" />
    <glyph glyph-name="quotesingle" unicode="'" horiz-adv-x="203" 
d="M98 394c-24 0 -34 13 -36 37l-14 180c-2 26 15 39 39 39h29c24 0 41 -13 39 -39l-14 -180c-2 -24 -11 -37 -35 -37h-8z" />
    <glyph glyph-name="cent" unicode="&#xa2;" horiz-adv-x="535" 
d="M453 228l36 -36c18 -18 11 -31 1 -42c-41 -41 -89 -64 -142 -72v-52c0 -24 -13 -38 -37 -38h-26c-24 0 -38 14 -38 38v53c-123 21 -208 120 -208 248s85 227 208 248v48c0 24 14 37 38 37h26c24 0 37 -13 37 -37v-47c53 -8 101 -31 142 -71c10 -12 18 -25 -1 -43l-36 -35
c-12 -12 -23 -16 -42 2c-38 35 -77 42 -108 42c-81 0 -139 -61 -139 -144c0 -82 55 -144 139 -144c31 0 69 6 109 44c18 18 30 12 41 1z" />
    <glyph glyph-name="currency" unicode="&#xa4;" horiz-adv-x="667" 
d="M599 151c18 -17 17 -37 0 -54l-27 -26c-18 -17 -36 -18 -53 -1l-49 49c-42 -25 -87 -37 -137 -37c-49 0 -94 12 -136 37l-49 -49c-16 -17 -35 -16 -52 1l-27 26c-18 17 -18 37 -1 54l43 43c-29 40 -43 85 -43 134s14 95 43 135l-43 44c-17 16 -17 35 0 52l27 27
c17 18 36 18 53 1l49 -49c43 25 88 37 137 37s95 -12 136 -37l49 49c17 17 37 17 54 -1l26 -27c17 -17 18 -36 1 -52l-44 -44c29 -39 44 -84 44 -135c0 -48 -14 -94 -44 -134zM334 186c82 0 143 60 143 142c0 83 -61 143 -143 143s-143 -60 -143 -143
c0 -82 61 -142 143 -142z" />
    <glyph glyph-name="dollar" unicode="$" horiz-adv-x="515" 
d="M492 195c0 -98 -75 -160 -177 -176v-35c0 -24 -14 -38 -38 -38h-26c-24 0 -37 14 -37 38v34c-75 9 -144 41 -188 89c-17 17 -22 34 -5 52l30 32c17 17 33 16 50 1c38 -40 102 -66 153 -66c65 0 105 28 105 68c0 58 -66 65 -145 92c-78 25 -178 69 -178 179
c0 90 71 157 178 171v38c0 24 13 37 37 37h26c24 0 38 -13 38 -37v-40c58 -9 105 -33 140 -65c18 -16 23 -33 7 -52l-25 -29c-16 -19 -33 -20 -51 -5c-32 28 -74 51 -127 51s-90 -25 -90 -62c0 -43 49 -61 99 -78c103 -34 224 -65 224 -199z" />
    <glyph glyph-name="Euro" unicode="&#x20ac;" horiz-adv-x="757" 
d="M701 146c19 -16 19 -37 2 -54c-59 -65 -144 -104 -240 -104c-153 0 -278 96 -319 236h-89c-19 0 -31 10 -26 29l2 11c5 20 15 29 34 29h66c-1 11 -1 21 -1 32c0 8 0 17 1 25h-60c-18 0 -30 10 -26 29l3 11c5 20 15 29 33 29h61c39 144 165 243 322 243
c95 0 180 -39 239 -103c17 -18 17 -39 -2 -54l-35 -31c-17 -15 -34 -13 -52 3c-40 39 -91 63 -150 63c-81 0 -150 -47 -182 -121h211c19 0 30 -10 26 -29l-3 -11c-5 -19 -15 -29 -33 -29h-219c-1 -8 -1 -16 -1 -25c0 -11 1 -22 2 -32h213c19 0 30 -10 26 -29l-3 -11
c-5 -19 -15 -29 -33 -29h-183c33 -70 100 -114 179 -114c59 0 110 24 150 63c18 17 35 19 52 3z" />
    <glyph glyph-name="sterling" unicode="&#xa3;" horiz-adv-x="574" 
d="M498 102c24 0 37 -14 37 -38v-26c0 -24 -13 -38 -37 -38h-418c-24 0 -37 14 -37 38v26c0 24 13 38 37 38h30v178h-28c-25 0 -39 14 -39 38v26c0 24 14 38 39 38h28v72c0 138 108 208 225 208c81 0 152 -33 198 -86c16 -18 15 -38 -2 -54l-24 -22c-17 -16 -36 -14 -53 4
c-29 31 -66 51 -110 51c-60 0 -100 -38 -100 -101v-72h140c24 0 39 -14 39 -38v-26c0 -24 -15 -38 -39 -38h-140v-178h254z" />
    <glyph glyph-name="yen" unicode="&#xa5;" horiz-adv-x="651" 
d="M599 651c24 0 35 -14 22 -36l-208 -344h76c21 0 33 -12 33 -33v-6c0 -21 -12 -33 -33 -33h-99v-52h99c21 0 33 -12 33 -33v-6c0 -21 -12 -33 -33 -33h-99v-36c0 -25 -13 -39 -38 -39h-48c-25 0 -39 14 -39 39v36h-100c-20 0 -32 12 -32 33v6c0 21 12 33 32 33h100v52
h-100c-20 0 -32 12 -32 33v6c0 21 12 33 32 33h76l-212 344c-14 22 -3 36 22 36h74c25 0 35 -12 51 -39l153 -256l149 256c15 27 26 39 51 39h70z" />
    <glyph glyph-name="plus" unicode="+" horiz-adv-x="552" 
d="M487 350c24 0 38 -13 38 -38v-25c0 -25 -14 -38 -38 -38h-155v-154c0 -24 -13 -37 -38 -37h-36c-25 0 -38 13 -38 38v153h-155c-24 0 -38 13 -38 38v25c0 25 14 38 38 38h155v151c0 24 14 38 38 38h37c24 0 38 -13 38 -38v-151h154z" />
    <glyph glyph-name="minus" unicode="&#x2212;" horiz-adv-x="609" 
d="M98 274c-25 0 -38 13 -38 38v28c0 24 13 38 38 38h414c24 0 38 -14 38 -38v-28c0 -25 -14 -38 -38 -38h-414z" />
    <glyph glyph-name="multiply" unicode="&#xd7;" horiz-adv-x="568" 
d="M364 330l145 -145c17 -18 18 -37 0 -54l-27 -27c-18 -18 -37 -17 -54 0l-146 145l-145 -145c-18 -18 -37 -17 -54 0l-24 24c-17 17 -18 36 0 54l146 145l-146 145c-17 17 -17 37 0 54l28 27c17 18 36 17 53 0l146 -145l145 144c17 18 37 18 54 0l24 -24
c17 -16 18 -36 0 -53z" />
    <glyph glyph-name="divide" unicode="&#xf7;" horiz-adv-x="554" 
d="M283 409c-45 0 -81 35 -81 80c0 44 36 80 81 80c44 0 80 -36 80 -80c0 -45 -36 -80 -80 -80zM82 250c-25 0 -38 13 -38 38v23c0 24 13 38 38 38h391c24 0 38 -14 38 -38v-23c0 -25 -14 -38 -38 -38h-391zM283 28c-45 0 -81 36 -81 80c0 45 36 81 81 81
c44 0 80 -36 80 -81c0 -44 -36 -80 -80 -80z" />
    <glyph glyph-name="equal" unicode="=" horiz-adv-x="611" 
d="M99 352c-25 0 -38 14 -38 38v18c0 25 13 38 38 38h414c24 0 38 -13 38 -38v-18c0 -24 -14 -38 -38 -38h-414zM99 154c-25 0 -38 14 -38 38v18c0 25 13 38 38 38h414c24 0 38 -13 38 -38v-18c0 -24 -14 -38 -38 -38h-414z" />
    <glyph glyph-name="notequal" unicode="&#x2260;" horiz-adv-x="606" 
d="M523 368h-138l-51 -86h189c24 0 38 -13 38 -38v-18c0 -24 -14 -38 -38 -38h-245l-62 -104c-14 -24 -28 -35 -52 -35h-31c-25 0 -36 19 -22 42l58 97h-80c-25 0 -38 14 -38 38v18c0 25 13 38 38 38h135l51 86h-186c-25 0 -38 13 -38 38v18c0 24 13 38 38 38h242l62 104
c15 24 28 35 53 35h31c24 0 35 -19 21 -42l-58 -97h83c24 0 38 -14 38 -38v-18c0 -25 -14 -38 -38 -38z" />
    <glyph glyph-name="greater" unicode="&#x3e;" horiz-adv-x="502" 
d="M427 389c30 -18 47 -34 47 -64v-6c0 -33 -16 -46 -47 -65l-326 -196c-27 -15 -47 -1 -47 24v42c0 19 8 31 27 42l255 156l-255 155c-19 12 -27 24 -27 43v41c0 26 20 40 47 24z" />
    <glyph glyph-name="less" unicode="&#x3c;" horiz-adv-x="502" 
d="M449 520c0 -19 -8 -31 -27 -43l-255 -155l255 -156c19 -11 27 -23 27 -42v-42c0 -25 -21 -39 -47 -24l-326 196c-32 19 -48 32 -48 65v6c0 30 17 46 48 64l326 196c26 16 47 2 47 -24v-41z" />
    <glyph glyph-name="plusminus" unicode="&#xb1;" horiz-adv-x="578" 
d="M500 417c24 0 38 -14 38 -38v-26c0 -24 -14 -38 -38 -38h-155v-153c0 -25 -13 -38 -38 -38h-36c-25 0 -38 13 -38 38v153h-155c-24 0 -38 14 -38 38v26c0 24 14 38 38 38h155v150c0 24 14 38 38 38h37c24 0 38 -13 38 -38v-150h154zM500 67c25 0 38 -13 38 -38v-25
c0 -25 -13 -39 -38 -39h-421c-25 0 -38 14 -38 39v25c0 25 13 38 38 38h421z" />
    <glyph glyph-name="approxequal" unicode="&#x2248;" horiz-adv-x="627" 
d="M432 352c-95 0 -155 60 -234 60c-32 0 -44 -10 -52 -31c-8 -20 -15 -27 -39 -27h-18c-24 0 -33 7 -31 27c8 69 56 125 140 125c86 0 155 -60 234 -60c32 0 44 9 52 31c8 20 15 27 39 27h18c24 0 33 -8 31 -27c-8 -69 -56 -125 -140 -125zM432 142c-95 0 -155 60 -234 60
c-32 0 -44 -10 -52 -31c-8 -20 -15 -27 -39 -27h-18c-24 0 -33 7 -31 27c8 69 56 125 140 125c86 0 155 -60 234 -60c32 0 44 9 52 31c8 20 15 27 39 27h18c24 0 33 -8 31 -27c-8 -69 -56 -125 -140 -125z" />
    <glyph glyph-name="asciitilde" unicode="~" horiz-adv-x="616" 
d="M427 248c-95 0 -155 60 -233 60c-32 0 -44 -9 -53 -31c-8 -20 -15 -27 -38 -27h-18c-24 0 -33 8 -31 27c8 69 56 125 140 125c86 0 154 -60 233 -60c32 0 44 10 53 31c8 20 15 27 38 27h18c24 0 33 -7 31 -27c-8 -69 -56 -125 -140 -125z" />
    <glyph glyph-name="asciicircum" unicode="^" horiz-adv-x="603" 
d="M566 315c15 -23 1 -43 -24 -43h-43c-25 0 -36 14 -53 38l-142 214l-146 -214c-17 -24 -28 -38 -53 -38h-43c-25 0 -40 20 -24 43l202 297c17 24 29 38 54 38h21c25 0 38 -13 54 -38z" />
    <glyph glyph-name="percent" unicode="%" horiz-adv-x="867" 
d="M195 276c-94 0 -161 77 -161 193s67 193 161 193s161 -77 161 -193s-67 -193 -161 -193zM184 0c-25 0 -39 16 -23 39l428 573c17 22 32 38 57 38h40c25 0 40 -16 23 -38l-428 -573c-17 -23 -31 -39 -56 -39h-41zM195 361c39 0 68 43 68 108s-27 108 -68 108
s-69 -43 -69 -108s28 -108 69 -108zM673 -13c-94 0 -161 78 -161 194s67 193 161 193s161 -77 161 -193s-67 -194 -161 -194zM673 73c41 0 69 43 69 108s-28 108 -69 108s-68 -43 -68 -108s27 -108 68 -108z" />
    <glyph glyph-name="perthousand" unicode="&#x2030;" horiz-adv-x="1237" 
d="M195 276c-94 0 -161 77 -161 193s67 193 161 193s161 -77 161 -193s-67 -193 -161 -193zM184 0c-25 0 -39 16 -23 39l428 573c17 22 32 38 57 38h40c25 0 40 -16 23 -38l-428 -573c-17 -23 -31 -39 -56 -39h-41zM195 361c39 0 68 43 68 108s-27 108 -68 108
s-69 -43 -69 -108s28 -108 69 -108zM673 -13c-94 0 -161 78 -161 194s67 193 161 193s161 -77 161 -193s-67 -194 -161 -194zM1047 -13c-94 0 -161 78 -161 194s67 193 161 193s161 -77 161 -193s-67 -194 -161 -194zM673 73c41 0 69 43 69 108s-28 108 -69 108
s-68 -43 -68 -108s27 -108 68 -108zM1047 73c41 0 69 43 69 108s-28 108 -69 108s-68 -43 -68 -108s27 -108 68 -108z" />
    </font>
</defs>
</svg>
